<svg width="561" height="561" viewBox="0 0 561 561" fill="none" xmlns="http://www.w3.org/2000/svg">
<path d="M62.2483 307.125C62.2483 307.125 64.8514 387.909 132.295 441.765C199.738 495.621 293.201 499.47 368.857 504.597C444.514 509.725 502.633 466.876 511.351 402.136C520.069 337.397 462.297 318.39 430.926 244.686C399.555 170.982 402.394 146.758 336.028 101.429C269.661 56.1001 165.831 83.9369 111.403 161.568C56.9749 239.199 62.2483 307.125 62.2483 307.125Z" fill="#3C9FCF"/>
<path opacity="0.7" d="M62.2483 307.125C62.2483 307.125 64.8514 387.909 132.295 441.765C199.738 495.621 293.201 499.47 368.857 504.597C444.514 509.725 502.633 466.876 511.351 402.136C520.069 337.397 462.297 318.39 430.926 244.686C399.555 170.982 402.394 146.758 336.028 101.429C269.661 56.1001 165.831 83.9369 111.403 161.568C56.9749 239.199 62.2483 307.125 62.2483 307.125Z" fill="white"/>
<path d="M93.8101 201.612V172.698C93.8101 152.233 110.82 135.582 131.722 135.582C152.625 135.582 169.635 152.233 169.635 172.698V201.612H184.748V172.698C184.748 144.076 160.962 120.783 131.722 120.783C102.483 120.783 78.6968 144.076 78.6968 172.698V201.612H93.8101Z" stroke="#263238" stroke-width="1.16634" stroke-linecap="round" stroke-linejoin="round"/>
<path d="M188.855 201.814H73.0869V297.577H188.855V201.814Z" stroke="#263238" stroke-width="1.16634" stroke-linecap="round" stroke-linejoin="round"/>
<path d="M143.01 241.589C142.912 238.311 141.541 235.2 139.188 232.916C136.835 230.631 133.684 229.354 130.404 229.354C127.125 229.354 123.974 230.631 121.621 232.916C119.268 235.2 117.897 238.311 117.799 241.589C117.812 243.83 118.436 246.024 119.602 247.938C120.768 249.851 122.433 251.411 124.419 252.45L122.298 274.194H138.511L136.39 252.45C138.376 251.411 140.041 249.851 141.207 247.938C142.373 246.024 142.997 243.83 143.01 241.589Z" stroke="#263238" stroke-width="1.16634" stroke-linecap="round" stroke-linejoin="round"/>
<path d="M261.022 300.685L232.198 298.789V298.317L228.653 298.553L225.118 298.317V298.789L196.294 300.685L175.032 475.492H196.294L227.946 336.118H229.371L261.022 475.492H282.284L261.022 300.685Z" fill="#263238" stroke="#263238" stroke-width="1.16634" stroke-linecap="round" stroke-linejoin="round"/>
<path d="M175.032 475.481L169.837 483.515L153.77 490.606C152.924 491.073 152.216 491.757 151.72 492.586C151.223 493.416 150.955 494.362 150.943 495.329V501.467H196.765C197.035 498.166 197.035 494.849 196.765 491.548C196.294 486.825 196.294 475.481 196.294 475.481H175.032Z" fill="#4C4C4C" stroke="#263238" stroke-width="1.16634" stroke-linecap="round" stroke-linejoin="round"/>
<path d="M150.943 496.272V501.467H196.765C196.765 501.467 196.979 499.223 196.979 496.272H150.943Z" fill="#263238" stroke="#263238" stroke-width="1.16634" stroke-linecap="round" stroke-linejoin="round"/>
<path d="M282.194 475.481L287.389 483.515L303.456 490.606C304.303 491.073 305.01 491.757 305.507 492.586C306.004 493.416 306.272 494.362 306.284 495.329V501.467H260.461C260.191 498.166 260.191 494.849 260.461 491.548C260.933 486.825 260.933 475.481 260.933 475.481H282.194Z" fill="#4C4C4C" stroke="#263238" stroke-width="1.16634" stroke-linecap="round" stroke-linejoin="round"/>
<path d="M306.306 496.272V501.467H260.461C260.461 501.467 260.259 499.223 260.248 496.272H306.306Z" fill="#263238" stroke="#263238" stroke-width="1.16634" stroke-linecap="round" stroke-linejoin="round"/>
<path d="M184.087 219.362C184.087 219.362 150.427 266.666 150.427 270.133C150.427 273.6 155.779 300.371 164.283 302.884C172.788 305.397 177.512 300.999 179.083 292.18C180.653 283.361 175.301 270.761 175.301 270.761L191.009 256.59L184.087 219.362Z" fill="#3C9FCF" stroke="#263238" stroke-width="1.16634" stroke-linecap="round" stroke-linejoin="round"/>
<path d="M177.557 290.923C177.557 290.923 187.318 289.341 189.843 289.97C192.367 290.598 194.252 296.589 194.252 296.589C194.252 296.589 195.195 305.408 193.613 307.293C192.031 309.178 184.48 311.389 181.338 312.017C178.196 312.645 171.565 305.408 168.996 300.999C166.427 296.589 170.937 289.027 177.557 290.923Z" fill="#CCCCCC" stroke="#263238" stroke-width="1.16634" stroke-linecap="round" stroke-linejoin="round"/>
<path d="M191.167 217.219L184.087 219.362L195.24 293.807H261.527L271.614 219.789L262.604 216.355L229.348 209.062L191.167 217.219Z" fill="#3C9FCF" stroke="#263238" stroke-width="1.16634" stroke-linecap="round" stroke-linejoin="round"/>
<path d="M265.174 242.105L263.681 252.831L252.091 255.614L240.288 250.902L241.152 241.241L265.174 242.105Z" fill="#263238" stroke="#263238" stroke-width="1.16634" stroke-linecap="round" stroke-linejoin="round"/>
<path d="M252.843 252.831C253.971 252.831 254.885 251.917 254.885 250.789C254.885 249.662 253.971 248.747 252.843 248.747C251.715 248.747 250.801 249.662 250.801 250.789C250.801 251.917 251.715 252.831 252.843 252.831Z" fill="#4C4C4C" stroke="#263238" stroke-width="1.16634" stroke-linecap="round" stroke-linejoin="round"/>
<path d="M222.268 222.796L228.496 230.089L220.552 280.713L228.922 294.02L238.795 280.074L230.425 230.302L237.505 223.435L229.999 213.786L222.268 222.796Z" fill="#263238" stroke="#263238" stroke-width="1.16634" stroke-linecap="round" stroke-linejoin="round"/>
<path d="M216.266 210.139L187.733 217.219L188.597 220.653L216.479 212.922L216.266 210.139Z" fill="#263238" stroke="#263238" stroke-width="1.16634" stroke-linecap="round" stroke-linejoin="round"/>
<path d="M239.648 209.275L268.181 216.355L267.328 219.789L239.435 212.069L239.648 209.275Z" fill="#263238" stroke="#263238" stroke-width="1.16634" stroke-linecap="round" stroke-linejoin="round"/>
<path d="M268.158 216.355C268.158 216.355 278.952 218.79 285.56 222.571C292.169 226.352 293.751 234.857 289.97 244.304C286.189 253.751 274.542 252.495 269.19 249.914C263.838 247.334 262.256 237.954 263.199 233.858" fill="#3C9FCF"/>
<path d="M268.158 216.355C268.158 216.355 278.952 218.79 285.56 222.571C292.169 226.352 293.751 234.857 289.97 244.304C286.189 253.751 274.542 252.495 269.19 249.914C263.838 247.334 262.256 237.954 263.199 233.858" stroke="#263238" stroke-width="1.16634" stroke-linecap="round" stroke-linejoin="round"/>
<path d="M217.556 206.493L214.336 208.636L215.189 230.302L229.135 220.439L243.721 230.515L245.011 209.062L241.152 205.842L217.556 206.493Z" fill="#3C9FCF" stroke="#263238" stroke-width="1.16634" stroke-linecap="round" stroke-linejoin="round"/>
<path d="M245.718 180.721C245.718 180.721 253.64 178.791 255.132 170.869C256.624 162.948 242.352 153.31 232.456 151.605C222.56 149.899 208.053 160.165 205.697 167.234C203.34 174.303 212.541 181.36 222.392 182.864C232.243 184.367 245.718 180.721 245.718 180.721Z" fill="#263238" stroke="#263238" stroke-width="1.16634" stroke-linecap="round" stroke-linejoin="round"/>
<path d="M216.187 182.011C216.187 182.011 211.901 175.369 210.835 181.147C209.769 186.925 214.257 189.495 216.187 189.281C218.117 189.068 216.187 182.011 216.187 182.011Z" fill="#CCCCCC" stroke="#263238" stroke-width="1.16634" stroke-linecap="round" stroke-linejoin="round"/>
<path d="M244.024 182.011C244.024 182.011 248.31 175.369 249.376 181.147C250.442 186.925 246.01 189.495 244.024 189.281C242.038 189.068 244.024 182.011 244.024 182.011Z" fill="#CCCCCC" stroke="#263238" stroke-width="1.16634" stroke-linecap="round" stroke-linejoin="round"/>
<path d="M217.13 195.116V209.275L229.135 220.439L242.655 208.849V195.553L217.13 195.116Z" fill="#CCCCCC" stroke="#263238" stroke-width="1.16634" stroke-linecap="round" stroke-linejoin="round"/>
<path d="M215.334 177.725C215.334 177.725 214.684 190.998 215.761 195.284C216.838 199.57 223.895 208.557 229.46 210.487C235.026 212.417 242.734 200.849 244.45 197.023C246.167 193.197 245.516 176.894 245.516 176.894C245.516 176.894 243.171 171.284 238.459 169.624C233.747 167.963 219.183 164.934 215.334 177.725Z" fill="#CCCCCC" stroke="#263238" stroke-width="1.16634" stroke-linecap="round" stroke-linejoin="round"/>
<path d="M224.232 184.771C224.232 185.781 223.772 186.6 223.2 186.6C222.627 186.6 222.167 185.781 222.167 184.771C222.167 183.761 222.627 182.942 223.2 182.942C223.772 182.942 224.232 183.761 224.232 184.771Z" fill="#263238"/>
<path d="M237.371 184.771C237.371 185.781 236.911 186.6 236.338 186.6C235.766 186.6 235.306 185.781 235.306 184.771C235.306 183.761 235.766 182.942 236.338 182.942C236.911 182.942 237.371 183.761 237.371 184.771Z" fill="#263238"/>
<path d="M226.465 189.887C226.253 189.837 226.034 189.835 225.822 189.882C225.61 189.928 225.411 190.022 225.241 190.157C225.071 190.291 224.933 190.462 224.839 190.658C224.744 190.853 224.695 191.067 224.695 191.284C224.695 191.501 224.744 191.715 224.839 191.91C224.933 192.106 225.071 192.277 225.241 192.411C225.411 192.546 225.61 192.64 225.822 192.687C226.034 192.733 226.253 192.731 226.465 192.681C226.915 192.69 227.355 192.544 227.71 192.266C228.042 192.656 228.452 192.97 228.915 193.189C229.378 193.408 229.882 193.525 230.394 193.533C230.905 193.542 231.413 193.441 231.883 193.238C232.353 193.035 232.774 192.734 233.118 192.356C233.452 192.572 233.842 192.685 234.24 192.681C234.451 192.731 234.671 192.733 234.883 192.687C235.094 192.64 235.293 192.546 235.463 192.411C235.634 192.277 235.771 192.106 235.866 191.91C235.961 191.715 236.01 191.501 236.01 191.284C236.01 191.067 235.961 190.853 235.866 190.658C235.771 190.462 235.634 190.291 235.463 190.157C235.293 190.022 235.094 189.928 234.883 189.882C234.671 189.835 234.451 189.837 234.24 189.887" fill="#CCCCCC"/>
<path d="M226.465 189.887C226.253 189.837 226.034 189.835 225.822 189.882C225.61 189.928 225.411 190.022 225.241 190.157C225.071 190.291 224.933 190.462 224.839 190.658C224.744 190.853 224.695 191.067 224.695 191.284C224.695 191.501 224.744 191.715 224.839 191.91C224.933 192.106 225.071 192.277 225.241 192.411C225.411 192.546 225.61 192.64 225.822 192.687C226.034 192.733 226.253 192.731 226.465 192.681C226.915 192.69 227.355 192.544 227.71 192.266C228.042 192.656 228.452 192.97 228.915 193.189C229.378 193.408 229.882 193.525 230.394 193.533C230.905 193.542 231.413 193.441 231.883 193.238C232.353 193.035 232.774 192.734 233.118 192.356C233.452 192.572 233.842 192.685 234.24 192.681C234.451 192.731 234.671 192.733 234.883 192.687C235.094 192.64 235.293 192.546 235.463 192.411C235.634 192.277 235.771 192.106 235.866 191.91C235.961 191.715 236.01 191.501 236.01 191.284C236.01 191.067 235.961 190.853 235.866 190.658C235.771 190.462 235.634 190.291 235.463 190.157C235.293 190.022 235.094 189.928 234.883 189.882C234.671 189.835 234.451 189.837 234.24 189.887" stroke="#263238" stroke-width="1.16634" stroke-linecap="round" stroke-linejoin="round"/>
<path d="M228.17 198.673H232.647" stroke="#263238" stroke-width="1.16634" stroke-linecap="round" stroke-linejoin="round"/>
<path d="M214.841 180.945C214.841 180.945 214.998 185.253 216.434 184.131C217.87 183.009 218.341 175.694 217.074 174.74C215.806 173.787 214.841 178.723 214.841 180.945Z" fill="#263238" stroke="#263238" stroke-width="1.16634" stroke-linecap="round" stroke-linejoin="round"/>
<path d="M242.476 180.945C242.476 180.945 242.644 185.253 244.069 184.131C245.494 183.009 245.987 175.694 244.708 174.74C243.429 173.787 242.476 178.723 242.476 180.945Z" fill="#263238" stroke="#263238" stroke-width="1.16634" stroke-linecap="round" stroke-linejoin="round"/>
<path d="M214.841 177.444C214.841 177.444 215.323 177.837 215.312 178.028C217.388 179.15 222.156 181.214 229.898 181.629C235.388 181.819 240.825 180.487 245.606 177.781C245.606 177.209 245.606 176.872 245.606 176.861C245.415 171.845 241.69 168.502 237.079 167.223C232.546 165.975 227.732 166.215 223.345 167.907C221.121 168.746 219.158 170.159 217.657 172.003C217.085 172.631 214.055 176.816 214.841 177.444Z" fill="#4C4C4C" stroke="#263238" stroke-width="1.16634" stroke-linecap="round" stroke-linejoin="round"/>
<path d="M215.334 177.725C220.119 178.783 225.033 179.142 229.92 178.791C239.132 178.364 245.539 177.725 245.539 177.725C241.306 181.693 235.841 184.093 230.055 184.524C227.229 184.708 224.402 184.182 221.831 182.994C219.26 181.807 217.027 179.995 215.334 177.725Z" fill="#4C4C4C" stroke="#263238" stroke-width="1.16634" stroke-linecap="round" stroke-linejoin="round"/>
<path d="M191.817 242.105L193.31 252.831L204.9 255.614L216.692 250.902L215.839 241.241L191.817 242.105Z" fill="#263238" stroke="#263238" stroke-width="1.16634" stroke-linecap="round" stroke-linejoin="round"/>
<path d="M204.148 252.831C205.276 252.831 206.19 251.917 206.19 250.789C206.19 249.662 205.276 248.747 204.148 248.747C203.02 248.747 202.106 249.662 202.106 250.789C202.106 251.917 203.02 252.831 204.148 252.831Z" fill="#4C4C4C" stroke="#263238" stroke-width="1.16634" stroke-linecap="round" stroke-linejoin="round"/>
<path d="M262.279 293.123H194.252V303.826H262.279V293.123Z" fill="#4C4C4C" stroke="#263238" stroke-width="1.16634" stroke-linecap="round" stroke-linejoin="round"/>
<path d="M207.323 293.751H192.524C190.87 293.751 189.528 295.092 189.528 296.746V303.983C189.528 305.638 190.87 306.979 192.524 306.979H207.323C208.978 306.979 210.319 305.638 210.319 303.983V296.746C210.319 295.092 208.978 293.751 207.323 293.751Z" fill="#4C4C4C" stroke="#263238" stroke-width="1.16634" stroke-linecap="round" stroke-linejoin="round"/>
<path d="M261.494 293.751H246.694C245.04 293.751 243.699 295.092 243.699 296.746V303.983C243.699 305.638 245.04 306.979 246.694 306.979H261.494C263.148 306.979 264.489 305.638 264.489 303.983V296.746C264.489 295.092 263.148 293.751 261.494 293.751Z" fill="#4C4C4C" stroke="#263238" stroke-width="1.16634" stroke-linecap="round" stroke-linejoin="round"/>
<path d="M236.765 293.751H221.965V303.198H236.765V293.751Z" fill="white" stroke="#263238" stroke-width="1.16634" stroke-linecap="round" stroke-linejoin="round"/>
<path d="M175.346 270.761C175.346 270.761 165.899 270.133 162.432 264.141" stroke="#263238" stroke-width="1.16634" stroke-linecap="round" stroke-linejoin="round"/>
<path d="M280.388 243.048C289.001 243.048 295.984 235.713 295.984 226.666C295.984 217.619 289.001 210.285 280.388 210.285C271.775 210.285 264.792 217.619 264.792 226.666C264.792 235.713 271.775 243.048 280.388 243.048Z" fill="#3C9FCF" stroke="#263238" stroke-width="1.16634" stroke-linecap="round" stroke-linejoin="round"/>
<path d="M280.388 229.314C287.13 229.314 292.595 224.417 292.595 218.375C292.595 212.333 287.13 207.435 280.388 207.435C273.646 207.435 268.181 212.333 268.181 218.375C268.181 224.417 273.646 229.314 280.388 229.314Z" fill="#3C9FCF" stroke="#263238" stroke-width="1.16634" stroke-linecap="round" stroke-linejoin="round"/>
<path d="M280.388 221.27C287.13 221.27 292.595 216.372 292.595 210.33C292.595 204.288 287.13 199.391 280.388 199.391C273.646 199.391 268.181 204.288 268.181 210.33C268.181 216.372 273.646 221.27 280.388 221.27Z" fill="#CCCCCC" stroke="#263238" stroke-width="1.16634" stroke-linecap="round" stroke-linejoin="round"/>
<path d="M260.775 186.746C260.775 186.746 260.989 202.88 261.808 207.637C262.627 212.395 265.948 218.599 270.503 218.599C273.538 218.524 276.541 217.968 279.401 216.95C279.401 216.95 284.775 219.845 289.947 219.014C295.12 218.184 294.29 210.947 294.29 207.794C294.29 204.642 293.672 181.315 293.672 181.315C293.672 181.315 294.088 179.071 292.012 178.634C290.994 178.404 289.958 178.265 288.915 178.218V173.248C288.533 172.679 288.004 172.224 287.383 171.934C286.762 171.643 286.074 171.527 285.392 171.599C282.71 171.599 282.497 172.216 282.497 172.216V167.66C282.497 167.66 280.253 164.036 277.325 165.798C276.735 166.137 276.237 166.616 275.877 167.194C275.517 167.771 275.305 168.429 275.26 169.108L275.047 173.461C275.047 173.461 270.088 171.599 269.673 174.493C269.258 177.388 268.427 195.228 268.427 195.228C268.134 192.423 267.581 189.651 266.778 186.948C265.746 184.255 260.775 184.255 260.775 186.746Z" fill="#CCCCCC" stroke="#263238" stroke-width="1.16634" stroke-linecap="round" stroke-linejoin="round"/>
<path d="M275.047 173.506L275.462 192.535" stroke="#263238" stroke-width="1.16634" stroke-linecap="round" stroke-linejoin="round"/>
<path d="M282.497 172.261L282.71 192.737" stroke="#263238" stroke-width="1.16634" stroke-linecap="round" stroke-linejoin="round"/>
<path d="M288.915 178.263L288.5 192.535" stroke="#263238" stroke-width="1.16634" stroke-linecap="round" stroke-linejoin="round"/>
<path d="M272.366 192.333L291.193 193.152" stroke="#263238" stroke-width="1.16634" stroke-linecap="round" stroke-linejoin="round"/>
<path d="M268.427 195.228C268.433 196.009 268.619 196.778 268.972 197.475C269.324 198.171 269.833 198.777 270.458 199.245C272.5 200.524 277.101 203.845 277.605 209.208" stroke="#263238" stroke-width="1.16634" stroke-linecap="round" stroke-linejoin="round"/>
<path d="M392.7 144.525V146.982H386.72V155.689H394.069V158.202H383.971V133.742H394.069V136.222H386.72V144.57L392.7 144.525Z" fill="#263238"/>
<path d="M402.013 133.698C405.85 133.698 407.466 135.65 407.466 139.308V141.305C407.466 143.997 406.523 145.669 404.425 146.331C406.669 146.993 407.499 148.811 407.499 151.436V155.251C407.419 156.252 407.585 157.257 407.982 158.18H405.222C404.84 157.242 404.686 156.226 404.773 155.217V151.369C404.773 148.609 403.483 147.734 401.205 147.734H399.286V158.202H396.56V133.742L402.013 133.698ZM401.306 145.232C403.483 145.232 404.773 144.525 404.773 141.866V139.521C404.773 137.277 403.965 136.155 401.945 136.155H399.286V145.209L401.306 145.232Z" fill="#263238"/>
<path d="M415.78 133.698C419.628 133.698 421.233 135.65 421.233 139.308V141.305C421.233 143.997 420.29 145.669 418.192 146.331C420.436 146.993 421.266 148.811 421.266 151.436V155.251C421.184 156.253 421.354 157.26 421.76 158.18H419C418.612 157.243 418.454 156.227 418.54 155.217V151.369C418.54 148.609 417.249 147.734 414.972 147.734H413.053V158.202H410.327V133.742L415.78 133.698ZM415.14 145.232C417.306 145.232 418.596 144.525 418.596 141.866V139.521C418.596 137.277 417.799 136.155 415.768 136.155H413.109V145.209L415.14 145.232Z" fill="#263238"/>
<path d="M423.892 139.599C423.892 135.863 425.743 133.451 429.502 133.451C433.26 133.451 435.112 135.863 435.112 139.599V152.255C435.112 155.958 433.26 158.404 429.502 158.404C425.743 158.404 423.892 155.958 423.892 152.255V139.599ZM426.584 152.39C426.584 154.634 427.527 155.924 429.479 155.924C431.431 155.924 432.385 154.634 432.385 152.39V139.465C432.385 137.221 431.476 135.93 429.479 135.93C427.482 135.93 426.584 137.254 426.584 139.465V152.39Z" fill="#263238"/>
<path d="M443.19 133.698C447.039 133.698 448.643 135.65 448.643 139.308V141.305C448.643 143.997 447.701 145.669 445.602 146.331C447.846 146.993 448.677 148.811 448.677 151.436V155.251C448.594 156.253 448.764 157.26 449.17 158.18H446.41C446.023 157.243 445.865 156.227 445.95 155.217V151.369C445.95 148.609 444.66 147.734 442.382 147.734H440.464V158.202H437.692V133.742L443.19 133.698ZM442.495 145.232C444.66 145.232 445.95 144.525 445.95 141.866V139.521C445.95 137.277 445.154 136.155 443.123 136.155H440.464V145.209L442.495 145.232Z" fill="#263238"/>
<path d="M369.564 297.195V299.675H363.954V310.267H361.228V285.807H370.945V288.287H363.954V297.195H369.564Z" fill="#263238"/>
<path d="M372.874 291.72C372.874 287.984 374.737 285.572 378.484 285.572C382.232 285.572 384.094 287.984 384.094 291.72V304.376C384.094 308.079 382.243 310.525 378.484 310.525C374.726 310.525 372.874 308.079 372.874 304.376V291.72ZM375.567 304.511C375.567 306.755 376.51 308.045 378.473 308.045C380.437 308.045 381.368 306.755 381.368 304.511V291.574C381.368 289.33 380.459 288.04 378.473 288.04C376.487 288.04 375.567 289.364 375.567 291.574V304.511Z" fill="#263238"/>
<path d="M392.139 285.807C395.976 285.807 397.592 287.759 397.592 291.417V293.414C397.592 296.107 396.65 297.779 394.551 298.441C396.795 299.103 397.626 300.92 397.626 303.546V307.361C397.543 308.363 397.713 309.369 398.119 310.289H395.359C394.966 309.354 394.808 308.337 394.899 307.327V303.479C394.899 300.719 393.609 299.843 391.331 299.843H389.413V310.289H386.686V285.83L392.139 285.807ZM391.444 297.33C393.609 297.33 394.899 296.623 394.899 293.964V291.619C394.899 289.375 394.091 288.253 392.072 288.253H389.413V297.33H391.444Z" fill="#263238"/>
<path d="M405.94 285.807C409.754 285.807 411.258 287.625 411.258 291.226V292.348C411.258 294.94 410.517 296.545 408.386 297.207C410.764 297.88 411.673 299.765 411.673 302.458V304.511C411.673 308.191 409.889 310.244 406.063 310.244H400.453V285.785L405.94 285.807ZM405.278 296.186C407.443 296.186 408.565 295.49 408.565 292.932V291.496C408.565 289.33 407.825 288.287 405.872 288.287H403.18V296.141L405.278 296.186ZM406.086 307.787C408.071 307.787 408.98 306.744 408.98 304.421V302.256C408.98 299.529 407.858 298.62 405.558 298.62H403.18V307.742L406.086 307.787Z" fill="#263238"/>
<path d="M416.879 285.807V310.267H414.153V285.807H416.879Z" fill="#263238"/>
<path d="M425.406 285.807C429.221 285.807 431.016 288.051 431.016 291.888V304.23C431.016 307.978 429.266 310.278 425.406 310.278H419.684V285.818L425.406 285.807ZM425.406 307.787C427.37 307.787 428.312 306.564 428.312 304.331V291.72C428.312 289.476 427.37 288.264 425.373 288.264H422.433V307.765L425.406 307.787Z" fill="#263238"/>
<path d="M439.252 285.807C443.056 285.807 444.806 288.051 444.806 291.888V304.23C444.806 307.978 443.056 310.278 439.252 310.278H433.519V285.818L439.252 285.807ZM439.252 307.787C441.204 307.787 442.147 306.564 442.147 304.331V291.72C442.147 289.476 441.204 288.264 439.218 288.264H436.279V307.765L439.252 307.787Z" fill="#263238"/>
<path d="M456.059 296.634V299.08H450.079V307.787H457.428V310.267H447.33V285.807H457.428V288.287H450.079V296.634H456.059Z" fill="#263238"/>
<path d="M462.354 310.267H459.908V285.807H463.386L468.996 303.49V285.807H471.408V310.267H468.57L462.32 290.486L462.354 310.267Z" fill="#263238"/>
<path d="M343.938 233.668L368.902 174.639H383.881V233.668H390.366V246.144H383.881V261.987H370.417V246.144H343.938V233.668ZM370.395 233.668V200.838L356.549 233.657L370.395 233.668Z" fill="#263238"/>
<path d="M395.483 195.598C395.483 181.629 402.843 173.641 416.318 173.641C429.793 173.641 437.165 181.629 437.165 195.598V241.028C437.165 255.008 429.793 262.985 416.318 262.985C402.843 262.985 395.483 255.008 395.483 241.028V195.598ZM409.205 241.903C409.205 248.141 411.954 250.509 416.318 250.509C420.683 250.509 423.432 248.141 423.432 241.903V194.779C423.432 188.53 420.694 186.162 416.318 186.162C411.942 186.162 409.205 188.53 409.205 194.779V241.903Z" fill="#263238"/>
<path d="M472.474 196.103C472.474 188.249 469.737 186.117 465.361 186.117C460.985 186.117 458.247 188.485 458.247 194.734V200.344H445.277V195.598C445.277 181.629 452.256 173.641 465.742 173.641C479.229 173.641 486.208 181.629 486.208 195.598V197.842C486.208 207.2 483.212 213.068 476.592 215.794C483.459 218.79 486.208 225.275 486.208 234.139V241.006C486.208 254.986 479.218 262.963 465.742 262.963C452.267 262.963 445.277 254.986 445.277 241.006V233.769H458.247V241.881C458.247 248.119 460.996 250.486 465.361 250.486C469.726 250.486 472.474 248.366 472.474 240.635V233.769C472.474 225.657 469.737 222.661 463.498 222.661H458.898V210.207H464.261C469.378 210.207 472.497 207.963 472.497 200.973L472.474 196.103Z" fill="#263238"/>
<path d="M97.4685 500.973H81.4688L102.798 352.297H118.798L97.4685 500.973Z" fill="#263238" stroke="#263238" stroke-width="1.16634" stroke-miterlimit="10"/>
<path d="M129.468 500.973H145.456L124.127 352.297H108.139L129.468 500.973Z" fill="white" stroke="#263238" stroke-width="1.16634" stroke-miterlimit="10"/>
<path d="M324.46 500.973H308.472L329.79 352.297H345.789L324.46 500.973Z" fill="#263238" stroke="#263238" stroke-width="1.16634" stroke-miterlimit="10"/>
<path d="M356.46 500.973H372.448L351.119 352.297H335.13L356.46 500.973Z" fill="white" stroke="#263238" stroke-width="1.16634" stroke-miterlimit="10"/>
<path d="M367.635 328.982H62.5293V358.558H367.635V328.982Z" fill="#3C9FCF" stroke="#263238" stroke-width="1.16634" stroke-miterlimit="10"/>
<path d="M375.074 328.982H69.9683V358.558H375.074V328.982Z" fill="#3C9FCF" stroke="#263238" stroke-width="1.16634" stroke-miterlimit="10"/>
<path d="M74.9609 358.558H100.857L114.242 328.982H88.3464L74.9609 358.558Z" fill="#263238"/>
<path d="M177.467 328.982H151.571L138.186 358.558H164.081L177.467 328.982Z" fill="#263238"/>
<path d="M367.13 328.982H341.234L327.86 358.558H353.756L367.13 328.982Z" fill="#263238"/>
<path d="M303.916 328.982H278.009L264.635 358.558H290.531L303.916 328.982Z" fill="#263238"/>
<path d="M240.692 328.982H214.796L201.411 358.558H227.306L240.692 328.982Z" fill="#263238"/>
<path d="M373.402 342.098H322.912" stroke="#263238" stroke-width="1.16634" stroke-miterlimit="10"/>
<path d="M372.516 347.046H364.549" stroke="#263238" stroke-width="1.16634" stroke-miterlimit="10"/>
<path d="M68.6777 345.812H119.168" stroke="#263238" stroke-width="1.16634" stroke-miterlimit="10"/>
<path d="M69.5645 340.247H133.339" stroke="#263238" stroke-width="1.16634" stroke-miterlimit="10"/>
<path d="M458.348 494.488H371.797V500.984H458.348V494.488Z" fill="#263238" stroke="#263238" stroke-width="1.16634" stroke-linecap="round" stroke-linejoin="round"/>
<path d="M443.74 494.308H386.406L408.879 372.055H421.266L443.74 494.308Z" fill="#3C9FCF" stroke="#263238" stroke-width="1.16634" stroke-linecap="round" stroke-linejoin="round"/>
<path d="M400.532 417.496H429.625L426.831 402.349H403.314L400.532 417.496Z" fill="white" stroke="#263238" stroke-width="1.16634" stroke-linecap="round" stroke-linejoin="round"/>
<path d="M435.123 473.899L436.559 482.258" stroke="#263238" stroke-width="1.16634" stroke-linecap="round" stroke-linejoin="round"/>
<path d="M418.753 378.81L433.317 463.386" stroke="#263238" stroke-width="1.16634" stroke-linecap="round" stroke-linejoin="round"/>
<path d="M504.911 500.973H512.664" stroke="#263238" stroke-width="1.16634" stroke-linecap="round" stroke-linejoin="round"/>
<path d="M44.1733 500.973H494.084" stroke="#263238" stroke-width="1.16634" stroke-linecap="round" stroke-linejoin="round"/>
</svg>
