<svg width="561" height="561" viewBox="0 0 561 561" fill="none" xmlns="http://www.w3.org/2000/svg">
<path d="M43.6345 300.247C43.6345 300.247 47.7186 383.937 118.393 437.647C189.068 491.357 285.784 492.412 364.111 495.341C442.438 498.269 501.803 452.031 509.747 384.633C517.691 317.234 457.585 299.361 423.88 223.918C390.175 148.474 392.7 123.297 323.237 78.3829C253.774 33.4692 146.982 65.5921 92.0039 147.812C37.0259 230.032 43.6345 300.247 43.6345 300.247Z" fill="#3C9FCF"/>
<path opacity="0.7" d="M43.6345 300.247C43.6345 300.247 47.7186 383.937 118.393 437.647C189.068 491.357 285.784 492.412 364.111 495.341C442.438 498.269 501.803 452.031 509.747 384.633C517.691 317.234 457.585 299.361 423.88 223.918C390.175 148.474 392.7 123.297 323.237 78.3829C253.774 33.4692 146.982 65.5921 92.0039 147.812C37.0259 230.032 43.6345 300.247 43.6345 300.247Z" fill="white"/>
<path d="M472.059 418.349C472.059 418.349 468.244 402.136 471.106 387.819C473.967 373.503 480.643 383.051 488.283 373.503C495.924 363.954 492.098 345.834 500.681 338.193C509.265 330.552 521.674 331.517 524.535 317.201C527.396 302.884 529.315 291.395 535.037 293.347C540.759 295.299 530.269 312.421 530.269 322.934C530.269 333.447 535.991 340.101 532.176 350.603C528.361 361.105 512.137 357.278 512.137 369.677C512.137 382.075 518.813 394.484 513.091 403.079C507.369 411.673 492.098 413.569 490.191 418.338C488.283 423.106 483.459 431.701 478.735 431.701C474.012 431.701 472.059 418.349 472.059 418.349Z" fill="#BFBFBF"/>
<path d="M468.996 418.506C469.95 415.645 468.042 390.837 459.459 386.069C450.876 381.3 441.328 383.208 436.559 374.613C431.791 366.019 431.779 362.215 427.011 361.261C422.242 360.308 399.342 356.482 402.203 361.261C405.065 366.041 422.242 358.389 422.242 367.937C422.242 377.486 420.335 392.745 426.057 396.56C431.779 400.374 447.05 399.421 446.096 408.015C445.142 416.61 442.281 419.46 447.05 422.332C451.818 425.204 465.181 437.591 467.089 428.054L468.996 418.506Z" fill="#BFBFBF"/>
<path d="M479.577 439.566C479.577 439.566 475.089 425.664 487.352 400.105C499.616 374.546 508.468 355.102 514.022 345.127" stroke="#263238" stroke-width="1.25654" stroke-miterlimit="10"/>
<path d="M469.568 441.788C469.568 441.788 467.908 435.112 462.343 416.778C456.778 398.445 450.124 393.441 440.677 387.326C431.23 381.211 430.68 371.214 429.008 368.431" stroke="#263238" stroke-width="1.25654" stroke-miterlimit="10"/>
<path d="M492.906 431.779C492.906 431.779 494.028 421.782 502.914 419C511.801 416.217 520.137 417.339 521.809 411.224C523.481 405.109 523.469 398.994 527.363 395.662C531.256 392.33 536.249 390.658 536.81 392.296C537.371 393.934 531.2 395.079 531.2 400.633C531.2 406.186 539.536 420.077 527.318 425.631C515.099 431.185 505.091 426.192 500.648 430.119C496.205 434.046 493.422 436.783 493.422 436.783L492.906 431.779Z" fill="#BFBFBF"/>
<path d="M491.795 441.787C491.795 441.787 495.688 427.336 505.136 424.004C514.583 420.671 525.096 427.897 529.584 421.221C534.072 414.545 530.706 407.892 530.134 403.449" stroke="#263238" stroke-width="1.25654" stroke-miterlimit="10"/>
<path d="M498.045 439.566H463.599C463.234 439.564 462.873 439.635 462.535 439.774C462.198 439.912 461.891 440.116 461.632 440.374C461.374 440.631 461.169 440.937 461.029 441.274C460.889 441.611 460.817 441.972 460.817 442.337C460.817 443.075 461.11 443.783 461.632 444.305C462.153 444.827 462.861 445.12 463.599 445.12H463.88L466.561 452.155C466.77 452.7 467.139 453.168 467.62 453.499C468.101 453.829 468.671 454.006 469.254 454.006H492.401C492.984 454.005 493.553 453.827 494.034 453.497C494.514 453.166 494.884 452.699 495.094 452.155L497.775 445.12H498.045C498.783 445.12 499.49 444.827 500.012 444.305C500.534 443.783 500.827 443.075 500.827 442.337C500.827 441.972 500.755 441.611 500.615 441.274C500.475 440.937 500.27 440.631 500.012 440.374C499.753 440.116 499.446 439.912 499.109 439.774C498.771 439.635 498.41 439.564 498.045 439.566Z" fill="#263238"/>
<path d="M509.635 281.33H344.824C341.893 281.33 339.517 283.706 339.517 286.637V307.484C339.517 310.415 341.893 312.791 344.824 312.791H509.635C512.566 312.791 514.942 310.415 514.942 307.484V286.637C514.942 283.706 512.566 281.33 509.635 281.33Z" fill="#3C9FCF"/>
<path d="M352.712 291.361V305.498H351.186V291.361H352.712Z" fill="#263238"/>
<path d="M356.134 305.498H354.72V291.361H356.717L359.982 301.582V291.361H361.385V305.498H359.747L356.134 294.065V305.498Z" fill="#263238"/>
<path d="M365.458 305.498V292.842H362.855V291.406H369.643V292.842H367.04V305.543L365.458 305.498Z" fill="#263238"/>
<path d="M376.162 297.622V299.035H372.706V304.062H376.992V305.498H371.18V291.361H376.992V292.842H372.751V297.666L376.162 297.622Z" fill="#263238"/>
<path d="M381.962 291.361C384.206 291.361 385.115 292.483 385.115 294.592V295.714C385.115 297.274 384.565 298.239 383.354 298.631C384.644 299.013 385.126 300.068 385.126 301.582V303.826C385.079 304.407 385.179 304.989 385.418 305.52H383.814C383.594 304.976 383.506 304.388 383.556 303.804V301.56C383.556 299.967 382.804 299.462 381.491 299.462H380.369V305.498H378.798V291.361H381.962ZM381.558 298.026C382.804 298.026 383.556 297.622 383.556 296.084V294.727C383.556 293.459 383.096 292.797 381.918 292.797H380.358V298.026H381.558Z" fill="#263238"/>
<path d="M388.56 305.498H387.146V291.361H389.143L392.419 301.582V291.361H393.822V305.498H392.195L388.571 294.065L388.56 305.498Z" fill="#263238"/>
<path d="M397.423 302.648L396.885 305.498H395.426L398.13 291.361H400.374L403.078 305.498H401.508L400.958 302.648H397.423ZM397.625 301.302H400.778L399.185 293.134L397.625 301.302Z" fill="#263238"/>
<path d="M404.761 305.498V291.361H406.332V304.062H410.371V305.498H404.761Z" fill="#263238"/>
<path d="M421.625 294.749V295.086H420.133V294.626C420.133 293.358 419.65 292.606 418.517 292.606C417.384 292.606 416.901 293.358 416.901 294.603C416.901 297.779 421.647 298.082 421.647 302.054C421.647 304.197 420.615 305.599 418.45 305.599C416.284 305.599 415.286 304.197 415.286 302.054V301.257H416.755V302.143C416.755 303.411 417.283 304.163 418.416 304.163C419.549 304.163 420.065 303.411 420.065 302.143C420.065 298.991 415.342 298.688 415.342 294.704C415.342 292.528 416.352 291.17 418.472 291.17C420.593 291.17 421.625 292.606 421.625 294.749Z" fill="#263238"/>
<path d="M428.447 297.622V299.035H425.002V304.062H429.243V305.498H423.42V291.361H429.243V292.842H425.002V297.666L428.447 297.622Z" fill="#263238"/>
<path d="M434.214 291.361C436.458 291.361 437.367 292.483 437.367 294.592V295.714C437.367 297.274 436.817 298.239 435.605 298.631C436.895 299.013 437.389 300.068 437.389 301.582V303.826C437.338 304.406 437.435 304.988 437.67 305.52H436.076C435.846 304.979 435.754 304.389 435.807 303.804V301.56C435.807 299.967 435.067 299.462 433.754 299.462H432.632V305.498H431.05V291.361H434.214ZM433.81 298.026C435.067 298.026 435.807 297.622 435.807 296.084V294.727C435.807 293.459 435.347 292.797 434.169 292.797H432.643V298.026H433.81Z" fill="#263238"/>
<path d="M440.609 291.361L442.909 303.703L445.153 291.361H446.601L443.953 305.498H441.63L438.971 291.361H440.609Z" fill="#263238"/>
<path d="M453.288 297.622V299.035H449.832V304.062H454.084V305.498H448.261V291.361H454.084V292.842H449.832V297.666L453.288 297.622Z" fill="#263238"/>
<path d="M459.089 291.361C461.333 291.361 462.241 292.483 462.241 294.592V295.714C462.241 297.274 461.692 298.239 460.48 298.631C461.77 299.013 462.264 300.068 462.264 301.582V303.826C462.213 304.406 462.309 304.988 462.544 305.52H460.951C460.721 304.979 460.628 304.389 460.682 303.804V301.56C460.682 299.967 459.93 299.462 458.617 299.462H457.495V305.498H455.925V291.361H459.089ZM458.685 298.026C459.93 298.026 460.682 297.622 460.682 296.084V294.727C460.682 293.459 460.222 292.797 459.044 292.797H457.507V298.026H458.685Z" fill="#263238"/>
<path d="M472.855 297.622V299.035H469.411V304.062H473.652V305.498H467.874V291.361H473.697V292.842H469.456V297.666L472.855 297.622Z" fill="#263238"/>
<path d="M478.656 291.361C480.9 291.361 481.809 292.483 481.809 294.592V295.714C481.809 297.274 481.259 298.239 480.048 298.631C481.338 299.013 481.832 300.068 481.832 301.582V303.826C481.786 304.405 481.882 304.987 482.112 305.52H480.519C480.288 304.979 480.196 304.389 480.249 303.804V301.56C480.249 299.967 479.509 299.462 478.196 299.462H477.074V305.498H475.503V291.361H478.656ZM478.252 298.026C479.509 298.026 480.249 297.622 480.249 296.084V294.727C480.249 293.459 479.789 292.797 478.611 292.797H477.085V298.026H478.252Z" fill="#263238"/>
<path d="M487.015 291.361C489.259 291.361 490.168 292.483 490.168 294.592V295.714C490.168 297.274 489.618 298.239 488.406 298.631C489.708 299.013 490.19 300.068 490.19 301.582V303.826C490.145 304.405 490.241 304.987 490.471 305.52H488.878C488.653 304.978 488.561 304.389 488.608 303.804V301.56C488.608 299.967 487.868 299.462 486.555 299.462H485.433V305.498H483.851V291.361H487.015ZM486.611 298.026C487.868 298.026 488.608 297.622 488.608 296.084V294.727C488.608 293.459 488.148 292.797 486.981 292.797H485.444V298.026H486.611Z" fill="#263238"/>
<path d="M492.109 294.772C492.109 292.606 493.175 291.215 495.34 291.215C497.506 291.215 498.594 292.606 498.594 294.772V302.087C498.594 304.23 497.472 305.644 495.34 305.644C493.209 305.644 492.109 304.23 492.109 302.087V294.772ZM493.657 302.166C493.657 303.456 494.207 304.208 495.34 304.208C496.474 304.208 497.012 303.456 497.012 302.166V294.693C497.012 293.414 496.485 292.651 495.34 292.651C494.196 292.651 493.657 293.414 493.657 294.693V302.166Z" fill="#263238"/>
<path d="M503.643 291.361C505.887 291.361 506.785 292.483 506.785 294.592V295.714C506.785 297.274 506.246 298.239 505.035 298.631C506.325 299.013 506.807 300.068 506.807 301.582V303.826C506.76 304.407 506.86 304.989 507.099 305.52H505.495C505.275 304.976 505.187 304.388 505.237 303.804V301.56C505.237 299.967 504.485 299.462 503.172 299.462H502.05V305.498H500.479V291.361H503.643ZM503.239 298.026C504.485 298.026 505.237 297.622 505.237 296.084V294.727C505.237 293.459 504.765 292.797 503.598 292.797H502.061V298.026H503.239Z" fill="#263238"/>
<path d="M378.248 247.962V254.526C378.248 259.575 380.492 261.392 384.004 261.392C387.516 261.392 389.76 259.575 389.76 254.526V238.986C389.76 233.937 387.516 232.018 384.004 232.018C380.492 232.018 378.248 233.937 378.248 238.986V241.107H367.747L369.766 200.109H399.05V210.207H379.763L378.854 227.037C379.846 225.375 381.273 224.016 382.982 223.108C384.691 222.2 386.616 221.778 388.548 221.887C396.728 221.887 400.89 227.643 400.89 238.043V253.751C400.89 265.061 395.28 271.524 384.33 271.524C373.379 271.524 367.769 265.061 367.769 253.751V247.962H378.248Z" fill="#263238"/>
<path d="M409.35 217.084C409.35 205.775 415.308 199.312 426.18 199.312C437.053 199.312 443.01 205.775 443.01 217.084V253.841C443.01 265.151 437.053 271.614 426.18 271.614C415.308 271.614 409.35 265.151 409.35 253.841V217.084ZM420.458 254.548C420.458 259.597 422.702 261.516 426.214 261.516C429.726 261.516 431.97 259.597 431.97 254.548V216.4C431.97 211.351 429.726 209.432 426.214 209.432C422.702 209.432 420.458 211.351 420.458 216.4V254.548Z" fill="#263238"/>
<path d="M451.358 217.084C451.358 205.775 457.316 199.312 468.188 199.312C479.06 199.312 485.018 205.775 485.018 217.084V253.841C485.018 265.151 479.06 271.614 468.188 271.614C457.316 271.614 451.358 265.151 451.358 253.841V217.084ZM462.466 254.548C462.466 259.597 464.71 261.516 468.222 261.516C471.734 261.516 473.978 259.597 473.978 254.548V216.4C473.978 211.351 471.734 209.432 468.222 209.432C464.71 209.432 462.466 211.351 462.466 216.4V254.548Z" fill="#263238"/>
<path d="M171.666 379.842C178.671 378.795 185.806 380.57 191.503 384.779C200.67 391.825 207.637 409.743 211.239 434.831C214.841 459.919 216.849 470.735 238.021 474.303C259.193 477.871 309.93 476.424 340.235 475.717C370.541 475.01 369.138 446.814 343.77 443.998C318.401 441.182 300.831 447.947 274.363 442.09C247.895 436.234 297.925 428.481 336.005 434.124C374.086 439.768 390.983 441.17 411.437 439.061" stroke="#263238" stroke-width="2.51308" stroke-linecap="round" stroke-linejoin="round"/>
<path d="M171.666 342.322C171.666 342.322 192.21 342.479 197.842 363.64C203.475 384.801 205.595 414.4 206.302 437.692C207.009 460.985 207.716 480.699 234.498 486.331C261.28 491.963 333.896 489.854 353.632 485.624C373.368 481.394 395.224 462.365 379.012 458.135C362.799 453.905 340.235 458.135 348.718 463.745C357.2 469.355 379.741 467.975 406.523 464.452" stroke="#263238" stroke-width="2.51308" stroke-linecap="round" stroke-linejoin="round"/>
<path d="M175.885 415.914C175.885 415.914 188.44 414.792 193.343 429.008C198.246 443.224 192.221 446.466 194.981 453.557C197.741 460.648 214.93 454.028 214.852 459.908C214.773 465.271 207.974 466.786 168.794 464.474C117.563 461.456 83.6675 469.389 86.394 474.303C89.1204 479.217 130.051 475.425 120.222 483.032C110.394 490.639 86.394 481.91 67.8361 481.394C49.2782 480.878 46.002 485.209 46.002 485.209" stroke="#263238" stroke-width="2.51308" stroke-linecap="round" stroke-linejoin="round"/>
<path d="M177.399 215.48H54.0466C51.8406 215.48 50.0522 217.268 50.0522 219.474V453.165C50.0522 455.371 51.8406 457.159 54.0466 457.159H177.399C179.605 457.159 181.394 455.371 181.394 453.165V219.474C181.394 217.268 179.605 215.48 177.399 215.48Z" fill="#263238" stroke="#263238" stroke-width="1.25654" stroke-linecap="round" stroke-linejoin="round"/>
<path d="M178.196 251.676H53.1938V344.252H178.196V251.676Z" fill="#616161"/>
<path d="M178.196 359.298H53.1938V451.874H178.196V359.298Z" fill="#616161"/>
<path d="M162.69 370.574H91.7236V442.943H162.69V370.574Z" fill="#3C9FCF" stroke="#263238" stroke-width="1.25654" stroke-linecap="round" stroke-linejoin="round"/>
<path d="M162.69 262.021H91.7236V279.883H162.69V262.021Z" fill="#3C9FCF" stroke="#263238" stroke-width="1.25654" stroke-linecap="round" stroke-linejoin="round"/>
<path d="M162.69 296.32H91.7236V314.182H162.69V296.32Z" fill="#3C9FCF" stroke="#263238" stroke-width="1.25654" stroke-linecap="round" stroke-linejoin="round"/>
<path d="M160.311 253.751L158.942 257.51H96.0766L94.7078 253.751H81.3896V270.267H94.7078L96.0766 266.509H158.942L160.311 270.267H175.391V253.751H160.311Z" fill="#263238" stroke="#263238" stroke-width="1.25654" stroke-linecap="round" stroke-linejoin="round"/>
<path d="M160.311 271.771L158.942 275.518H96.0766L94.7078 271.771H81.3896V288.275H94.7078L96.0766 284.528H158.942L160.311 288.275H175.391V271.771H160.311Z" fill="#263238" stroke="#263238" stroke-width="1.25654" stroke-linecap="round" stroke-linejoin="round"/>
<path d="M160.311 289.779L158.942 293.538H96.0766L94.7078 289.779H81.3896V306.295H94.7078L96.0766 302.536H158.942L160.311 306.295H175.391V289.779H160.311Z" fill="#263238" stroke="#263238" stroke-width="1.25654" stroke-linecap="round" stroke-linejoin="round"/>
<path d="M160.311 307.787L158.942 311.546H96.0766L94.7078 307.787H81.3896V324.303H94.7078L96.0766 320.555H158.942L160.311 324.303H175.391V307.787H160.311Z" fill="#263238" stroke="#263238" stroke-width="1.25654" stroke-linecap="round" stroke-linejoin="round"/>
<path d="M160.311 325.806L158.942 329.554H96.0766L94.7078 325.806H81.3896V342.322H94.7078L96.0766 338.564H158.942L160.311 342.322H175.391V325.806H160.311Z" fill="#263238" stroke="#263238" stroke-width="1.25654" stroke-linecap="round" stroke-linejoin="round"/>
<path d="M160.311 361.834L158.942 365.581H96.0766L94.7078 361.834H81.3896V378.338H94.7078L96.0766 374.591H158.942L160.311 378.338H175.391V361.834H160.311Z" fill="#263238" stroke="#263238" stroke-width="1.25654" stroke-linecap="round" stroke-linejoin="round"/>
<path d="M160.311 379.842L158.942 383.601H96.0766L94.7078 379.842H81.3896V396.358H94.7078L96.0766 392.61H158.942L160.311 396.358H175.391V379.842H160.311Z" fill="#263238" stroke="#263238" stroke-width="1.25654" stroke-linecap="round" stroke-linejoin="round"/>
<path d="M160.311 397.861L158.942 401.609H96.0766L94.7078 397.861H81.3896V414.366H94.7078L96.0766 410.618H158.942L160.311 414.366H175.391V397.861H160.311Z" fill="#263238" stroke="#263238" stroke-width="1.25654" stroke-linecap="round" stroke-linejoin="round"/>
<path d="M160.311 415.869L158.942 419.628H96.0766L94.7078 415.869H81.3896V432.385H94.7078L96.0766 428.626H158.942L160.311 432.385H175.391V415.869H160.311Z" fill="#263238" stroke="#263238" stroke-width="1.25654" stroke-linecap="round" stroke-linejoin="round"/>
<path d="M160.311 433.889L158.942 437.636H96.0766L94.7078 433.889H81.3896V450.393H94.7078L96.0766 446.646H158.942L160.311 450.393H175.391V433.889H160.311Z" fill="#263238" stroke="#263238" stroke-width="1.25654" stroke-linecap="round" stroke-linejoin="round"/>
<path d="M175.368 347.136H55.707V358.412H175.368V347.136Z" fill="white"/>
<path d="M65.8052 352.656C65.8052 352.032 65.6202 351.423 65.2738 350.904C64.9274 350.386 64.435 349.982 63.8589 349.743C63.2828 349.504 62.6488 349.442 62.0373 349.564C61.4257 349.685 60.8639 349.986 60.423 350.426C59.982 350.867 59.6817 351.429 59.5601 352.041C59.4384 352.652 59.5009 353.286 59.7395 353.862C59.9781 354.439 60.3822 354.931 60.9007 355.277C61.4192 355.624 62.0288 355.809 62.6523 355.809C63.0664 355.809 63.4763 355.727 63.8589 355.569C64.2414 355.41 64.5889 355.178 64.8817 354.885C65.1745 354.592 65.4067 354.245 65.5652 353.862C65.7236 353.48 65.8052 353.07 65.8052 352.656Z" fill="#263238" stroke="#263238" stroke-width="1.25654" stroke-linecap="round" stroke-linejoin="round"/>
<path d="M73.1543 355.809C74.8955 355.809 76.3071 354.397 76.3071 352.656C76.3071 350.915 74.8955 349.503 73.1543 349.503C71.413 349.503 70.0015 350.915 70.0015 352.656C70.0015 354.397 71.413 355.809 73.1543 355.809Z" fill="#3C9FCF" stroke="#263238" stroke-width="1.25654" stroke-linecap="round" stroke-linejoin="round"/>
<path d="M86.8091 352.656C86.8091 352.032 86.6242 351.423 86.2777 350.904C85.9313 350.386 85.4389 349.982 84.8628 349.743C84.2867 349.504 83.6527 349.442 83.0412 349.564C82.4296 349.685 81.8678 349.986 81.4269 350.426C80.9859 350.867 80.6857 351.429 80.564 352.041C80.4423 352.652 80.5048 353.286 80.7434 353.862C80.982 354.439 81.3861 354.931 81.9046 355.277C82.4231 355.624 83.0327 355.809 83.6562 355.809C84.4924 355.809 85.2943 355.477 85.8856 354.885C86.4769 354.294 86.8091 353.492 86.8091 352.656Z" fill="#263238" stroke="#263238" stroke-width="1.25654" stroke-linecap="round" stroke-linejoin="round"/>
<path d="M175.368 239.053H55.707V250.329H175.368V239.053Z" fill="white"/>
<path d="M65.8052 244.596C65.8052 243.972 65.6202 243.363 65.2738 242.844C64.9274 242.326 64.435 241.922 63.8589 241.683C63.2828 241.445 62.6488 241.382 62.0373 241.504C61.4257 241.625 60.8639 241.926 60.423 242.367C59.982 242.808 59.6817 243.369 59.5601 243.981C59.4384 244.593 59.5009 245.227 59.7395 245.803C59.9781 246.379 60.3822 246.871 60.9007 247.218C61.4192 247.564 62.0288 247.749 62.6523 247.749C63.0664 247.749 63.4763 247.667 63.8589 247.509C64.2414 247.35 64.5889 247.118 64.8817 246.825C65.1745 246.533 65.4067 246.185 65.5652 245.803C65.7236 245.42 65.8052 245.01 65.8052 244.596Z" fill="white" stroke="#263238" stroke-width="1.25654" stroke-linecap="round" stroke-linejoin="round"/>
<path d="M76.2959 244.596C76.2959 243.972 76.111 243.363 75.7645 242.844C75.4181 242.326 74.9257 241.922 74.3496 241.683C73.7735 241.445 73.1396 241.382 72.528 241.504C71.9164 241.625 71.3546 241.926 70.9137 242.367C70.4727 242.808 70.1725 243.369 70.0508 243.981C69.9292 244.593 69.9916 245.227 70.2302 245.803C70.4689 246.379 70.873 246.871 71.3914 247.218C71.9099 247.564 72.5195 247.749 73.1431 247.749C73.9792 247.749 74.7812 247.417 75.3724 246.825C75.9637 246.234 76.2959 245.432 76.2959 244.596Z" fill="#3C9FCF" stroke="#263238" stroke-width="1.25654" stroke-linecap="round" stroke-linejoin="round"/>
<path d="M86.8091 244.596C86.8091 243.972 86.6242 243.363 86.2777 242.844C85.9313 242.326 85.4389 241.922 84.8628 241.683C84.2867 241.445 83.6527 241.382 83.0412 241.504C82.4296 241.625 81.8678 241.926 81.4269 242.367C80.9859 242.808 80.6857 243.369 80.564 243.981C80.4423 244.593 80.5048 245.227 80.7434 245.803C80.982 246.379 81.3861 246.871 81.9046 247.218C82.4231 247.564 83.0327 247.749 83.6562 247.749C84.4924 247.749 85.2943 247.417 85.8856 246.825C86.4769 246.234 86.8091 245.432 86.8091 244.596Z" fill="white" stroke="#263238" stroke-width="1.25654" stroke-linecap="round" stroke-linejoin="round"/>
<path d="M175.368 224.546H55.707V235.822H175.368V224.546Z" fill="white"/>
<path d="M65.8052 230.066C65.8052 229.443 65.6202 228.833 65.2738 228.315C64.9274 227.796 64.435 227.392 63.8589 227.153C63.2828 226.915 62.6488 226.852 62.0373 226.974C61.4257 227.096 60.8639 227.396 60.423 227.837C59.982 228.278 59.6817 228.839 59.5601 229.451C59.4384 230.063 59.5009 230.697 59.7395 231.273C59.9781 231.849 60.3822 232.341 60.9007 232.688C61.4192 233.034 62.0288 233.219 62.6523 233.219C63.0664 233.219 63.4763 233.137 63.8589 232.979C64.2414 232.821 64.5889 232.588 64.8817 232.296C65.1745 232.003 65.4067 231.655 65.5652 231.273C65.7236 230.89 65.8052 230.48 65.8052 230.066Z" fill="#3C9FCF" stroke="#263238" stroke-width="1.25654" stroke-linecap="round" stroke-linejoin="round"/>
<path d="M76.2959 230.066C76.2959 229.443 76.111 228.833 75.7645 228.315C75.4181 227.796 74.9257 227.392 74.3496 227.153C73.7735 226.915 73.1396 226.852 72.528 226.974C71.9164 227.096 71.3546 227.396 70.9137 227.837C70.4727 228.278 70.1725 228.839 70.0508 229.451C69.9292 230.063 69.9916 230.697 70.2302 231.273C70.4689 231.849 70.873 232.341 71.3914 232.688C71.9099 233.034 72.5195 233.219 73.1431 233.219C73.9792 233.219 74.7812 232.887 75.3724 232.296C75.9637 231.704 76.2959 230.902 76.2959 230.066Z" fill="#263238" stroke="#263238" stroke-width="1.25654" stroke-linecap="round" stroke-linejoin="round"/>
<path d="M86.8091 230.066C86.8091 229.443 86.6242 228.833 86.2777 228.315C85.9313 227.796 85.4389 227.392 84.8628 227.153C84.2867 226.915 83.6527 226.852 83.0412 226.974C82.4296 227.096 81.8678 227.396 81.4269 227.837C80.9859 228.278 80.6857 228.839 80.564 229.451C80.4423 230.063 80.5048 230.697 80.7434 231.273C80.982 231.849 81.3861 232.341 81.9046 232.688C82.4231 233.034 83.0327 233.219 83.6562 233.219C84.4924 233.219 85.2943 232.887 85.8856 232.296C86.4769 231.704 86.8091 230.902 86.8091 230.066Z" fill="#263238" stroke="#263238" stroke-width="1.25654" stroke-linecap="round" stroke-linejoin="round"/>
<path d="M75.7462 254.032H56.0103V262.492H75.7462V254.032Z" fill="#263238" stroke="#263238" stroke-width="1.25654" stroke-linecap="round" stroke-linejoin="round"/>
<path d="M75.7462 272.354H56.0103V280.814H75.7462V272.354Z" fill="#263238" stroke="#263238" stroke-width="1.25654" stroke-linecap="round" stroke-linejoin="round"/>
<path d="M75.7462 290.688H56.0103V299.148H75.7462V290.688Z" fill="#3C9FCF" stroke="#263238" stroke-width="1.25654" stroke-linecap="round" stroke-linejoin="round"/>
<path d="M75.7462 309.01H56.0103V317.47H75.7462V309.01Z" fill="#3C9FCF" stroke="#263238" stroke-width="1.25654" stroke-linecap="round" stroke-linejoin="round"/>
<path d="M75.7462 327.344H56.0103V335.803H75.7462V327.344Z" fill="#3C9FCF" stroke="#263238" stroke-width="1.25654" stroke-linecap="round" stroke-linejoin="round"/>
<path d="M75.7462 361.643H56.0103V370.103H75.7462V361.643Z" fill="#3C9FCF" stroke="#263238" stroke-width="1.25654" stroke-linecap="round" stroke-linejoin="round"/>
<path d="M75.7462 379.977H56.0103V388.436H75.7462V379.977Z" fill="#263238" stroke="#263238" stroke-width="1.25654" stroke-linecap="round" stroke-linejoin="round"/>
<path d="M75.7462 398.299H56.0103V406.759H75.7462V398.299Z" fill="#3C9FCF" stroke="#263238" stroke-width="1.25654" stroke-linecap="round" stroke-linejoin="round"/>
<path d="M75.7462 416.632H56.0103V425.092H75.7462V416.632Z" fill="#263238" stroke="#263238" stroke-width="1.25654" stroke-linecap="round" stroke-linejoin="round"/>
<path d="M75.7462 434.955H56.0103V443.414H75.7462V434.955Z" fill="#3C9FCF" stroke="#263238" stroke-width="1.25654" stroke-linecap="round" stroke-linejoin="round"/>
<path d="M241.05 164.216C241.05 164.216 222.133 169.029 216.882 176.221C211.631 183.413 190.347 232.321 190.347 232.321C190.347 232.321 183.447 240.063 190.908 247.524C198.369 254.986 213.292 257.746 218.823 251.115C224.355 244.484 232.355 213.247 233.466 209.657C234.576 206.067 242.857 175.66 243.687 174.011C244.517 172.362 245.314 165.203 241.05 164.216Z" fill="#BDBDBD" stroke="#263238" stroke-width="1.25654" stroke-linecap="round" stroke-linejoin="round"/>
<path d="M241.05 164.216C241.05 164.216 222.133 169.029 216.882 176.221C213.707 180.563 204.664 200.198 198.01 215.02C201.242 214.369 214.706 212.372 230.47 220.316C231.984 215.02 233.106 210.835 233.465 209.657C234.587 206.067 242.857 175.66 243.687 174.011C244.517 172.362 245.314 165.203 241.05 164.216Z" fill="#263238" stroke="#263238" stroke-width="1.25654" stroke-linecap="round" stroke-linejoin="round"/>
<path d="M296.477 100.497C299.731 102.334 302.338 105.132 303.939 108.509C306.183 113.76 306.183 121.771 306.183 121.771C306.183 121.771 341.559 120.649 355.102 120.391C368.644 120.132 377.766 123.431 378.036 130.062C378.305 136.693 375.275 149.686 367.814 154.656C360.353 159.627 337.139 151.616 325.257 148.306C313.375 144.996 309.223 146.062 300.662 144.94C292.102 143.818 289.599 140.519 288.219 135.268C286.839 130.017 289.599 120.065 289.599 112.054C289.599 104.043 288.466 98.8369 296.477 100.497Z" fill="#BDBDBD" stroke="#263238" stroke-width="1.25654" stroke-linecap="round" stroke-linejoin="round"/>
<path d="M348.156 134.483C348.156 134.483 343.186 147.195 334.064 154.107C327.523 159.066 318.693 161.893 314.238 163.083C298.295 158.595 275.787 156.485 262.626 159.403C262.626 159.403 244.248 163.801 241.05 164.205C237.853 164.609 230.257 190.179 228.652 207.761C227.048 225.342 232.254 268.91 232.254 272.107C232.254 275.305 234.251 328.465 237.449 343.253C240.646 358.041 244.248 378.035 244.641 380.818C245.033 383.601 247.838 404.38 247.838 411.191C247.838 418.001 244.596 434.382 244.596 434.382C244.596 434.382 230.212 443.975 224.613 449.563C219.014 455.151 228.731 461.052 235.833 462.354C247.883 464.598 262.2 452.761 262.2 452.761L278.256 446.376C282.508 444.671 283.765 440.105 283.866 436.009L284.606 406.411C287.12 416.883 289.184 427.463 290.8 438.152C291.451 442.528 292.124 447.128 294.76 450.663C296.224 452.692 298.116 454.373 300.303 455.588C301.896 456.329 303.591 456.172 305.195 457.092C308.146 458.797 309.358 462.477 312.219 464.328C318.379 467.973 325.452 469.783 332.605 469.546C332.605 469.546 348.583 470.354 349.435 461.557C350.288 452.761 328.645 438.377 328.645 438.377C328.645 438.377 325.447 380.033 323.035 360.846C320.623 341.66 314.238 310.491 314.238 296.892C314.238 283.294 320.634 219.351 320.634 219.351C320.634 219.351 321.284 217.668 322.283 214.93L323.338 214.347C332.46 209.096 357.884 188.642 366.176 175.649C374.119 163.217 376.992 139.891 377.216 133.069" fill="#BDBDBD"/>
<path d="M348.156 134.483C348.156 134.483 343.186 147.195 334.064 154.107C327.523 159.066 318.693 161.893 314.238 163.083C298.295 158.595 275.787 156.485 262.626 159.403C262.626 159.403 244.248 163.801 241.05 164.205C237.853 164.609 230.257 190.179 228.652 207.761C227.048 225.342 232.254 268.91 232.254 272.107C232.254 275.305 234.251 328.465 237.449 343.253C240.646 358.041 244.248 378.035 244.641 380.818C245.033 383.601 247.838 404.38 247.838 411.191C247.838 418.001 244.596 434.382 244.596 434.382C244.596 434.382 230.212 443.975 224.613 449.563C219.014 455.151 228.731 461.052 235.833 462.354C247.883 464.598 262.2 452.761 262.2 452.761L278.256 446.376C282.508 444.671 283.765 440.105 283.866 436.009L284.606 406.411C287.12 416.883 289.184 427.463 290.8 438.152C291.451 442.528 292.124 447.128 294.76 450.663C296.224 452.692 298.116 454.373 300.303 455.588C301.896 456.329 303.591 456.172 305.195 457.092C308.146 458.797 309.358 462.477 312.219 464.328C318.379 467.973 325.452 469.783 332.605 469.546C332.605 469.546 348.583 470.354 349.435 461.557C350.288 452.761 328.645 438.377 328.645 438.377C328.645 438.377 325.447 380.033 323.035 360.846C320.623 341.66 314.238 310.491 314.238 296.892C314.238 283.294 320.634 219.351 320.634 219.351C320.634 219.351 321.284 217.668 322.283 214.93L323.338 214.347C332.46 209.096 357.884 188.642 366.176 175.649C374.119 163.217 376.992 139.891 377.216 133.069" stroke="#263238" stroke-width="1.25654" stroke-linecap="round" stroke-linejoin="round"/>
<path d="M349.357 461.557C350.154 452.761 328.567 438.377 328.567 438.377C328.567 438.377 328.32 433.889 327.916 426.988C315.395 430.005 302.557 431.512 289.678 431.476C290.059 433.72 290.433 435.964 290.8 438.208C291.451 442.584 292.124 447.184 294.761 450.719C296.224 452.748 298.116 454.429 300.303 455.644C301.897 456.385 303.591 456.228 305.195 457.148C308.146 458.853 309.358 462.533 312.219 464.385C318.379 468.029 325.452 469.839 332.606 469.602C332.606 469.602 348.549 470.354 349.357 461.557Z" fill="#263238" stroke="#263238" stroke-width="1.25654" stroke-linecap="round" stroke-linejoin="round"/>
<path d="M278.256 446.376C282.508 444.671 283.765 440.104 283.866 436.009C283.866 434.461 283.944 432.912 283.978 431.364C271.22 430.932 258.546 429.119 246.178 425.956C245.415 430.624 244.674 434.382 244.674 434.382C244.674 434.382 230.29 443.975 224.692 449.563C219.093 455.15 228.809 461.052 235.912 462.354C247.962 464.598 262.279 452.761 262.279 452.761L278.256 446.376Z" fill="#263238" stroke="#263238" stroke-width="1.25654" stroke-linecap="round" stroke-linejoin="round"/>
<path d="M349.357 461.557C349.357 461.434 349.357 461.299 349.357 461.164C345.826 463.691 341.746 465.344 337.453 465.989C324.819 468.233 313.307 461.782 310.222 458.977C307.136 456.172 305.173 453.916 300.393 450.831C295.613 447.745 291.294 440.149 291.294 440.149L291.114 440.43C291.709 444.076 292.539 447.723 294.727 450.663C296.19 452.692 298.083 454.373 300.27 455.588C301.863 456.329 303.557 456.172 305.161 457.092C308.112 458.797 309.324 462.477 312.185 464.329C318.346 467.973 325.418 469.783 332.572 469.546C332.572 469.546 348.549 470.354 349.357 461.557Z" fill="white" stroke="#263238" stroke-width="1.25654" stroke-linecap="round" stroke-linejoin="round"/>
<path d="M278.256 446.376C281.97 444.884 283.395 441.226 283.776 437.602C280.096 439.846 271.591 444.75 266.194 446.904C259.182 449.709 254.402 458.124 240.658 458.124C230.851 458.124 225.477 454.287 223.199 452.076C221.988 456.811 229.931 461.243 235.9 462.354C247.951 464.598 262.267 452.761 262.267 452.761L278.256 446.376Z" fill="white" stroke="#263238" stroke-width="1.25654" stroke-linecap="round" stroke-linejoin="round"/>
<path d="M330.126 156.71C325.116 159.491 319.779 161.635 314.238 163.094C298.295 158.606 275.787 156.497 262.626 159.414C262.626 159.414 244.248 163.812 241.05 164.216C237.853 164.62 230.257 190.19 228.652 207.772C227.665 218.633 229.269 239.367 230.638 254.413C263.95 266.621 299.473 262.436 316.841 259.115C318.592 239.188 320.578 219.362 320.578 219.362C320.578 219.362 321.228 217.679 322.227 214.942L323.282 214.358C329.486 210.79 343.197 200.21 353.957 189.674C332.359 183.447 329.744 166.415 330.126 156.71Z" fill="#263238" stroke="#263238" stroke-width="1.25654" stroke-linecap="round" stroke-linejoin="round"/>
<path d="M299.159 175.773C299.093 172.417 298.235 169.124 296.656 166.163C295.077 163.201 292.82 160.654 290.071 158.729C279.861 157.742 269.875 157.809 262.627 159.414C262.627 159.414 257.544 160.637 252.259 161.837C248.701 165.61 246.698 170.587 246.649 175.773C246.649 188.238 258.408 198.347 272.904 198.347C287.4 198.347 299.159 188.238 299.159 175.773Z" fill="#616161" stroke="#263238" stroke-width="1.25654" stroke-linecap="round" stroke-linejoin="round"/>
<path d="M291.294 440.149C297.288 442.258 303.643 443.151 309.986 442.775C323.775 442.18 328.566 438.377 328.566 438.377C328.566 438.377 325.369 380.033 322.956 360.846C320.544 341.66 314.16 310.491 314.16 296.892C314.16 288.881 316.404 263.378 318.21 243.788L317.346 243.889C315.05 244.156 312.724 243.925 310.525 243.213C308.326 242.5 306.306 241.323 304.603 239.76C302.9 238.197 301.553 236.286 300.654 234.156C299.755 232.027 299.326 229.729 299.394 227.418L299.776 214.661C289.377 215.339 278.938 215.039 268.595 213.763C250.015 211.665 230.829 205.371 230.829 205.371L228.809 205.988C228.809 206.583 228.686 207.177 228.63 207.761C227.037 225.354 232.231 268.91 232.231 272.107C232.231 275.305 234.229 328.465 237.426 343.253C240.624 358.041 244.226 378.035 244.618 380.818C245.011 383.601 247.816 404.38 247.816 411.191C247.816 418.001 244.742 433.765 244.63 434.349C247.031 435.089 252.057 436.593 261.112 439.162C274.89 443.067 283.787 438.365 283.787 438.365C283.787 433.574 284.584 406.4 284.584 406.4C284.584 406.4 289.655 429.401 291.294 440.149Z" fill="white" stroke="#263238" stroke-width="1.25654" stroke-linecap="round" stroke-linejoin="round"/>
<path d="M245.639 222.212L281.532 228.114V250.24L261.37 270.413L245.146 250.733L245.639 222.212Z" stroke="#263238" stroke-width="1.25654" stroke-linecap="round" stroke-linejoin="round"/>
<path d="M271.524 346.631C268.932 332.045 267.036 317.638 267.036 307.293L252.652 297.7" stroke="#263238" stroke-width="1.25654" stroke-linecap="round" stroke-linejoin="round"/>
<path d="M284.606 406.411C284.606 406.411 278.548 382.995 273.543 357.346" stroke="#263238" stroke-width="1.25654" stroke-linecap="round" stroke-linejoin="round"/>
<path d="M295.299 282.441C295.625 283.736 296.123 284.981 296.78 286.144C301.212 293.998 307.596 294.996 307.596 294.996L308.584 274.34" stroke="#263238" stroke-width="1.25654" stroke-linecap="round" stroke-linejoin="round"/>
<path d="M296.78 270.402C296.016 271.891 295.468 273.482 295.153 275.126" stroke="#263238" stroke-width="1.25654" stroke-linecap="round" stroke-linejoin="round"/>
<path d="M314.407 333.234C314.923 335.96 315.45 338.642 315.966 341.2" stroke="#263238" stroke-width="1.25654" stroke-linecap="round" stroke-linejoin="round"/>
<path d="M307.596 294.996C307.596 294.996 310.132 310.154 313.06 326.042" stroke="#263238" stroke-width="1.25654" stroke-linecap="round" stroke-linejoin="round"/>
<path d="M260.304 150.909L260.08 162.69C260.08 162.69 256.018 165.944 255.21 174.471C254.402 182.998 262.526 190.931 271.659 190.931C280.792 190.931 288.724 183.817 290.149 177.321C291.574 170.824 289.734 161.478 289.734 161.478L289.128 147.262C289.128 147.262 280.152 152.94 271.659 151.324C263.165 149.708 260.697 146.645 260.697 146.645L260.304 150.909Z" fill="#BDBDBD" stroke="#263238" stroke-width="1.25654" stroke-linecap="round" stroke-linejoin="round"/>
<path d="M253.92 120.166C253.92 120.166 253.37 126.898 254.829 128.548C256.287 130.197 258.295 131.465 258.666 130.006C259.036 128.548 259.204 120.896 259.575 119.257C259.945 117.619 254.099 115.566 253.92 120.166Z" fill="#BDBDBD" stroke="#263238" stroke-width="1.25654" stroke-linecap="round" stroke-linejoin="round"/>
<path d="M257.488 120.054C257.488 120.054 255.816 133.518 255.816 140.037C255.816 146.556 253.291 149.013 261.426 153.254C269.56 157.495 276.606 158.034 282.228 156.059C287.849 154.084 290.946 149.327 291.204 145.378C291.462 141.428 291.484 135.28 291.484 135.28C291.484 135.28 299.338 128.256 297.678 122.938C296.017 117.619 292.337 124.34 292.337 124.34C293.884 119.72 294.643 114.873 294.581 110.001C294.3 102.685 288.679 101.844 286.424 101.844C284.169 101.844 270.402 97.614 263.95 101.788C257.499 105.962 257.488 120.054 257.488 120.054Z" fill="#BDBDBD" stroke="#263238" stroke-width="1.25654" stroke-linecap="round" stroke-linejoin="round"/>
<path d="M292.36 124.284C293.907 119.664 294.666 114.817 294.604 109.945C294.323 102.629 288.702 101.788 286.447 101.788H286.301C285.111 103.785 283.642 106.859 283.642 106.859L284.764 107.42C284.764 107.42 283.642 113.614 285.886 114.455C288.13 115.297 287.008 117.26 287.008 120.637C287.008 124.015 288.982 126.539 290.104 126.539C290.991 126.539 292.348 124.295 292.954 123.319C292.584 123.858 292.36 124.284 292.36 124.284Z" fill="#263238" stroke="#263238" stroke-width="1.25654" stroke-linecap="round" stroke-linejoin="round"/>
<path d="M270.144 125.092C270.144 125.092 267.776 127.268 268.865 128.918C269.953 130.567 273.97 131.465 275.069 129.456C275.447 128.781 275.581 127.997 275.448 127.234C275.316 126.472 274.924 125.779 274.34 125.271" stroke="#263238" stroke-width="1.25654" stroke-linecap="round" stroke-linejoin="round"/>
<path d="M267.597 122.904C267.597 124.026 267.148 124.901 266.587 124.901C266.026 124.901 265.589 124.003 265.589 122.904C265.589 121.804 266.037 120.896 266.587 120.896C267.137 120.896 267.597 121.793 267.597 122.904Z" fill="#263238"/>
<path d="M279.714 123.42C279.714 124.542 279.266 125.428 278.716 125.428C278.166 125.428 277.706 124.531 277.706 123.42C277.706 122.309 278.155 121.423 278.716 121.423C279.277 121.423 279.714 122.298 279.714 123.42Z" fill="#263238"/>
<path d="M276.708 117.978C276.708 117.978 280.534 115.42 284.18 119.437" stroke="#263238" stroke-width="1.25654" stroke-linecap="round" stroke-linejoin="round"/>
<path d="M270.896 135.919C270.415 135.677 269.888 135.54 269.351 135.517C268.813 135.494 268.276 135.585 267.777 135.784C267.352 135.961 266.97 136.227 266.656 136.564C266.343 136.9 266.105 137.3 265.959 137.737C265.959 137.737 263.625 139.61 266.082 140.43C268.539 141.249 273.936 141.192 275.294 141.136C275.837 141.061 276.33 140.775 276.665 140.341C277.001 139.907 277.153 139.359 277.089 138.814C277.101 138.593 277.054 138.373 276.954 138.176C276.853 137.979 276.703 137.812 276.517 137.692C275.952 136.768 275.071 136.079 274.038 135.753C273.005 135.428 271.889 135.486 270.896 135.919Z" fill="#666666" stroke="#263238" stroke-width="0.922744" stroke-linecap="round" stroke-linejoin="round"/>
<path d="M265.431 138.444C269.209 137.846 273.072 138.076 276.752 139.117" stroke="#263238" stroke-width="1.07327" stroke-linecap="round" stroke-linejoin="round"/>
<path d="M252.708 104.604L282.8 108.834C282.8 108.834 295.445 105.468 296.578 102.932C297.711 100.397 293.481 87.7516 291.226 84.6549C288.971 81.5582 267.327 86.8989 260.573 88.0209C253.819 89.1429 248.77 90.8147 249.084 94.248C249.398 97.6813 252.708 104.604 252.708 104.604Z" fill="#3C9FCF" stroke="#263238" stroke-width="1.25654" stroke-linecap="round" stroke-linejoin="round"/>
<path d="M252.708 104.604C252.708 104.604 235.553 118.663 235.272 120.054C234.992 121.445 260.293 122.017 268.169 120.334C276.046 118.651 282.755 108.8 282.755 108.8L252.708 104.604Z" fill="white" stroke="#263238" stroke-width="1.25654" stroke-linecap="round" stroke-linejoin="round"/>
<path d="M233.959 291.002L281.083 263.367C282.644 264.535 284.532 265.183 286.482 265.219C288.431 265.254 290.342 264.676 291.944 263.565C293.546 262.454 294.758 260.868 295.408 259.03C296.059 257.192 296.115 255.196 295.568 253.325L285.728 259.081L283.484 255.21L293.335 249.443C291.972 248.047 290.203 247.116 288.28 246.782C286.357 246.448 284.378 246.728 282.623 247.583C280.869 248.437 279.428 249.822 278.505 251.542C277.582 253.261 277.224 255.228 277.482 257.162L230.302 284.797C228.741 283.629 226.852 282.981 224.903 282.946C222.954 282.91 221.043 283.489 219.441 284.599C217.839 285.71 216.627 287.297 215.976 289.134C215.326 290.972 215.27 292.968 215.817 294.839L225.398 289.229L227.642 293.111L218.061 298.721C219.423 300.12 221.191 301.053 223.114 301.389C225.038 301.724 227.018 301.444 228.773 300.589C230.528 299.734 231.968 298.347 232.889 296.626C233.811 294.904 234.165 292.936 233.903 291.002H233.959Z" fill="#3C9FCF" stroke="#263238" stroke-width="1.25654" stroke-linecap="round" stroke-linejoin="round"/>
<path d="M274.093 270.458C274.093 270.458 279.894 274.61 279.894 278.469C279.894 282.329 272.983 286.492 268.293 286.761C263.603 287.03 262.761 281.79 263.591 279.03C264.422 276.27 274.093 270.458 274.093 270.458Z" fill="#BDBDBD" stroke="#263238" stroke-width="1.25654" stroke-linecap="round" stroke-linejoin="round"/>
<path d="M213.292 235.912C213.292 235.912 245.348 253.864 249.768 253.325C254.189 252.787 260.27 248.904 263.591 249.959C266.913 251.014 276.023 265.162 276.853 267.653C277.684 270.144 270.222 278.985 268.562 280.365C266.901 281.745 261.65 287.277 260.551 287.827C259.451 288.376 252.259 294.738 248.669 294.738C245.078 294.738 238.997 291.967 238.436 290.587C237.875 289.207 239.266 287.277 239.266 287.277L222.436 279.535C222.436 279.535 190.37 262.122 184.849 253.28C179.329 244.439 193.141 228.686 193.141 228.686" fill="#BDBDBD"/>
<path d="M213.292 235.912C213.292 235.912 245.348 253.864 249.768 253.325C254.189 252.787 260.27 248.904 263.591 249.959C266.913 251.014 276.023 265.162 276.853 267.653C277.684 270.144 270.222 278.985 268.562 280.365C266.901 281.745 261.65 287.277 260.551 287.827C259.451 288.376 252.259 294.738 248.669 294.738C245.078 294.738 238.997 291.967 238.436 290.587C237.875 289.207 239.266 287.277 239.266 287.277L222.436 279.535C222.436 279.535 190.37 262.122 184.849 253.28C179.329 244.439 193.141 228.686 193.141 228.686" stroke="#263238" stroke-width="1.25654" stroke-linecap="round" stroke-linejoin="round"/>
<path d="M250.329 279.299C251.309 279.43 252.218 279.88 252.916 280.579C253.614 281.279 254.061 282.19 254.189 283.17C254.75 286.761 253.358 293.122 253.358 293.122" stroke="#263238" stroke-width="1.25654" stroke-linecap="round" stroke-linejoin="round"/>
<path d="M256.68 274.048C256.68 274.048 260.551 274.329 260.551 277.919V287.872" stroke="#263238" stroke-width="1.25654" stroke-linecap="round" stroke-linejoin="round"/>
<path d="M260.831 264.108C260.831 264.108 268.012 269.359 268.562 272.399C268.867 275.061 268.867 277.749 268.562 280.41" stroke="#263238" stroke-width="1.25654" stroke-linecap="round" stroke-linejoin="round"/>
<path d="M292.842 245.157C294.458 245.157 298.732 234.453 298.732 230.436C298.732 226.42 300.606 196.99 304.892 183.312C307.966 173.517 310.614 165.955 311.871 162.443C308.606 161.613 305.139 160.872 301.526 160.199C299.383 166.696 292.842 186.97 290.172 199.862C286.963 215.379 287.759 233.847 288.029 235.452C288.298 237.056 291.26 245.157 292.842 245.157Z" fill="white" stroke="#263238" stroke-width="1.25654" stroke-linecap="round" stroke-linejoin="round"/>
<path d="M298.743 212.688L289.557 211.481C288.802 211.382 288.11 211.914 288.011 212.668L287.048 219.999C286.949 220.754 287.481 221.446 288.235 221.545L297.421 222.751C298.176 222.85 298.868 222.319 298.967 221.564L299.93 214.233C300.029 213.479 299.497 212.787 298.743 212.688Z" fill="white" stroke="#263238" stroke-width="1.25465" stroke-linecap="round" stroke-linejoin="round"/>
<path d="M296.326 215.017L291.577 214.386C290.821 214.286 290.127 214.817 290.027 215.573L289.55 219.165C289.45 219.921 289.981 220.615 290.737 220.715L295.486 221.345C296.241 221.446 296.935 220.914 297.036 220.159L297.512 216.566C297.613 215.811 297.081 215.117 296.326 215.017Z" fill="white" stroke="#263238" stroke-width="1.25654" stroke-linecap="round" stroke-linejoin="round"/>
<path d="M232.916 241.14C234.531 241.14 238.806 230.436 238.806 226.42C238.806 222.403 240.68 192.973 244.966 179.296C247.681 170.634 249.533 165.102 250.576 162.219C246.391 163.161 242.419 164.025 241.095 164.193C240.108 164.317 238.716 166.819 237.202 170.724C235.429 176.221 233.264 183.368 231.592 190.336C230.284 196.077 229.328 201.892 228.731 207.75C228.354 213.626 228.327 219.519 228.652 225.399C228.652 225.601 228.675 225.758 228.719 225.87C228.888 227.497 231.311 241.14 232.916 241.14Z" fill="white" stroke="#263238" stroke-width="1.25654" stroke-linecap="round" stroke-linejoin="round"/>
<path d="M239.014 205.003L229.788 204.018C229.03 203.938 228.35 204.486 228.269 205.244L227.483 212.608C227.403 213.366 227.951 214.046 228.709 214.126L237.936 215.111C238.694 215.192 239.374 214.643 239.455 213.885L240.24 206.522C240.321 205.764 239.772 205.084 239.014 205.003Z" fill="white" stroke="#263238" stroke-width="1.25654" stroke-linecap="round" stroke-linejoin="round"/>
<path d="M236.572 206.639L231.808 206.131C231.05 206.05 230.37 206.599 230.289 207.357L229.905 210.96C229.824 211.718 230.373 212.398 231.131 212.479L235.894 212.987C236.652 213.068 237.332 212.519 237.413 211.761L237.798 208.158C237.878 207.4 237.33 206.72 236.572 206.639Z" fill="white" stroke="#263238" stroke-width="1.25654" stroke-linecap="round" stroke-linejoin="round"/>
</svg>
