<svg width="167" height="48" viewBox="0 0 167 48" fill="none" xmlns="http://www.w3.org/2000/svg">
<g clip-path="url(#clip0_306_2004)">
<path d="M19.677 12.5289C21.6307 13.6569 23.2474 15.2798 24.362 17.2315C25.5299 19.2541 26.1318 21.5499 26.1053 23.881V34.3679C26.1053 35.0036 25.8509 35.6132 25.3981 36.0627C24.9453 36.5122 24.3312 36.7647 23.6909 36.7647C23.0505 36.7647 22.4364 36.5122 21.9836 36.0627C21.5308 35.6132 21.2765 35.0036 21.2765 34.3679V32.6374C19.4566 34.817 16.9104 36.2772 14.0993 36.7534C11.2882 37.2296 8.39819 36.6903 5.9532 35.2332C4.09751 34.0986 2.59027 32.4812 1.59504 30.5565C0.521403 28.5024 -0.0235795 26.2166 0.00867718 23.9027C-0.0222687 21.576 0.56551 19.2824 1.71271 17.2532C2.81433 15.2847 4.43554 13.6514 6.40208 12.5289C8.42612 11.3754 10.7232 10.7781 13.057 10.7984C15.3805 10.7718 17.668 11.3697 19.677 12.5289ZM17.3541 31.5212C18.6271 30.7633 19.667 29.6742 20.3612 28.3717C21.1004 26.9901 21.4753 25.4452 21.4508 23.881C21.4731 22.3102 21.0985 20.7588 20.3612 19.3687C19.8258 18.3907 19.0973 17.5299 18.2192 16.8377C17.341 16.1455 16.3313 15.6362 15.2504 15.3402C14.1694 15.0441 13.0395 14.9675 11.928 15.1148C10.8166 15.2621 9.74646 15.6304 8.78164 16.1976C7.50335 16.9653 6.45704 18.0608 5.75272 19.3687C5.00861 20.7564 4.63218 22.3092 4.65882 23.881C4.63659 25.4481 5.02079 26.9946 5.77451 28.3717C6.4832 29.6709 7.52896 30.7583 8.80343 31.5212C10.1043 32.275 11.5835 32.6722 13.0897 32.6722C14.5959 32.6722 16.0751 32.275 17.3759 31.5212H17.3541Z" fill="white"/>
<path d="M36.6521 35.9167C34.9918 35.3933 33.4711 34.5062 32.2025 33.321C32.0058 33.132 31.8499 32.9053 31.7442 32.6547C31.6386 32.4041 31.5854 32.1347 31.588 31.863C31.5818 31.5037 31.6649 31.1484 31.8298 30.8285C31.9947 30.5086 32.2365 30.2339 32.5337 30.0287C33.0014 29.6405 33.5814 29.4102 34.1898 29.3711C34.5316 29.3839 34.8673 29.4653 35.1766 29.6103C35.4859 29.7553 35.7625 29.9609 35.9897 30.2147C36.7497 30.9836 37.6728 31.5748 38.6918 31.9452C39.9101 32.4337 41.213 32.6806 42.5269 32.672C44.3268 32.672 45.7215 32.3778 46.7151 31.7808C47.1625 31.5568 47.5389 31.2144 47.8027 30.7915C48.0665 30.3686 48.2074 29.8815 48.21 29.3841C48.21 28.4106 47.7175 27.606 46.7413 26.9613C45.765 26.3167 44.1046 25.7803 41.7686 25.339C35.7079 24.1853 32.6761 21.7092 32.6731 17.9108C32.6356 16.4891 33.1257 15.1034 34.0503 14.0171C35.0158 12.9184 36.2559 12.0917 37.6458 11.6204C39.1659 11.0816 40.7691 10.8108 42.3831 10.82C44.2698 10.7889 46.1444 11.1254 47.9005 11.8107C49.3999 12.3789 50.7288 13.317 51.7619 14.5363C52.1373 14.9516 52.3547 15.4842 52.3764 16.0418C52.3631 16.3292 52.2836 16.6098 52.1438 16.8619C52.004 17.1139 51.8077 17.3307 51.5701 17.4955C51.186 17.7563 50.7278 17.8882 50.2626 17.8718C49.4325 17.87 48.635 17.5508 48.0356 16.9806C47.3166 16.3017 46.4611 15.7813 45.5253 15.4535C44.4825 15.137 43.3947 14.9909 42.3047 15.0208C41.0715 14.9756 39.8456 15.2264 38.731 15.752C37.7983 16.2365 37.332 16.9186 37.332 17.7983C37.3143 18.3604 37.481 18.9131 37.807 19.3731C38.2933 19.9135 38.914 20.3178 39.607 20.5455C40.8516 21.0095 42.135 21.3642 43.4421 21.6054C46.8851 22.2919 49.3242 23.248 50.7595 24.4737C51.4595 25.0522 52.0176 25.7814 52.3914 26.606C52.7652 27.4306 52.9449 28.3289 52.9168 29.2326C52.9186 30.6136 52.5042 31.9636 51.727 33.109C50.857 34.3464 49.6467 35.3091 48.2405 35.8821C46.4926 36.5977 44.613 36.9411 42.723 36.8901C40.6585 36.9088 38.6058 36.5797 36.6521 35.9167Z" fill="white"/>
<path d="M80.2728 13.0697C80.2534 13.4613 80.1556 13.8451 79.9852 14.1988L65.4944 46.542C65.1137 47.5169 64.4978 48.0029 63.6465 48C63.2539 47.9808 62.8689 47.8853 62.5134 47.7188C61.5633 47.3121 61.0883 46.6978 61.0883 45.8845C61.0926 45.4908 61.1912 45.1037 61.3759 44.7553L66.1089 34.1776L55.4532 14.1037C55.2908 13.8003 55.2098 13.4607 55.2178 13.1173C55.2178 12.7101 55.3509 12.3139 55.597 11.9881C55.8531 11.6407 56.1955 11.365 56.5907 11.1877C56.8898 11.0623 57.2116 10.999 57.5364 11.0017C57.9609 10.996 58.3775 11.1165 58.7325 11.3478C59.0874 11.5791 59.3645 11.9106 59.528 12.2996L68.1964 29.4143L75.8188 12.3472C76.2285 11.4387 76.8444 10.9844 77.6667 10.9844C78.0583 10.9807 78.4462 11.0604 78.8041 11.218C79.7804 11.6117 80.2728 12.2217 80.2728 13.0697Z" fill="white"/>
<path d="M87.028 35.6139C85.9056 34.8353 85.0266 33.7588 84.4915 32.5076C83.8759 31.092 83.5699 29.5629 83.5937 28.0213V2.34917C83.58 2.0319 83.6311 1.71516 83.744 1.41802C83.8568 1.12088 84.0291 0.849485 84.2504 0.620176C84.4717 0.390866 84.7375 0.208384 85.0317 0.0837218C85.3259 -0.0409404 85.6425 -0.105209 85.9624 -0.105209C86.2823 -0.105209 86.5989 -0.0409404 86.8931 0.0837218C87.1873 0.208384 87.4531 0.390866 87.6744 0.620176C87.8957 0.849485 88.0679 1.12088 88.1808 1.41802C88.2936 1.71516 88.3448 2.0319 88.331 2.34917V28.0213C88.2902 29.0175 88.5189 30.0065 88.9935 30.8853C89.1438 31.212 89.3829 31.4907 89.6839 31.6902C89.9849 31.8896 90.3359 32.0019 90.6975 32.0144H91.8829C92.1723 32.0054 92.46 32.0596 92.7259 32.1732C92.9917 32.2869 93.2292 32.4572 93.4214 32.672C93.8266 33.1433 94.0381 33.7488 94.0141 34.3679C94.0163 34.7019 93.935 35.0313 93.7776 35.3265C93.6202 35.6217 93.3914 35.8735 93.1119 36.0595C92.4309 36.5216 91.6175 36.7523 90.7934 36.7171H90.6975C89.3892 36.7321 88.108 36.3469 87.028 35.6139Z" fill="white"/>
<path d="M121.85 11.6117C122.072 11.8406 122.246 12.112 122.36 12.4095C122.474 12.7069 122.525 13.0243 122.512 13.3422V34.3203C122.525 34.6383 122.474 34.9556 122.36 35.2531C122.246 35.5506 122.072 35.822 121.85 36.0508C121.51 36.3973 121.073 36.6344 120.595 36.7311C120.118 36.8277 119.623 36.7796 119.173 36.5929C118.724 36.4063 118.341 36.0897 118.076 35.6844C117.81 35.2791 117.673 34.8038 117.683 34.3203V33.8012C116.658 34.8159 115.433 35.6085 114.083 36.1287C112.667 36.6825 111.156 36.9615 109.634 36.9507C107.586 36.9844 105.564 36.499 103.759 35.5403C102.021 34.5999 100.604 33.1678 99.6883 31.426C98.6583 29.4117 98.1534 27.1731 98.2196 24.915V13.3509C98.2196 12.7152 98.474 12.1056 98.9268 11.6561C99.3796 11.2066 99.9937 10.9541 100.634 10.9541C101.274 10.9541 101.889 11.2066 102.341 11.6561C102.794 12.1056 103.048 12.7152 103.048 13.3509V24.915C103.048 27.456 103.736 29.3768 105.11 30.6776C106.484 31.9784 108.307 32.6273 110.579 32.6244C111.832 32.6412 113.072 32.3686 114.201 31.8284C115.232 31.3458 116.115 30.5992 116.759 29.6653C117.372 28.7637 117.694 27.6985 117.683 26.6109V13.3509C117.67 13.0307 117.725 12.7115 117.843 12.4135C117.962 12.1155 118.142 11.8454 118.372 11.6204C118.851 11.1947 119.472 10.9594 120.115 10.9594C120.758 10.9594 121.379 11.1947 121.858 11.6204L121.85 11.6117Z" fill="white"/>
<path d="M149.349 14.1296C149.402 14.0561 149.45 13.9825 149.506 13.9133C148.771 13.0101 147.849 12.2727 146.804 11.7502C145.457 11.0939 143.973 10.7647 142.472 10.7897C141.209 10.7772 139.956 11.0079 138.781 11.4689C137.859 11.8298 137.006 12.3433 136.258 12.9875C136.219 13.022 136.172 13.0459 136.121 13.0567C136.071 13.0675 136.018 13.0649 135.968 13.0491C135.919 13.0334 135.875 13.005 135.84 12.9668C135.805 12.9287 135.781 12.8821 135.769 12.8317C135.673 12.4018 135.452 12.0093 135.133 11.7026C134.654 11.2947 134.042 11.0727 133.411 11.0774C132.78 11.0822 132.172 11.3135 131.699 11.7285C131.469 11.9535 131.289 12.2236 131.171 12.5216C131.052 12.8196 130.998 13.1389 131.01 13.459V34.3809C131.016 34.8579 131.163 35.3228 131.431 35.7183C131.7 36.1138 132.08 36.4225 132.523 36.6065C132.966 36.7905 133.454 36.8416 133.927 36.7537C134.399 36.6657 134.835 36.4424 135.181 36.1114C135.403 35.8817 135.575 35.6101 135.689 35.3128C135.803 35.0156 135.855 34.6987 135.844 34.3809V21.1079C135.783 19.5155 136.352 17.9626 137.43 16.7816C137.951 16.225 138.586 15.786 139.293 15.4941C140 15.2023 140.762 15.0645 141.527 15.09C142.238 15.057 142.949 15.1719 143.613 15.4274C144.277 15.683 144.88 16.0735 145.384 16.5739C145.965 17.1156 146.352 17.8312 146.486 18.6116C146.502 18.6712 146.536 18.724 146.585 18.7617C146.634 18.7994 146.694 18.8198 146.756 18.8198C146.818 18.8198 146.878 18.7994 146.927 18.7617C146.976 18.724 147.011 18.6712 147.027 18.6116C147.462 16.8811 148.26 15.5832 149.332 14.1469L149.349 14.1296Z" fill="white"/>
<path fill-rule="evenodd" clip-rule="evenodd" d="M153.533 11.7545C155.02 11.0828 156.638 10.7459 158.271 10.7681C160.599 10.7681 164.297 12.7293 165.616 15.5954C166.793 17.3201 166.967 20.6319 166.992 21.4237C167.148 26.4249 165.357 35.6701 151.559 41.4457C151.292 41.5597 151.005 41.6186 150.714 41.6188C150.211 41.6192 149.723 41.4465 149.333 41.1303C148.943 40.814 148.676 40.3735 148.576 39.8836C148.477 39.3938 148.551 38.8849 148.786 38.4433C149.022 38.0017 149.404 37.6547 149.868 37.4612C156.122 34.8438 160.136 31.2314 161.801 26.7234C162.842 23.9272 162.918 20.8673 162.019 18.0233C161.862 17.8262 161.743 17.6051 161.663 17.3705C161.656 17.3606 161.65 17.3504 161.644 17.3397C160.602 15.4491 158.894 15.0598 157.334 15.0598C156.576 15.0383 155.823 15.1781 155.125 15.4699C154.426 15.7617 153.799 16.1986 153.285 16.7513C152.207 17.9324 151.638 19.4852 151.699 21.0776L151.755 22.7259C151.768 23.0438 151.716 23.361 151.602 23.6584C151.488 23.9558 151.315 24.2273 151.093 24.4564C150.866 24.6845 150.594 24.8632 150.294 24.9809C149.994 25.0986 149.672 25.1528 149.35 25.14C149.027 25.1506 148.706 25.0955 148.406 24.9779C148.107 24.8603 147.834 24.6828 147.606 24.4564C147.469 24.2833 147.356 24.0927 147.271 23.8897C146.661 21.5232 147.872 17.2921 149.842 14.6012L149.886 14.5622V14.5406C149.895 14.5357 149.902 14.5282 149.907 14.519H149.929H149.955C149.981 14.5103 149.981 14.48 149.981 14.48C150.939 13.3124 152.154 12.3797 153.533 11.7545Z" fill="#A9E4C7"/>
</g>
<defs>
<clipPath id="clip0_306_2004">
<rect width="167" height="48" fill="white"/>
</clipPath>
</defs>
</svg>
