<svg width="165" height="48" viewBox="0 0 165 48" fill="none" xmlns="http://www.w3.org/2000/svg">
<g clip-path="url(#clip0_229_376)">
<path d="M19.4415 12.5289C21.3717 13.6569 22.9691 15.2798 24.0704 17.2315C25.2243 19.2541 25.8189 21.5499 25.7927 23.881V34.3679C25.7927 35.0036 25.5414 35.6132 25.094 36.0627C24.6467 36.5122 24.0399 36.7647 23.4072 36.7647C22.7746 36.7647 22.1678 36.5122 21.7204 36.0627C21.2731 35.6132 21.0217 35.0036 21.0217 34.3679V32.6374C19.2237 34.817 16.708 36.2772 13.9305 36.7534C11.1531 37.2296 8.2977 36.6903 5.88199 35.2332C4.04852 34.0986 2.55934 32.4812 1.57603 30.5565C0.515246 28.5024 -0.0232094 26.2166 0.00866098 23.9027C-0.0219143 21.576 0.558825 19.2824 1.69229 17.2532C2.78071 15.2847 4.3825 13.6514 6.3255 12.5289C8.3253 11.3754 10.5949 10.7781 12.9007 10.7984C15.1964 10.7718 17.4565 11.3697 19.4415 12.5289ZM17.1464 31.5212C18.4041 30.7633 19.4316 29.6742 20.1175 28.3717C20.8478 26.9901 21.2182 25.4452 21.194 23.881C21.216 22.3102 20.8459 20.7588 20.1175 19.3687C19.5885 18.3907 18.8687 17.5299 18.001 16.8377C17.1334 16.1455 16.1358 15.6362 15.0678 15.3402C13.9998 15.0441 12.8834 14.9675 11.7853 15.1148C10.6871 15.2621 9.62982 15.6304 8.67655 16.1976C7.41357 16.9653 6.3798 18.0608 5.68391 19.3687C4.94871 20.7564 4.57679 22.3092 4.60312 23.881C4.58115 25.4481 4.96075 26.9946 5.70544 28.3717C6.40564 29.6709 7.43888 30.7583 8.69808 31.5212C9.98334 32.275 11.4448 32.6722 12.933 32.6722C14.4212 32.6722 15.8826 32.275 17.1679 31.5212H17.1464Z" fill="black"/>
<path d="M36.2131 35.9167C34.5726 35.3933 33.0701 34.5062 31.8167 33.321C31.6224 33.132 31.4683 32.9053 31.364 32.6547C31.2596 32.4041 31.207 32.1347 31.2095 31.863C31.2035 31.5037 31.2855 31.1484 31.4485 30.8285C31.6114 30.5086 31.8503 30.2339 32.1439 30.0287C32.6061 29.6406 33.1791 29.4102 33.7802 29.3711C34.1179 29.3839 34.4496 29.4653 34.7552 29.6103C35.0608 29.7553 35.3341 29.9609 35.5586 30.2147C36.3095 30.9836 37.2215 31.5748 38.2283 31.9452C39.432 32.4337 40.7193 32.6806 42.0175 32.672C43.7959 32.672 45.1738 32.3778 46.1555 31.7808C46.5976 31.5568 46.9695 31.2144 47.2301 30.7915C47.4907 30.3686 47.63 29.8815 47.6325 29.3841C47.6325 28.4107 47.1459 27.606 46.1814 26.9613C45.2168 26.3167 43.5763 25.7803 41.2683 25.339C35.2801 24.1853 32.2846 21.7092 32.2817 17.9108C32.2446 16.4891 32.7289 15.1034 33.6424 14.0171C34.5963 12.9184 35.8216 12.0917 37.1948 11.6204C38.6967 11.0816 40.2807 10.8108 41.8754 10.82C43.7395 10.7889 45.5916 11.1254 47.3267 11.8107C48.8082 12.3789 50.1212 13.317 51.1418 14.5363C51.5128 14.9516 51.7275 15.4842 51.749 16.0418C51.7359 16.3292 51.6573 16.6098 51.5192 16.8619C51.381 17.1139 51.1871 17.3307 50.9524 17.4955C50.5728 17.7563 50.1201 17.8882 49.6606 17.8718C48.8404 17.87 48.0524 17.5508 47.4602 16.9806C46.7498 16.3017 45.9046 15.7813 44.98 15.4535C43.9496 15.137 42.8749 14.9909 41.7979 15.0208C40.5795 14.9756 39.3683 15.2264 38.267 15.752C37.3455 16.2365 36.8848 16.9186 36.8848 17.7983C36.8673 18.3604 37.032 18.9131 37.3541 19.3731C37.8346 19.9135 38.4478 20.3178 39.1325 20.5455C40.3623 21.0095 41.6302 21.3642 42.9218 21.6054C46.3235 22.2919 48.7334 23.248 50.1515 24.4737C50.8431 25.0522 51.3945 25.7814 51.7639 26.606C52.1332 27.4306 52.3107 28.3289 52.2829 29.2326C52.2847 30.6136 51.8753 31.9636 51.1074 33.109C50.2478 34.3464 49.052 35.3091 47.6626 35.8821C45.9357 36.5977 44.0786 36.9411 42.2113 36.8901C40.1715 36.9089 38.1433 36.5797 36.2131 35.9167Z" fill="black"/>
<path d="M79.3114 13.0697C79.2922 13.4613 79.1956 13.8451 79.0272 14.1988L64.7099 46.542C64.3338 47.5169 63.7253 48.0029 62.8842 48C62.4963 47.9808 62.1159 47.8853 61.7646 47.7188C60.8259 47.3121 60.3566 46.6978 60.3566 45.8845C60.3609 45.4908 60.4583 45.1037 60.6408 44.7553L65.317 34.1776L54.789 14.1037C54.6286 13.8003 54.5485 13.4607 54.5564 13.1173C54.5564 12.7101 54.6879 12.3139 54.9311 11.9881C55.1842 11.6407 55.5224 11.365 55.9128 11.1877C56.2084 11.0623 56.5264 10.999 56.8472 11.0017C57.2667 10.996 57.6783 11.1165 58.029 11.3478C58.3797 11.5791 58.6535 11.9106 58.815 12.2996L67.3796 29.4143L74.9107 12.3472C75.3155 11.4387 75.924 10.9844 76.7364 10.9844C77.1234 10.9807 77.5066 11.0604 77.8603 11.218C78.8248 11.6117 79.3114 12.2217 79.3114 13.0697Z" fill="black"/>
<path d="M85.9856 35.6139C84.8766 34.8353 84.0082 33.7588 83.4795 32.5076C82.8713 31.092 82.569 29.5629 82.5925 28.0213V2.34915C82.5789 2.03188 82.6294 1.71514 82.7409 1.418C82.8524 1.12086 83.0226 0.84947 83.2413 0.62016C83.4599 0.390851 83.7225 0.208369 84.0132 0.0837066C84.3039 -0.0409556 84.6167 -0.105225 84.9328 -0.105225C85.2488 -0.105225 85.5616 -0.0409556 85.8523 0.0837066C86.143 0.208369 86.4056 0.390851 86.6243 0.62016C86.8429 0.84947 87.0131 1.12086 87.1246 1.418C87.2361 1.71514 87.2866 2.03188 87.2731 2.34915V28.0213C87.2327 29.0175 87.4587 30.0065 87.9276 30.8852C88.0761 31.212 88.3123 31.4907 88.6097 31.6902C88.9071 31.8896 89.2539 32.0019 89.6112 32.0144H90.7824C91.0683 32.0054 91.3526 32.0596 91.6153 32.1732C91.8779 32.2869 92.1125 32.4571 92.3024 32.672C92.7028 33.1433 92.9118 33.7488 92.888 34.3679C92.8902 34.7019 92.8099 35.0313 92.6544 35.3265C92.4988 35.6217 92.2729 35.8735 91.9967 36.0595C91.3239 36.5216 90.5202 36.7523 89.7059 36.7171H89.6112C88.3186 36.7321 87.0527 36.3469 85.9856 35.6139Z" fill="black"/>
<path d="M120.39 11.6117C120.61 11.8406 120.782 12.112 120.894 12.4095C121.007 12.7069 121.058 13.0243 121.045 13.3422V34.3203C121.058 34.6383 121.007 34.9556 120.894 35.2531C120.782 35.5506 120.61 35.822 120.39 36.0508C120.054 36.3973 119.623 36.6344 119.151 36.7311C118.68 36.8277 118.19 36.7796 117.746 36.5929C117.302 36.4063 116.924 36.0897 116.661 35.6844C116.399 35.2791 116.264 34.8038 116.274 34.3203V33.8012C115.261 34.8159 114.05 35.6085 112.717 36.1287C111.317 36.6825 109.825 36.9615 108.321 36.9507C106.298 36.9844 104.3 36.499 102.516 35.5403C100.799 34.5999 99.3993 33.1678 98.4944 31.426C97.4767 29.4117 96.9778 27.1731 97.0433 24.915V13.3509C97.0433 12.7152 97.2946 12.1056 97.742 11.6561C98.1894 11.2066 98.7961 10.9541 99.4288 10.9541C100.061 10.9541 100.668 11.2066 101.116 11.6561C101.563 12.1056 101.814 12.7152 101.814 13.3509V24.915C101.814 27.456 102.493 29.3768 103.851 30.6776C105.209 31.9784 107.01 32.6273 109.255 32.6244C110.493 32.6412 111.718 32.3686 112.833 31.8284C113.852 31.3458 114.725 30.5992 115.361 29.6653C115.966 28.7637 116.285 27.6985 116.274 26.6109V13.3509C116.261 13.0307 116.315 12.7115 116.432 12.4135C116.549 12.1155 116.727 11.8454 116.954 11.6204C117.428 11.1947 118.041 10.9594 118.676 10.9594C119.312 10.9594 119.925 11.1947 120.399 11.6204L120.39 11.6117Z" fill="black"/>
<path d="M147.561 14.1296C147.612 14.0561 147.66 13.9825 147.716 13.9133C146.989 13.0101 146.079 12.2727 145.046 11.7502C143.715 11.0939 142.248 10.7647 140.766 10.7897C139.518 10.7772 138.279 11.0079 137.119 11.4689C136.208 11.8298 135.365 12.3433 134.626 12.9875C134.588 13.022 134.541 13.0459 134.491 13.0567C134.441 13.0675 134.389 13.0649 134.34 13.0491C134.291 13.0334 134.247 13.005 134.213 12.9668C134.178 12.9287 134.154 12.8821 134.143 12.8317C134.048 12.4018 133.829 12.0093 133.515 11.7026C133.041 11.2947 132.437 11.0727 131.813 11.0774C131.19 11.0822 130.589 11.3135 130.122 11.7285C129.895 11.9535 129.717 12.2236 129.6 12.5216C129.482 12.8196 129.429 13.1389 129.441 13.459V34.3809C129.447 34.8579 129.592 35.3228 129.857 35.7183C130.123 36.1138 130.498 36.4225 130.936 36.6065C131.374 36.7905 131.856 36.8416 132.323 36.7537C132.789 36.6657 133.22 36.4424 133.562 36.1114C133.781 35.8817 133.952 35.6101 134.064 35.3128C134.176 35.0156 134.228 34.6987 134.217 34.3809V21.1079C134.157 19.5155 134.719 17.9626 135.784 16.7816C136.299 16.225 136.927 15.786 137.625 15.4941C138.323 15.2023 139.076 15.0645 139.832 15.09C140.535 15.057 141.237 15.1719 141.893 15.4274C142.549 15.683 143.145 16.0735 143.642 16.5739C144.217 17.1156 144.599 17.8312 144.732 18.6116C144.747 18.6712 144.781 18.724 144.83 18.7617C144.878 18.7994 144.938 18.8198 144.999 18.8198C145.06 18.8198 145.119 18.7994 145.168 18.7617C145.216 18.724 145.25 18.6712 145.266 18.6116C145.696 16.8811 146.484 15.5832 147.544 14.1469L147.561 14.1296Z" fill="black"/>
<path d="M156.375 10.7681C154.762 10.7459 153.163 11.0828 151.695 11.7545C150.332 12.3797 149.131 13.3124 148.185 14.48C148.185 14.48 148.185 14.5103 148.159 14.519H148.133H148.112C148.107 14.5282 148.1 14.5357 148.09 14.5406C148.09 14.5406 148.09 14.5406 148.09 14.5622L148.047 14.6012C146.101 17.2921 144.904 21.5232 145.507 23.8897C145.592 24.0927 145.703 24.2833 145.838 24.4564C146.064 24.6828 146.333 24.8603 146.629 24.9779C146.925 25.0955 147.242 25.1506 147.561 25.14C147.879 25.1528 148.197 25.0986 148.494 24.9809C148.79 24.8632 149.059 24.6845 149.283 24.4564C149.503 24.2273 149.674 23.9558 149.787 23.6584C149.899 23.361 149.95 23.0438 149.938 22.7259L149.882 21.0776C149.822 19.4852 150.384 17.9324 151.449 16.7513C151.957 16.1986 152.577 15.7617 153.267 15.4699C153.957 15.1781 154.701 15.0383 155.449 15.0598C156.991 15.0598 158.679 15.4491 159.708 17.3397C159.737 17.3938 159.782 17.4379 159.837 17.4664C159.891 17.4949 159.953 17.5065 160.014 17.4998L163.777 16.9763C163.941 16.9503 164.07 17.0888 164.044 16.92C163.437 13.3509 159.015 10.7681 156.375 10.7681Z" fill="#376BA3"/>
<path d="M148.909 41.6187C148.411 41.6192 147.929 41.4465 147.544 41.1302C147.159 40.8139 146.895 40.3735 146.796 39.8836C146.698 39.3938 146.771 38.8849 147.004 38.4433C147.237 38.0017 147.615 37.6547 148.073 37.4612C154.252 34.8438 158.218 31.2314 159.863 26.7234C160.891 23.9272 160.967 20.8673 160.078 18.0232C159.77 17.6314 159.607 17.1446 159.616 16.6455C159.624 16.1464 159.804 15.6656 160.126 15.2847C160.411 14.9508 160.79 14.7109 161.213 14.596C161.636 14.481 162.084 14.4964 162.498 14.6401C164.694 15.4102 164.961 20.4243 164.991 21.4237C165.146 26.4249 163.377 35.6701 149.744 41.4457C149.48 41.5597 149.196 41.6186 148.909 41.6187Z" fill="#376BA3"/>
</g>
<defs>
<clipPath id="clip0_229_376">
<rect width="165" height="48" fill="white"/>
</clipPath>
</defs>
</svg>
