<svg width="38" height="39" viewBox="0 0 38 39" fill="none" xmlns="http://www.w3.org/2000/svg">
<rect y="0.0200195" width="38" height="38" rx="1" fill="white"/>
<g clip-path="url(#clip0_1109_38)">
<path fill-rule="evenodd" clip-rule="evenodd" d="M27.68 20.2018C27.68 19.6345 27.6291 19.0891 27.5346 18.5654H20V21.66H24.3054C24.12 22.66 23.5564 23.5073 22.7091 24.0746V26.0818H25.2946C26.8073 24.689 27.68 22.6382 27.68 20.2018Z" fill="#4285F4"/>
<path fill-rule="evenodd" clip-rule="evenodd" d="M19.9999 28.02C22.1599 28.02 23.9709 27.3037 25.2945 26.0819L22.709 24.0746C21.9926 24.5546 21.0763 24.8383 19.9999 24.8383C17.9163 24.8383 16.1526 23.431 15.5236 21.54H12.8508V23.6127C14.1672 26.2273 16.8726 28.02 19.9999 28.02Z" fill="#34A853"/>
<path fill-rule="evenodd" clip-rule="evenodd" d="M15.5236 21.54C15.3636 21.06 15.2727 20.5472 15.2727 20.02C15.2727 19.4927 15.3636 18.98 15.5236 18.5V16.4272H12.8509C12.3091 17.5072 12 18.7291 12 20.02C12 21.3109 12.3091 22.5327 12.8509 23.6127L15.5236 21.54Z" fill="#FBBC05"/>
<path fill-rule="evenodd" clip-rule="evenodd" d="M19.9999 15.2018C21.1745 15.2018 22.229 15.6055 23.0581 16.3982L25.3526 14.1037C23.9672 12.8127 22.1563 12.02 19.9999 12.02C16.8726 12.02 14.1672 13.8127 12.8508 16.4273L15.5236 18.5C16.1526 16.6091 17.9163 15.2018 19.9999 15.2018Z" fill="#EA4335"/>
</g>
<defs>
<clipPath id="clip0_1109_38">
<rect width="16" height="16" fill="white" transform="translate(12 12.02)"/>
</clipPath>
</defs>
</svg>
