<svg width="777" height="784" viewBox="0 0 777 784" fill="none" xmlns="http://www.w3.org/2000/svg">
<path fill-rule="evenodd" clip-rule="evenodd" d="M0 681.647C20.2676 677.981 43.3065 669.872 69.2245 656.223C196.933 588.968 268.069 614.188 287.674 635.205C342.286 682.844 476.716 729.362 577.539 534.323C654.496 385.45 618.67 374.506 580.061 362.711C555.443 355.191 529.693 347.324 531.328 303.135C535.529 189.642 539.73 -121.412 413.702 50.9288C370.292 122.387 240.623 236.72 69.2245 122.387C44.6853 106.018 21.5788 95.0527 0 88.5884V681.647Z" fill="#A9E4C7"/>
<path d="M151.978 730.099H753.322" stroke="#263238" stroke-linecap="round" stroke-linejoin="round"/>
<path d="M204.077 594.914C200.573 587.552 199.784 579.188 201.848 571.301C205.27 557.848 206.514 560.103 202.95 552.353C199.386 544.603 196.301 543.022 198.427 536.373C200.552 529.725 204.207 519.331 202.885 513.045C201.563 506.76 198.686 504.168 199.982 497.364C201.278 490.56 205.282 487.281 203.325 479.855C201.369 472.429 197.947 472.779 199.243 465.962C200.539 459.145 202.354 458.626 201.835 452.47C201.317 446.314 202.742 443.398 202.742 443.398C202.742 443.398 205.088 453.028 206.63 458.354C208.173 463.681 208.393 466.752 207.654 470.64C206.915 474.528 215.728 481.267 215.987 484.339C216.247 487.41 218.126 490.819 215.197 497.299C212.268 503.779 211.529 507.667 213.214 512.034C214.899 516.402 216.726 515.728 215.054 524.489C213.382 533.25 208.315 533.276 212.073 540.041C215.832 546.806 218.087 548.245 216.35 553.001C214.614 557.757 211.866 563.239 212.929 566.466C213.547 568.07 214.302 569.618 215.184 571.093C217.34 574.916 218.061 579.383 217.219 583.69L216.713 586.347L218.359 599.761L210.363 606.306C210.363 606.306 206.656 603.48 204.077 594.914Z" fill="#3C9FCF"/>
<path d="M194.85 596.08C192.535 593.507 190.757 590.497 189.62 587.228C188.483 583.959 188.009 580.496 188.227 577.042C189.057 565.456 190.715 567.114 185.752 561.321C180.788 555.528 177.47 554.712 178.3 548.919C179.129 543.125 180.788 534.028 178.3 529.064C175.811 524.1 172.507 522.441 172.507 516.648C172.507 510.855 175.824 507.576 172.507 501.757C169.189 495.938 165.884 496.794 165.884 491C165.884 485.207 167.543 480.244 165.884 475.28C164.225 470.316 165.314 471.392 165.314 471.392C165.314 471.392 169.202 479.466 171.677 483.6C174.153 487.734 174.995 490.223 174.995 493.528C174.995 496.832 184.922 500.98 185.752 503.455C186.581 505.93 189.057 508.432 187.398 514.212C185.739 519.992 185.752 523.284 188.227 526.627C190.702 529.971 192.361 529.116 192.361 536.555C192.361 543.994 187.398 544.823 192.361 549.8C197.325 554.777 199.813 555.58 198.984 559.727C198.154 563.874 196.509 568.799 198.154 571.301C198.779 572.168 199.472 572.982 200.228 573.737C203.669 577.283 205.598 582.028 205.606 586.969L209.741 597.726L203.118 604.349C203.118 604.349 198.984 602.69 194.85 596.08Z" fill="#3C9FCF"/>
<path d="M242.011 596.08C244.322 593.505 246.097 590.495 247.232 587.226C248.366 583.957 248.839 580.495 248.621 577.042C247.804 565.456 246.145 567.114 251.109 561.321C256.073 555.528 259.378 554.712 258.561 548.919C257.745 543.126 256.073 534.028 258.561 529.064C261.049 524.1 264.341 522.441 264.341 516.648C264.341 510.855 261.036 507.576 264.341 501.757C267.646 495.938 270.964 496.794 270.964 491C270.964 485.207 269.305 480.244 270.964 475.28C272.623 470.316 270.64 473.154 270.64 473.154C270.64 473.154 267.659 479.414 265.171 483.522C262.682 487.631 261.866 490.145 261.866 493.45C261.866 496.755 251.939 500.902 251.109 503.377C250.28 505.853 247.804 508.354 249.45 514.134C251.096 519.914 251.109 523.206 248.621 526.55C246.132 529.893 244.487 529.038 244.487 536.477C244.487 543.916 249.45 544.746 244.487 549.722C239.523 554.699 237.047 555.502 237.877 559.65C238.706 563.797 240.352 568.722 238.693 571.223C238.087 572.08 237.406 572.882 236.659 573.62C233.186 577.211 231.248 582.013 231.254 587.008L227.12 597.765L233.73 604.387C233.73 604.387 237.864 602.69 242.011 596.08Z" fill="#3C9FCF"/>
<path d="M227.418 598.154C228.922 595.802 229.942 593.174 230.418 590.424C230.894 587.673 230.817 584.855 230.192 582.135C228.014 573.063 226.913 574.553 230.101 569.292C233.289 564.03 235.816 562.928 234.391 558.431C232.965 553.934 230.503 546.897 231.799 542.62C233.095 538.343 235.544 536.581 234.779 531.967C234.015 527.353 230.891 525.163 232.822 520.109C234.753 515.054 237.436 515.287 236.71 510.687C235.985 506.086 233.976 502.34 234.65 498.167C235.324 493.994 233.859 495.083 233.859 495.083C233.188 498.619 232.274 502.105 231.125 505.516C229.686 509.131 229.362 511.218 229.829 513.849C230.295 516.48 222.908 521.093 222.571 523.167C222.234 525.241 220.588 527.561 222.675 531.954C224.761 536.347 225.189 538.978 223.647 541.946C222.105 544.914 220.679 544.46 221.651 550.396C222.623 556.332 226.692 556.332 223.401 560.933C220.109 565.533 218.217 566.531 219.435 569.706C220.653 572.882 222.61 576.627 221.612 578.778C220.139 581.234 218.452 583.554 216.571 585.712L217.659 592.296L215.78 601.368L221.923 605.761C221.923 605.761 224.995 603.973 227.418 598.154Z" fill="#3C9FCF"/>
<path d="M251.692 591.414L249.748 639.937H244.357V677.352H189.756V639.937H184.715L182.771 591.414H251.692Z" fill="#263238" stroke="#263238" stroke-miterlimit="10"/>
<path d="M183.121 600.292L183.406 607.316H251.057L251.329 600.292H183.121Z" fill="white" stroke="#263238" stroke-miterlimit="10"/>
<path d="M250.539 620.095L250.72 615.624H183.743L183.924 620.095H250.539Z" fill="white" stroke="#263238" stroke-miterlimit="10"/>
<path d="M184.715 639.924H182.304V730.112H189.756V677.352" stroke="#263238" stroke-miterlimit="10"/>
<path d="M249.748 639.924H251.796V730.112H244.357V677.352" stroke="#263238" stroke-miterlimit="10"/>
<path d="M306.474 545.536C306.474 545.536 291.803 461.944 291.803 443.152C291.803 424.36 311.114 394.552 355.904 382.888C400.693 371.224 457.847 379 474.838 387.424C491.828 395.848 501.859 413.992 505.721 443.8C509.583 473.608 517.307 593.488 517.307 593.488L313.434 596.728L306.474 545.536Z" fill="#666666" stroke="#263238" stroke-linecap="round" stroke-linejoin="round"/>
<path d="M549.202 706.642C544.847 711.384 539.654 715.281 533.883 718.137C524.811 722.44 520.47 727.209 520.923 730.579C521.377 733.949 526.678 734.467 535.762 734.895C544.847 735.322 576.936 733.936 582.211 733.936C587.486 733.936 591.776 732.497 591.776 728.181C591.776 723.866 590.817 712.863 590.817 712.863L549.202 706.642Z" fill="white" stroke="#263238" stroke-linecap="round" stroke-linejoin="round"/>
<path d="M568.344 730.099C551.418 730.099 528.673 729.127 521.131 728.803C520.939 729.379 520.877 729.99 520.949 730.592C521.429 733.949 526.703 734.48 535.788 734.908C544.873 735.335 576.962 733.949 582.237 733.949C586.98 733.949 590.946 732.769 591.672 729.374C586.592 729.724 578.842 730.099 568.344 730.099Z" fill="white" stroke="#263238" stroke-linecap="round" stroke-linejoin="round"/>
<path d="M594.679 496.482C594.679 496.482 576.962 569.253 576.962 574.994C576.962 580.735 593.72 607.07 594.199 627.651C594.679 648.231 587.019 688.459 588.458 692.762C589.896 697.064 592.346 699.942 591.802 703.778C591.257 707.614 589.896 717.658 589.896 717.658C589.896 717.658 583.183 718.137 569.303 715.26C561.404 713.698 553.696 711.291 546.312 708.08C546.312 708.08 545.353 698.023 545.353 696.118C545.353 694.213 547.271 689.405 547.75 685.582C548.23 681.759 546.312 644.408 542.489 624.786C538.665 605.165 531.473 579.776 531.473 566.376C531.473 552.975 530.993 505.58 530.993 505.58C540.251 499.204 550.017 493.6 560.192 488.823C577.429 480.684 589.404 485 589.404 485L594.679 496.482Z" fill="#3C9FCF" stroke="#263238" stroke-linecap="round" stroke-linejoin="round"/>
<path d="M566.581 486.27C564.405 487.002 562.275 487.868 560.205 488.862C551.482 492.993 543.044 497.699 534.946 502.95L538.082 509.702C538.082 509.702 571.973 520.588 588.704 518.489L589.417 518.385C592.372 505.995 594.679 496.521 594.679 496.521L591.413 489.419C590.061 488.566 588.582 487.932 587.032 487.54C585.192 487.281 575.913 486.75 566.581 486.27Z" fill="#263238" stroke="#263238" stroke-linecap="round" stroke-linejoin="round"/>
<path d="M601.859 706.642C597.486 711.387 592.275 715.284 586.488 718.137C577.416 722.44 573.087 727.209 573.528 730.579C573.969 733.949 579.269 734.467 588.367 734.895C597.465 735.322 629.541 733.936 634.803 733.936C640.065 733.936 644.38 732.497 644.38 728.181C644.38 723.866 643.421 712.863 643.421 712.863L601.859 706.642Z" fill="white" stroke="#263238" stroke-linecap="round" stroke-linejoin="round"/>
<path d="M621 730.099C604.075 730.099 581.33 729.127 573.787 728.803C573.596 729.379 573.534 729.99 573.606 730.592C574.085 733.949 579.347 734.48 588.445 734.908C597.543 735.335 629.619 733.949 634.881 733.949C639.637 733.949 643.59 732.769 644.328 729.374C639.248 729.724 631.498 730.099 621 730.099Z" fill="white" stroke="#263238" stroke-linecap="round" stroke-linejoin="round"/>
<path d="M647.4 496.482C647.4 496.482 629.684 569.253 629.684 574.994C629.684 580.735 646.441 607.07 646.921 627.651C647.4 648.231 639.741 688.459 641.166 692.762C642.592 697.064 645.054 699.942 644.523 703.778C643.992 707.614 642.605 717.658 642.605 717.658C642.605 717.658 635.905 718.137 622.024 715.26C614.13 713.698 606.426 711.29 599.046 708.08C599.046 708.08 598.087 698.023 598.087 696.118C598.087 694.213 600.005 689.405 600.485 685.582C600.964 681.759 599.046 644.408 595.21 624.786C591.374 605.165 584.207 579.776 584.207 566.376C584.207 552.975 583.728 505.58 583.728 505.58C592.983 499.201 602.749 493.596 612.926 488.823C630.163 480.684 642.125 485 642.125 485L647.4 496.482Z" fill="#3C9FCF" stroke="#263238" stroke-linecap="round" stroke-linejoin="round"/>
<path d="M631.498 483.911C625.023 484.305 618.69 485.974 612.861 488.823C602.684 493.596 592.918 499.201 583.663 505.58C583.663 505.58 583.663 511.049 583.792 518.787C586.838 519.422 595.249 520.666 611.293 519.707C628.997 518.644 640.077 515.197 643.071 514.16L644.004 510.272L644.341 493.748C644.341 493.748 636.384 487.216 631.498 483.911Z" fill="#263238" stroke="#263238" stroke-linecap="round" stroke-linejoin="round"/>
<path d="M544.316 346.561C544.316 346.561 532.652 350.125 529.736 352.069C526.82 354.013 522.284 369.241 520.988 372.805C519.692 376.369 512.888 394.837 512.888 394.837L523.904 397.105C523.904 397.105 523.58 408.121 525.2 412.657C526.82 417.193 538.484 430.801 538.484 430.801L542.696 442.141L538.16 504.997C538.16 504.997 554.684 513.745 582.548 516.337C610.412 518.929 629.528 516.337 631.796 515.041C633.14 514.27 634.549 513.619 636.008 513.097L637.952 504.025L640.868 512.449C644.508 512.11 648.096 511.348 651.56 510.181C655.448 508.561 661.28 505.321 661.28 505.321C661.28 505.321 649.292 459.961 644.108 447.649C638.924 435.337 630.176 416.221 630.176 416.221C630.176 416.221 626.288 371.833 618.512 356.929C610.736 342.025 596.156 338.137 585.788 337.165C575.42 336.193 544.316 346.561 544.316 346.561Z" fill="#3C9FCF" stroke="#263238" stroke-linecap="round" stroke-linejoin="round"/>
<path d="M541.128 348.155C538.949 355.558 537.742 363.212 537.538 370.926L541.128 348.155Z" fill="white"/>
<path d="M541.128 348.155C538.949 355.558 537.742 363.212 537.538 370.926" stroke="#263238" stroke-width="2" stroke-linecap="round" stroke-linejoin="round"/>
<path d="M539.106 419.824C538.966 419.821 538.826 419.799 538.691 419.759C537.997 419.504 537.325 419.192 536.683 418.826C536.1 419.215 535.62 419.5 535.387 419.643C535.094 419.775 534.763 419.794 534.458 419.696C534.152 419.598 533.894 419.39 533.733 419.113C533.571 418.836 533.519 418.508 533.585 418.194C533.651 417.88 533.831 417.602 534.091 417.413L534.454 417.193C533.248 416.161 532.35 414.815 531.862 413.305C530.566 409.171 529.736 374.309 532.004 370.68C532.614 369.697 533.519 368.931 534.589 368.494C535.66 368.056 536.842 367.968 537.966 368.243C539.262 368.593 542.489 370.058 542.787 376.097C543.163 383.549 543.616 408.86 543.176 411.918C542.916 413.694 540.972 415.625 539.067 417.102C539.209 417.171 539.357 417.227 539.508 417.271C539.67 417.325 539.82 417.411 539.948 417.523C540.077 417.635 540.182 417.771 540.258 417.924C540.334 418.077 540.379 418.244 540.39 418.414C540.402 418.584 540.379 418.755 540.324 418.917C540.243 419.177 540.081 419.405 539.862 419.568C539.643 419.731 539.379 419.82 539.106 419.824ZM536.67 370.576C536.176 370.583 535.692 370.714 535.262 370.956C534.832 371.198 534.469 371.544 534.207 371.963C532.574 374.775 533.171 408.536 534.35 412.476C534.779 413.733 535.584 414.828 536.657 415.612C538.73 414.083 540.48 412.424 540.623 411.465C541.011 408.756 540.623 384.132 540.208 376.136C540.052 373.09 539.016 371.094 537.331 370.667C537.116 370.605 536.893 370.574 536.67 370.576Z" fill="white" stroke="#263238" stroke-linecap="round" stroke-linejoin="round"/>
<path d="M534.415 417.154L536.683 418.787C535.754 419.561 534.697 420.166 533.559 420.576C532.354 420.822 531.395 419.824 534.415 417.154Z" fill="#263238" stroke="#263238" stroke-linecap="round" stroke-linejoin="round"/>
<path d="M539.08 417.089L536.683 418.787C536.683 418.787 539.119 422.027 541.776 420.822C544.433 419.617 539.08 417.089 539.08 417.089Z" fill="#263238" stroke="#263238" stroke-linecap="round" stroke-linejoin="round"/>
<path d="M573.528 336.958C573.528 336.958 568.344 362.943 568.344 383.316" stroke="#263238" stroke-width="2" stroke-linecap="round" stroke-linejoin="round"/>
<path d="M574.28 388.111C574.28 393.191 571.325 397.312 567.683 397.312C564.041 397.312 561.086 393.191 561.086 388.111C561.086 383.031 564.041 378.922 567.683 378.922C571.325 378.922 574.28 383.044 574.28 388.111Z" fill="white" stroke="#263238" stroke-linecap="round" stroke-linejoin="round"/>
<path d="M569.485 386.919C569.485 390.146 567.605 392.764 565.285 392.764C562.966 392.764 561.086 390.172 561.086 386.919C561.086 383.666 562.966 381.074 565.285 381.074C567.605 381.074 569.485 383.692 569.485 386.919Z" fill="white" stroke="#263238" stroke-linecap="round" stroke-linejoin="round"/>
<path d="M633.52 371.185L623.696 380.905L618.188 370.861L633.52 371.185Z" fill="#263238" stroke="#263238" stroke-linecap="round" stroke-linejoin="round"/>
<path d="M590.752 379.389L594.64 413.513C594.64 413.513 538.484 424.321 532.432 423.881C525.211 423.105 517.915 424.301 511.32 427.341C502.676 431.229 498.36 433.393 498.788 435.545C499.215 437.696 503.103 444.617 503.103 444.617C503.103 444.617 510.452 445.057 510.879 443.761C511.164 442.775 511.312 441.755 511.32 440.729C511.32 440.729 519.096 441.169 522.543 439.433C524.757 438.291 526.795 436.837 528.596 435.117C528.596 435.117 573.956 438.577 591.231 439.005C608.507 439.433 628.388 438.137 630.552 435.117C632.716 432.097 622.776 370.317 622.776 370.317L590.752 379.389Z" fill="white" stroke="#263238" stroke-linecap="round" stroke-linejoin="round"/>
<path d="M594.64 413.512C594.64 413.512 612.084 407.266 621.856 411.05" stroke="#263238" stroke-linecap="round" stroke-linejoin="round"/>
<path d="M532.432 423.88L533.443 435.376L538.575 436.179L537.486 423.207L532.432 423.88Z" fill="white" stroke="#263238" stroke-linecap="round" stroke-linejoin="round"/>
<path d="M539.378 422.973C539.443 424.166 537.693 425.241 535.49 425.371C533.287 425.5 531.382 424.645 531.304 423.453C531.226 422.261 532.989 421.185 535.192 421.055C537.395 420.926 539.301 421.781 539.378 422.973Z" fill="white" stroke="#263238" stroke-linecap="round" stroke-linejoin="round"/>
<path d="M511.268 440.728L506.68 439.432" stroke="#263238" stroke-linecap="round" stroke-linejoin="round"/>
<path d="M587.292 359.949L589.456 384.573L633.52 371.185C633.52 371.185 618.888 345.693 610.62 339.213C602.351 332.733 585.568 338.344 583.404 340.081" fill="#3C9FCF"/>
<path d="M587.292 359.949L589.456 384.573L633.52 371.185C633.52 371.185 618.888 345.693 610.62 339.213C602.351 332.733 585.568 338.344 583.404 340.081" stroke="#263238" stroke-linecap="round" stroke-linejoin="round"/>
<path d="M503.168 278.197C503.168 278.197 487.292 293.101 493.772 300.229C500.252 307.357 509.324 311.893 510.62 319.993C511.916 328.093 514.508 332.953 510.944 340.081C507.38 347.209 504.788 348.829 504.788 348.829C504.788 348.829 520.016 356.605 529.736 355.957C539.456 355.309 553.388 344.293 553.388 344.293C553.388 344.293 576.068 343.969 586.112 335.221C596.156 326.473 595.832 311.569 591.62 301.201C587.408 290.833 572.828 278.56 565.752 270.784C558.676 263.008 544.692 257.824 530.112 259.444C515.532 261.064 503.168 278.197 503.168 278.197Z" fill="#263238" stroke="#263238" stroke-linecap="round" stroke-linejoin="round"/>
<path d="M539.832 347.533C539.832 347.533 542.748 354.985 544.692 361.789C546.636 368.593 551.82 385.765 551.82 384.793C551.82 383.821 562.188 357.901 564.78 350.449C566.326 346.056 567.306 341.483 567.696 336.841L558.948 316.429C556.204 322.568 552.235 328.08 547.284 332.629C539.508 339.433 537.564 342.673 537.564 342.673L539.832 347.533Z" fill="white" stroke="#263238" stroke-linecap="round" stroke-linejoin="round"/>
<path d="M541.283 350.462C541.283 350.462 554.671 346.691 560.529 341.675C566.387 336.66 566.802 335.39 566.802 335.39L559.687 322.002L541.283 350.462Z" fill="#263238" stroke="#263238" stroke-linecap="round" stroke-linejoin="round"/>
<path d="M505.112 304.117C505.112 304.117 510.944 318.697 511.916 322.909C512.888 327.121 516.452 335.221 521.96 340.081C527.468 344.941 531.032 351.421 539.78 350.125C548.528 348.829 559.22 333.277 561.164 328.417C563.108 323.557 558.572 310.273 558.572 308.653C558.546 308.16 558.38 307.685 558.093 307.283C557.806 306.881 557.41 306.57 556.952 306.385C556.952 306.385 541.4 312.541 530.708 308.005C523.566 304.81 516.823 300.786 510.62 296.017L505.112 304.117Z" fill="white" stroke="#263238" stroke-linecap="round" stroke-linejoin="round"/>
<path d="M549.5 311.893C549.5 311.893 553.712 300.877 559.868 302.173C566.024 303.469 565.376 314.161 562.136 318.049C558.896 321.937 556.304 319.993 556.304 319.993" fill="white"/>
<path d="M549.5 311.893C549.5 311.893 553.712 300.877 559.868 302.173C566.024 303.469 565.376 314.161 562.136 318.049C558.896 321.937 556.304 319.993 556.304 319.993" stroke="#263238" stroke-linecap="round" stroke-linejoin="round"/>
<path d="M522.984 314.848C523.398 316.874 523.615 318.936 523.632 321.004C523.632 324.244 522.012 329.428 524.928 330.724C527.844 332.02 532.056 330.724 533.028 329.104" stroke="#263238" stroke-linecap="round" stroke-linejoin="round"/>
<path d="M528.44 335.584C528.44 335.584 537.188 337.528 542.048 327.484" stroke="#263238" stroke-linecap="round" stroke-linejoin="round"/>
<path d="M532.328 317.077C533.947 317.69 535.726 317.735 537.374 317.205C539.022 316.675 540.441 315.602 541.4 314.161" stroke="#263238" stroke-linecap="round" stroke-linejoin="round"/>
<path d="M514.832 319.345C514.832 319.345 519.044 321.289 521.636 318.373" stroke="#263238" stroke-linecap="round" stroke-linejoin="round"/>
<path d="M521.312 313.189C521.312 313.189 517.1 310.273 513.536 313.837" stroke="#263238" stroke-linecap="round" stroke-linejoin="round"/>
<path d="M527.144 309.949C527.144 309.949 529.088 306.709 535.244 307.357" stroke="#263238" stroke-linecap="round" stroke-linejoin="round"/>
<path d="M465.623 394.656C465.623 394.656 477.287 397.248 481.175 412.372C485.063 427.496 504.036 488.512 504.036 488.512C504.036 488.512 524.111 499.982 530.164 500.85C536.216 501.718 541.387 502.146 541.828 508.626C542.268 515.106 540.532 525.474 537.071 527.198C533.611 528.921 520.651 528.934 511.151 528.494C501.652 528.053 495.599 525.902 490.415 522.454C485.231 519.007 479.62 484.87 473.567 468.45C467.515 452.03 455.255 418.023 456.551 409.391C457.847 400.76 461.307 394.656 465.623 394.656Z" fill="#3C9FCF" stroke="#263238" stroke-linecap="round" stroke-linejoin="round"/>
<path d="M511.32 536.464L502.987 535.842C499.637 535.588 496.271 536.034 493.103 537.152C489.935 538.271 487.035 540.036 484.587 542.337C482.139 544.637 480.197 547.422 478.884 550.514C477.572 553.607 476.917 556.939 476.963 560.298L478.518 728.609C478.528 729.895 479.046 731.124 479.959 732.03C480.872 732.935 482.105 733.443 483.391 733.443H559.622L579.191 535.816L511.32 536.464Z" fill="#333333" stroke="#263238" stroke-linecap="round" stroke-linejoin="round"/>
<path d="M559.596 733.456C558.31 733.456 557.077 732.948 556.164 732.043C555.251 731.137 554.733 729.908 554.723 728.622L553.168 560.31C553.122 556.951 553.776 553.62 555.089 550.527C556.402 547.435 558.344 544.65 560.792 542.35C563.24 540.049 566.14 538.284 569.308 537.165C572.476 536.047 575.842 535.601 579.191 535.855L587.525 536.477C590.811 536.725 594.012 537.642 596.932 539.17C599.851 540.698 602.429 542.806 604.506 545.364C606.583 547.923 608.116 550.879 609.011 554.05C609.906 557.222 610.145 560.543 609.712 563.81L587.784 729.179C587.633 730.351 587.06 731.427 586.173 732.207C585.285 732.987 584.144 733.417 582.963 733.417L559.596 733.456Z" fill="#666666" stroke="#263238" stroke-linecap="round" stroke-linejoin="round"/>
<path d="M383.171 574.048H529.619C533.744 574.048 537.7 575.687 540.616 578.603C543.533 581.52 545.171 585.475 545.171 589.6V733.456H383.171V574.048Z" fill="#666666" stroke="#263238" stroke-linecap="round" stroke-linejoin="round"/>
<path d="M545.819 629.089H392.891" stroke="#263238" stroke-linecap="round" stroke-linejoin="round"/>
<path d="M483.184 512.008L490.092 519.357C504.944 520.065 519.57 523.276 533.352 528.856C554.943 537.928 582.6 548.737 584.324 561.256C586.047 573.776 563.16 644.2 559.272 661.489C555.384 678.778 554.943 684.817 554.943 684.817C554.943 684.817 558.831 688.264 557.976 691.297C557.121 694.33 552.351 709 552.351 709C545.534 710.577 538.599 711.591 531.615 712.033C524.521 712.158 517.431 711.576 510.452 710.296C510.452 710.296 509.156 695.613 510.452 692.152C511.748 688.692 516.504 684.817 516.932 682.225C517.359 679.633 519.096 638.589 519.096 622.609C519.096 606.629 528.168 581.137 528.168 581.137C528.168 581.137 485.4 579.4 472.868 578.104C460.335 576.808 430.1 547.869 429.231 533.613C428.363 519.357 462.448 503.805 483.184 512.008Z" fill="#263238" stroke="#263238" stroke-linecap="round" stroke-linejoin="round"/>
<path d="M552.792 703.817C552.792 703.817 548.904 696.481 544.148 699.929C539.391 703.376 538.536 708.145 535.944 708.145C533.352 708.145 510.452 703.817 510.452 703.817C510.452 703.817 504.399 727.585 506.564 730.177C508.728 732.769 528.596 734.921 537.24 736.217C545.884 737.513 564.884 742.269 577.416 742.269C589.948 742.269 587.784 733.197 584.751 730.177C581.719 727.158 560.127 715.481 557.108 711.593C555.282 709.235 553.826 706.613 552.792 703.817Z" fill="white" stroke="#263238" stroke-linecap="round" stroke-linejoin="round"/>
<path d="M586.98 736.735C581.829 737.824 576.578 738.376 571.312 738.381C560.075 738.381 551.003 734.065 536.747 731.473C525.537 729.425 511.644 726.056 506.24 724.708C505.942 727.417 505.955 729.503 506.512 730.177C508.676 732.769 528.544 734.92 537.188 736.216C545.832 737.512 564.832 742.269 577.364 742.269C584.103 742.269 586.592 739.638 586.98 736.735Z" fill="white" stroke="#263238" stroke-linecap="round" stroke-linejoin="round"/>
<path d="M394.188 391.053C394.188 391.053 368.268 400.993 358.768 407.473C349.268 413.953 355.308 438.577 355.308 452.393C355.308 466.208 352.716 503.377 352.288 510.713C351.86 518.048 361.36 528.001 367.84 531.889C374.32 535.777 429.62 537.929 444.304 537.929C458.988 537.929 490.532 528.429 487.94 500.345C485.348 472.26 476.276 450.669 474.98 445.913C473.684 441.156 473.244 425.617 473.684 421.289C474.125 416.96 477.572 404.013 471.092 397.961C464.612 391.908 437.396 385.001 424.864 385.441C412.332 385.882 394.188 391.053 394.188 391.053Z" fill="#3C9FCF" stroke="#263238" stroke-linecap="round" stroke-linejoin="round"/>
<path d="M397.583 419.526C398.213 421.295 399.128 422.95 400.292 424.425C403.932 428.962 407.826 433.289 411.956 437.385C421.378 446.82 436.204 453.105 436.204 453.105C436.204 453.105 441.142 427.069 442.036 415.392C442.93 403.715 436.644 394.293 426.315 390.768C415.986 387.243 397.142 391.208 394.447 398.401C392.477 403.754 395.821 414.562 397.583 419.526Z" fill="white" stroke="#263238" stroke-linecap="round" stroke-linejoin="round"/>
<path d="M398.996 383.056C398.094 383.098 397.211 383.328 396.404 383.73C394.462 384.714 392.962 386.394 392.205 388.435C389.95 393.826 388.161 399.671 388.161 399.671C389.455 406.382 391.258 412.985 393.552 419.422C395.81 425.537 397.489 431.851 398.568 438.279C398.568 438.279 414.729 426.148 417.865 423.466C420.823 421.23 423.982 419.274 427.3 417.621C427.3 417.621 438.07 423.012 443.008 426.148C447.946 429.285 451.989 431.993 451.989 431.993C451.427 423.104 449.612 414.339 446.598 405.957C441.66 392.478 439.418 388.435 436.722 385.752C434.027 383.069 413.368 375.423 398.996 383.056Z" fill="white" stroke="#263238" stroke-linecap="round" stroke-linejoin="round"/>
<path d="M436.152 318.736C436.152 318.736 439.34 314.654 441.18 317.881C442.2 319.707 443.436 321.404 444.861 322.935C444.861 322.935 448.529 324.775 448.995 327.989C449.312 329.965 449.463 331.963 449.449 333.964C449.449 335.338 453.583 336.258 453.583 338.565C453.583 340.872 451.289 341.779 450.836 344.073C450.382 346.367 452.352 348.401 450.369 351.421C448.386 354.441 450.55 353.339 448.386 354.454C446.222 355.568 443.941 356.942 443.941 356.942L433.365 321.95L436.152 318.736Z" fill="#C7C7C7" stroke="#7D7D7D" stroke-linecap="round" stroke-linejoin="round"/>
<path d="M401.419 302.899C401.419 302.899 389.185 306.476 384.079 316.675C378.972 326.875 378.467 334.534 381.02 343.205C383.573 351.875 393.254 376.356 396.326 383.497C399.397 390.638 400.408 403.909 406.525 412.009C412.642 420.109 427.443 427.315 427.443 427.315C427.443 427.315 438.653 412.009 440.701 404.363C442.748 396.716 438.653 381.411 438.653 381.411C438.653 381.411 449.876 367.634 448.347 354.376C446.818 341.118 438.653 323.816 436.152 318.736C433.651 313.656 424.371 297.806 401.419 302.899Z" fill="white" stroke="#263238" stroke-linecap="round" stroke-linejoin="round"/>
<path d="M410.232 323.337C410.232 323.337 419.213 318.853 425.045 320.201" stroke="#263238" stroke-linecap="round" stroke-linejoin="round"/>
<path d="M406.629 321.548C406.629 321.548 414.716 317.505 420.548 317.505" stroke="#263238" stroke-linecap="round" stroke-linejoin="round"/>
<path d="M438.653 381.462C438.653 381.462 431.771 385.752 425.486 385.752C419.2 385.752 407.523 380.814 403.933 377.212C403.933 377.212 414.574 389.394 425.875 392.44C437.176 395.485 440.221 390.703 440.221 390.703L438.653 381.462Z" fill="#263238" stroke="#263238" stroke-linecap="round" stroke-linejoin="round"/>
<path d="M383.69 355.024C384.036 354.82 384.369 354.595 384.688 354.35C386.256 353.197 389.081 350.682 388.744 347.676C388.291 343.542 388.744 341.196 386.45 338.021C384.156 334.845 380.476 327.912 380.476 327.912C377.755 327.691 375.033 328.335 372.7 329.752C369.486 332.046 370.393 333.886 369.486 337.1C368.579 340.314 366.259 338.021 364.885 342.621C363.511 347.222 365.339 349.97 367.179 350.89C369.019 351.81 367.645 354.57 367.645 358.666C367.715 360.15 368.306 361.562 369.313 362.655C370.32 363.747 371.68 364.45 373.153 364.64C374.54 364.64 374.994 366.481 376.834 368.321C378.674 370.161 384.61 368.101 384.61 368.101C384.61 368.101 387.396 366.481 387.85 364.64C388.304 362.8 383.69 355.024 383.69 355.024Z" fill="#C7C7C7" stroke="#7D7D7D" stroke-linecap="round" stroke-linejoin="round"/>
<path d="M387.656 354.428C387.656 354.428 381.526 346.263 377.443 350.851C373.361 355.439 380.502 366.662 384.584 368.191C388.667 369.721 393.773 365.599 393.773 365.599" fill="white"/>
<path d="M387.656 354.428C387.656 354.428 381.526 346.263 377.443 350.851C373.361 355.439 380.502 366.662 384.584 368.191C388.667 369.721 393.773 365.599 393.773 365.599" stroke="#263238" stroke-linecap="round" stroke-linejoin="round"/>
<path d="M424.89 329.933C424.89 329.933 424.371 334.534 425.395 336.064C426.419 337.593 432.536 340.146 431.512 344.734C430.488 349.322 424.371 353.404 421.313 349.322" stroke="#263238" stroke-linecap="round" stroke-linejoin="round"/>
<path d="M417.23 357.486C420.201 358.29 423.345 358.185 426.256 357.185C429.166 356.185 431.711 354.335 433.56 351.875" stroke="#263238" stroke-linecap="round" stroke-linejoin="round"/>
<path d="M401.938 336.387C401.793 336.385 401.649 336.363 401.51 336.323C401.337 336.273 401.176 336.189 401.037 336.074C400.899 335.959 400.786 335.817 400.705 335.656C400.625 335.495 400.579 335.319 400.57 335.139C400.561 334.96 400.59 334.78 400.655 334.612C402.936 327.769 411.606 326.603 411.969 326.564C412.323 326.519 412.68 326.617 412.962 326.836C413.244 327.054 413.427 327.376 413.472 327.73C413.517 328.084 413.419 328.442 413.2 328.723C412.981 329.005 412.66 329.189 412.306 329.234C412.228 329.234 404.957 330.232 403.234 335.467C403.15 335.743 402.978 335.983 402.743 336.149C402.509 336.316 402.225 336.4 401.938 336.387Z" fill="#C7C7C7" stroke="#7D7D7D" stroke-linecap="round" stroke-linejoin="round"/>
<path d="M435.089 327.899C434.913 327.901 434.739 327.868 434.576 327.802C434.414 327.735 434.266 327.636 434.143 327.51C433.152 326.545 431.892 325.904 430.528 325.673C429.165 325.442 427.763 325.63 426.51 326.214C426.19 326.374 425.82 326.4 425.481 326.287C425.142 326.174 424.862 325.931 424.702 325.611C424.542 325.292 424.516 324.922 424.629 324.582C424.742 324.243 424.985 323.963 425.304 323.803C427.06 322.961 429.032 322.681 430.953 323.001C432.873 323.321 434.648 324.226 436.035 325.592C436.167 325.713 436.272 325.86 436.344 326.024C436.416 326.188 436.453 326.365 436.453 326.544C436.453 326.723 436.416 326.9 436.344 327.064C436.272 327.228 436.167 327.376 436.035 327.497C435.913 327.625 435.767 327.727 435.604 327.796C435.441 327.865 435.266 327.9 435.089 327.899Z" fill="#C7C7C7" stroke="#7D7D7D" stroke-linecap="round" stroke-linejoin="round"/>
<path d="M416.219 342.181C415.917 344.063 415.214 345.857 414.156 347.443C413.098 349.029 411.711 350.368 410.089 351.369" stroke="#263238" stroke-linecap="round" stroke-linejoin="round"/>
<path d="M432.031 339.628C434.756 341.543 437.904 342.77 441.206 343.205" stroke="#263238" stroke-linecap="round" stroke-linejoin="round"/>
<path d="M412.824 340.522C413.278 342.142 412.902 343.658 411.982 343.917C411.061 344.176 409.973 343.062 409.519 341.442C409.066 339.822 409.441 338.293 410.362 338.046C411.282 337.8 412.383 338.902 412.824 340.522Z" fill="#263238"/>
<path d="M433.158 334.755C433.599 336.375 433.223 337.891 432.316 338.15C431.409 338.409 430.294 337.295 429.853 335.662C429.413 334.029 429.776 332.526 430.683 332.266C431.59 332.007 432.705 333.122 433.158 334.755Z" fill="#263238"/>
<path d="M413.044 336.686L406.512 341.04" stroke="#263238" stroke-linecap="round" stroke-linejoin="round"/>
<path d="M428.583 332.966L435.737 332.655" stroke="#263238" stroke-linecap="round" stroke-linejoin="round"/>
<path d="M566.581 516.272C566.581 516.272 576.172 520.575 577.934 521.819C579.697 523.063 584.544 530.632 584.946 532.991C585.348 535.35 584.868 536.322 583.391 535.466C581.913 534.611 577.727 529.595 574.487 526.174C571.247 522.752 567.113 520.601 566.102 518.566C565.091 516.532 564.974 515.884 566.581 516.272Z" fill="white" stroke="#263238" stroke-linecap="round" stroke-linejoin="round"/>
<path d="M537.849 506.008C537.849 506.008 553.647 511.192 559.194 512.838C563.345 514.124 567.163 516.305 570.379 519.227C571.96 520.718 580.682 530.606 581.628 533.483C582.574 536.36 583.883 544.059 582.263 544.771C580.643 545.484 578.984 543.592 578.258 541.959C577.429 540.426 576.448 538.98 575.329 537.643C575.329 537.643 577.286 543.877 576.949 547.014C576.612 550.15 575.653 552.055 573.061 552.496C570.469 552.936 567.566 548.608 565.558 544.59C564.336 542.158 562.764 539.918 560.892 537.942L554.697 535.064C555.762 538.183 557.161 541.177 558.87 543.994C561.242 547.532 564.054 548.361 563.03 550.292C562.006 552.223 557.289 552.599 555.073 549.917C552.857 547.234 549.293 544.331 547.297 540.728C545.301 537.125 540.674 527.392 540.674 527.392L528.025 525.189C528.025 525.189 520.625 522.96 520.146 515.158C519.666 507.356 534.428 503.973 537.849 506.008Z" fill="white" stroke="#263238" stroke-linecap="round" stroke-linejoin="round"/>
<path d="M563.704 531.345C563.704 531.345 569.368 538.693 571.234 541.881C573.1 545.069 573.074 552.522 573.074 552.522" stroke="#263238" stroke-linecap="round" stroke-linejoin="round"/>
<path d="M575.33 537.669L570.288 526.265" stroke="#263238" stroke-linecap="round" stroke-linejoin="round"/>
<path d="M410.232 532.745C410.232 532.745 439.172 529.297 453.855 534.481C468.539 539.665 482.808 557.809 482.808 572.921C482.808 588.032 479.775 670.989 480.644 673.153C481.512 675.318 486.255 675.745 486.255 680.061C486.255 684.377 482.808 706.849 482.808 706.849C482.808 706.849 462.5 714.185 455.592 714.185H448.671C448.671 714.185 438.744 687.837 439.172 683.521C439.599 679.206 442.191 675.745 442.191 673.581C442.191 671.417 429.672 626.057 429.672 612.669V582.861L405.476 577.677C405.476 577.677 394.68 547.001 410.232 532.745Z" fill="#263238" stroke="#263238" stroke-linecap="round" stroke-linejoin="round"/>
<path d="M500.459 726.289C500.459 726.289 487.499 711.165 482.315 702.961C477.131 694.757 467.632 690.001 462.02 694.317C456.408 698.632 456.395 709.441 456.395 709.441L446.896 707.704C446.896 707.704 450.356 719.368 452.08 725.848C453.803 732.328 456.395 736.657 467.632 738.381C478.868 740.104 497.44 741.4 502.624 736.216C507.808 731.032 500.459 726.289 500.459 726.289Z" fill="white" stroke="#263238" stroke-linecap="round" stroke-linejoin="round"/>
<path d="M502.624 736.217C503.457 735.538 504.047 734.608 504.306 733.566C504.566 732.524 504.48 731.426 504.062 730.436C501.647 731.807 499.144 733.019 496.571 734.065C487.072 737.953 474.112 737.085 463.316 733.625C459.325 732.479 455.655 730.421 452.598 727.611C454.374 733.119 457.458 736.813 467.632 738.381C478.92 740.105 497.44 741.401 502.624 736.217Z" fill="white" stroke="#263238" stroke-linecap="round" stroke-linejoin="round"/>
<path d="M517.437 508.522C517.437 508.522 516.582 518.774 516.297 521.897C516.012 525.02 517.722 528.74 518.889 529.297C520.055 529.854 520.599 528.74 520.599 526.174V521.897C520.561 521.042 517.437 508.522 517.437 508.522Z" fill="white" stroke="#263238" stroke-linecap="round" stroke-linejoin="round"/>
<path d="M534.467 487.488C534.467 483.03 540.402 473.634 540.402 473.634L542.696 442.141L541.141 436.037L534.22 435.545C531.486 444.72 521.882 477.017 520.612 482.045C519.136 488.879 518.144 495.808 517.645 502.781C517.645 505.243 517.645 516.622 518.642 521.081C519.64 525.539 526.548 529.971 526.548 529.971C526.548 529.971 535.879 529.971 537.357 528.986C538.834 528.001 535.089 524.709 535.089 524.709C534.531 524.709 532.885 512.501 536.385 508.717C539.21 505.697 547.271 509.209 547.271 509.209C547.271 509.209 545.288 503.766 542.813 498.841C540.337 493.916 534.467 491.933 534.467 487.488Z" fill="white" stroke="#263238" stroke-linecap="round" stroke-linejoin="round"/>
<path d="M535.944 529.867C535.944 529.867 528.544 525.889 527.689 524.178C526.833 522.467 526.561 509.378 526.561 509.378" stroke="#263238" stroke-linecap="round" stroke-linejoin="round"/>
<path d="M528.246 529.867C528.246 529.867 522.271 523.608 522.271 521.327C522.271 519.046 520.845 509.378 520.845 509.378" stroke="#263238" stroke-linecap="round" stroke-linejoin="round"/>
<path d="M386.697 536.464L337.306 535.881C336.034 535.777 334.755 535.777 333.483 535.881L325.137 536.503C321.851 536.751 318.651 537.667 315.731 539.196C312.812 540.724 310.236 542.832 308.16 545.391C306.084 547.95 304.552 550.906 303.658 554.077C302.765 557.249 302.528 560.569 302.962 563.836L324.994 729.244C325.148 730.417 325.724 731.494 326.613 732.273C327.503 733.053 328.645 733.483 329.828 733.482H391.388L386.697 536.464Z" fill="#333333" stroke="#263238" stroke-linecap="round" stroke-linejoin="round"/>
<path d="M414.638 733.456C415.923 733.453 417.155 732.943 418.067 732.039C418.979 731.134 419.498 729.906 419.511 728.622L421.066 560.31C421.11 556.952 420.454 553.621 419.141 550.53C417.828 547.438 415.886 544.654 413.438 542.354C410.99 540.054 408.091 538.288 404.924 537.169C401.757 536.051 398.392 535.603 395.043 535.855L386.696 536.477C383.411 536.725 380.21 537.641 377.291 539.17C374.372 540.698 371.795 542.806 369.72 545.365C367.644 547.924 366.112 550.88 365.218 554.051C364.324 557.223 364.087 560.543 364.522 563.81L386.554 729.218C386.708 730.391 387.284 731.467 388.173 732.247C389.062 733.027 390.205 733.457 391.388 733.456H414.638Z" fill="#666666" stroke="#263238" stroke-linecap="round" stroke-linejoin="round"/>
<path d="M370.859 402.717C370.859 402.717 352.715 403.144 345.808 413.512C338.9 423.88 333.275 459.313 331.979 468.385C330.683 477.457 325.072 509.416 327.236 515.469C329.4 521.521 335.012 522.376 345.38 522.817C355.748 523.258 360.491 517.633 362.656 511.153C364.82 504.673 370.432 444.189 370.432 444.189" fill="#3C9FCF"/>
<path d="M370.859 402.717C370.859 402.717 352.715 403.144 345.808 413.512C338.9 423.88 333.275 459.313 331.979 468.385C330.683 477.457 325.072 509.416 327.236 515.469C329.4 521.521 335.012 522.376 345.38 522.817C355.748 523.258 360.491 517.633 362.656 511.153C364.82 504.673 370.432 444.189 370.432 444.189" stroke="#263238" stroke-linecap="round" stroke-linejoin="round"/>
<path d="M346.235 493.865C348.827 494.733 372.155 500.344 373.892 505.101C374.441 506.314 374.611 507.664 374.38 508.975C374.149 510.287 373.527 511.497 372.596 512.449C372.596 512.449 364.82 531.021 357.899 532.744C350.979 534.468 335.44 529.725 327.664 526.264C319.888 522.804 327.664 496.457 328.532 495.161" fill="#3C9FCF"/>
<path d="M346.235 493.865C348.827 494.733 372.155 500.344 373.892 505.101C374.441 506.314 374.611 507.664 374.38 508.975C374.149 510.287 373.527 511.497 372.596 512.449C372.596 512.449 364.82 531.021 357.899 532.744C350.979 534.468 335.44 529.725 327.664 526.264C319.888 522.804 327.664 496.457 328.532 495.161" stroke="#263238" stroke-linecap="round" stroke-linejoin="round"/>
<path d="M377.832 517.633C377.832 517.633 379.556 515.041 377.391 513.745C375.227 512.449 371.78 508.561 367.892 508.561C364.004 508.561 357.096 512.008 355.359 519.357C353.623 526.705 354.932 531.889 357.951 532.745C360.971 533.6 367.464 535.337 370.484 535.337C373.503 535.337 375.668 528.857 376.095 527.561C376.523 526.265 377.832 517.633 377.832 517.633Z" fill="#3C9FCF" stroke="#263238" stroke-linecap="round" stroke-linejoin="round"/>
<path d="M405.852 520.225C405.852 520.225 413.2 529.297 416.66 531.021C420.121 532.744 423.14 534.909 420.548 537.501C417.956 540.093 411.904 538.797 409.312 535.336C406.72 531.876 405.852 520.225 405.852 520.225Z" fill="white" stroke="#263238" stroke-linecap="round" stroke-linejoin="round"/>
<path d="M380.8 517.633C380.8 517.633 401.108 514.601 404.128 514.601C407.147 514.601 411.904 536.205 412.331 539.665C412.759 543.126 414.496 545.277 412.331 547.001C411.39 547.922 410.185 548.529 408.884 548.737C407.695 549.752 406.39 550.622 404.996 551.329C403.7 551.757 398.944 550.889 398.944 550.889C398.944 550.889 398.516 552.625 395.056 552.185C391.595 551.744 379.931 537.073 379.931 537.073C379.931 537.073 371.3 534.909 367.84 531.889C364.379 528.87 365.675 523.673 367.84 520.225C370.004 516.778 374.747 515.897 374.747 515.897L380.8 517.633Z" fill="white" stroke="#263238" stroke-linecap="round" stroke-linejoin="round"/>
<path d="M399.812 524.541L410.608 547.869" stroke="#263238" stroke-linecap="round" stroke-linejoin="round"/>
<path d="M391.595 528.429L404.996 551.329" stroke="#263238" stroke-linecap="round" stroke-linejoin="round"/>
<path d="M398.944 550.889L386.411 532.745" stroke="#263238" stroke-linecap="round" stroke-linejoin="round"/>
</svg>
