<svg width="831" height="685" viewBox="0 0 831 685" fill="none" xmlns="http://www.w3.org/2000/svg">
<path d="M754.01 51.9288C710.583 123.387 580.86 237.72 409.392 123.387C195.056 -19.5295 89.9897 249.49 157.232 329.355C224.475 409.22 266.501 455.458 232.88 535.323C199.259 615.188 249.691 741.291 409.392 657.223C537.153 589.968 608.318 615.188 627.93 636.206C667.524 670.729 750.721 704.664 831 646.5C831 614.5 831 522.5 831 463.5C831 243 831 208.5 831 198.5C831 179.5 831 51.7826 831 4.00002C813.454 -5.66147 787.492 6.16105 754.01 51.9288Z" fill="#A9E4C7"/>
<path d="M77.0006 607.488H590.4" stroke="#263238" stroke-linecap="round" stroke-linejoin="round"/>
<path d="M337.239 544.445C338.03 547.495 338.088 550.688 337.411 553.764C337.411 553.764 310.829 555.771 292.922 549.659C275.015 543.548 274.434 536.789 274.434 536.789L281.38 528.038" fill="#263238"/>
<path d="M316.626 505.862C316.626 505.862 316.56 519.616 310.512 521.702C304.464 523.787 288.591 515.748 281.354 528.09C274.118 540.432 329.673 553.17 339.894 546.94C339.894 546.94 342.363 535.72 340.448 527.246C338.533 518.771 340.448 508.251 340.448 508.251L316.626 505.862Z" fill="white" stroke="#263238" stroke-linecap="round" stroke-linejoin="round"/>
<path d="M418.202 365.836C418.202 365.836 391.606 360.437 383.352 368.054C383.352 368.054 347.038 347.501 297.399 370.694C247.76 393.886 305.111 507.551 305.111 507.551C305.111 507.551 332.314 522.164 351.184 516.078L348.939 500.687L344.014 497.915C344.014 497.915 359.438 490.431 361.709 459.292C361.709 459.292 422.995 470.288 426.415 470.908C429.835 471.528 418.202 365.836 418.202 365.836Z" fill="#757575"/>
<path opacity="0.2" d="M426.362 470.895C422.995 470.274 361.656 459.279 361.656 459.279C359.385 490.418 343.961 497.902 343.961 497.902L348.886 500.674L351.131 516.065C340.818 519.392 328.009 516.527 318.527 513.254C316.061 510.005 314.265 506.299 313.245 502.35L316.428 494.351C299.01 477.732 309.455 435.07 319.808 405.845C330.029 376.964 377.608 370.113 378.691 369.968C378.414 370.865 367.321 405.383 371.811 423.89C376.354 442.647 399.78 446.33 399.78 446.33C394.339 409.805 409.024 368.45 409.024 368.45L422.071 403.245C425.055 433.552 428.37 471.264 426.362 470.895Z" fill="black" fill-opacity="0.7"/>
<path d="M361.709 459.279C361.709 459.279 352.307 438.159 358.223 425.79" stroke="#263238" stroke-linecap="round" stroke-linejoin="round"/>
<path d="M404.547 403.72C404.547 403.72 398.565 456.282 419.522 468.123" stroke="#263238" stroke-linecap="round" stroke-linejoin="round"/>
<path d="M369.447 381.122C369.447 381.122 336.434 420.101 343.129 444.482" stroke="#263238" stroke-linecap="round" stroke-linejoin="round"/>
<path d="M344.014 497.902C344.014 497.902 311.977 499.882 300.277 485.745" stroke="#263238" stroke-linecap="round" stroke-linejoin="round"/>
<path d="M418.202 365.836C418.202 365.836 391.606 360.437 383.352 368.054C383.352 368.054 347.038 347.501 297.399 370.694C247.76 393.886 305.111 507.551 305.111 507.551C305.111 507.551 332.314 522.164 351.184 516.078L348.939 500.687L344.014 497.915C344.014 497.915 359.438 490.431 361.709 459.292C361.709 459.292 422.995 470.288 426.415 470.908C429.835 471.528 418.202 365.836 418.202 365.836Z" stroke="#263238" stroke-linecap="round" stroke-linejoin="round"/>
<path d="M461.806 262.163C461.806 262.163 441.549 274.835 435.685 284.286C429.822 293.738 419.747 312.64 419.747 312.64L390.127 300.536L367.744 317.247C367.744 317.247 381.121 360.305 400.691 363.896C420.262 367.486 479.844 313.828 479.844 313.828L461.806 262.163Z" fill="#3C9FCF"/>
<path opacity="0.2" d="M461.806 262.163C461.806 262.163 441.549 274.835 435.685 284.286C429.822 293.738 419.747 312.64 419.747 312.64L390.127 300.536L367.744 317.247C367.744 317.247 381.121 360.305 400.691 363.896C420.262 367.486 479.844 313.828 479.844 313.828L461.806 262.163Z" fill="black" fill-opacity="0.7"/>
<path d="M461.806 262.163C461.806 262.163 441.549 274.835 435.685 284.286C429.822 293.738 419.747 312.64 419.747 312.64L390.127 300.536L367.744 317.247C367.744 317.247 381.121 360.305 400.691 363.896C420.262 367.486 479.844 313.828 479.844 313.828L461.806 262.163Z" stroke="#263238" stroke-linecap="round" stroke-linejoin="round"/>
<path d="M365.433 296.721C365.433 296.721 371.23 273.674 386.376 230.338L389.783 231.275C389.783 231.275 373.633 280.524 365.433 296.721Z" fill="#757575" stroke="#263238" stroke-linecap="round" stroke-linejoin="round"/>
<path d="M353.72 265.199C353.72 265.199 376.605 258.744 421.741 250.31L422.639 253.728C422.639 253.728 371.851 264.236 353.72 265.199Z" fill="#999999" stroke="#263238" stroke-linecap="round" stroke-linejoin="round"/>
<path d="M398.908 263.879C398.908 263.879 390.378 254.639 387.71 253.9C385.043 253.161 381.108 257.517 381.108 257.517C381.108 257.517 369.791 257.2 366.582 257.886C363.373 258.573 352.769 275.984 349.415 297.024C346.06 318.065 341.557 330.024 330.227 335.806C305.031 348.821 284.735 377.61 291.628 406.479C298.521 435.347 283.546 468.413 283.705 474.67C283.863 480.927 315.754 485.23 322.502 481.851C329.25 478.472 343.551 481.772 346.998 481.719C350.445 481.666 362.369 439.004 360.203 410.716C358.038 382.428 383.458 371.42 387.393 355.91C391.329 340.4 405.194 270.73 398.908 263.879Z" fill="#BFBFBF" stroke="#263238" stroke-miterlimit="10"/>
<path d="M407.571 275.284C406.914 270.598 405.952 265.959 404.692 261.398C403.266 257.319 396.769 251.933 395.264 253.121C394.136 254.258 393.239 255.603 392.623 257.081C392.623 257.081 387.274 257.728 387.433 261.041C387.433 261.041 382.151 263.1 382.058 266.493C382.058 266.493 377.529 266.427 379.034 273.713C379.741 277.786 381.634 281.56 384.475 284.564L407.571 275.284Z" fill="white" stroke="#263238" stroke-linecap="round" stroke-linejoin="round"/>
<path d="M457.712 243.023C457.712 243.023 476.992 247.274 481.191 261.318L503.535 236.938C503.535 236.938 494.291 233.202 496.193 219.078C498.094 204.954 457.712 243.023 457.712 243.023Z" fill="white" stroke="#263238" stroke-linecap="round" stroke-linejoin="round"/>
<path d="M501.052 222.722C501.052 222.722 508.87 214.551 508.711 207.898C507.84 172.76 497.975 149.686 451.4 163.374C429.637 169.776 434.682 207.687 434.682 207.687C434.682 207.687 428.779 216.597 430.271 219.329C430.905 220.504 435.553 220.464 435.553 220.464C436.455 223.45 437.79 226.287 439.515 228.886L437.164 229.955C438.868 237.096 441.694 244.172 446.408 246.006C451.426 247.92 457.091 248.422 470.178 244.185" fill="white"/>
<path d="M501.052 222.722C501.052 222.722 508.87 214.551 508.711 207.898C507.84 172.76 497.975 149.686 451.4 163.374C429.637 169.776 434.682 207.687 434.682 207.687C434.682 207.687 428.779 216.597 430.271 219.329C430.905 220.504 435.553 220.464 435.553 220.464C436.455 223.45 437.79 226.287 439.515 228.886L437.164 229.955C438.868 237.096 441.694 244.172 446.408 246.006C451.426 247.92 457.091 248.422 470.178 244.185" stroke="#263238" stroke-linecap="round" stroke-linejoin="round"/>
<path d="M436.478 187.61C436.478 187.61 443.331 185.339 448.072 194.434" stroke="#263238" stroke-linecap="round" stroke-linejoin="round"/>
<path d="M441.681 200.282C442.222 201.8 441.839 203.331 440.822 203.687C439.806 204.044 438.551 203.12 438.01 201.602C437.468 200.084 437.851 198.566 438.855 198.196C439.858 197.826 441.139 198.777 441.681 200.282Z" fill="#263238"/>
<path d="M439.475 228.886C439.475 228.886 446.355 226.589 446.844 224.068" stroke="#263238" stroke-linecap="round" stroke-linejoin="round"/>
<path d="M436.782 211.145C436.782 211.145 433.969 219.237 450.145 223.989" stroke="#263238" stroke-linecap="round" stroke-linejoin="round"/>
<path d="M442.381 206.789C443.807 210.749 443.054 214.709 440.703 215.514C438.353 216.32 435.302 213.812 433.876 209.838C432.45 205.865 433.203 201.918 435.553 201.113C437.904 200.308 440.902 202.816 442.381 206.789Z" fill="#BFBFBF" stroke="#263238" stroke-miterlimit="10"/>
<path d="M442.935 200.862C442.935 200.862 446.554 200.625 448.019 199.199" stroke="#263238" stroke-linecap="round" stroke-linejoin="round"/>
<path d="M443.001 203.78C443.427 203.616 443.888 203.565 444.339 203.632C444.79 203.699 445.217 203.882 445.576 204.162" stroke="#263238" stroke-linecap="round" stroke-linejoin="round"/>
<path d="M436.148 194.738C436.118 195.793 436.343 196.841 436.803 197.791C437.262 198.742 437.943 199.569 438.789 200.202" stroke="#263238" stroke-linecap="round" stroke-linejoin="round"/>
<path d="M437.323 178C437.323 178 430.575 163.48 452.694 154.887C474.813 146.294 498.913 148.973 509.979 168.258C521.045 187.544 517.176 215.369 499.85 225.137C482.525 234.905 479.171 220.953 479.171 220.953C479.171 220.953 487.979 211.713 481.984 202.724C475.988 193.734 469.188 206.142 469.188 206.142C469.188 206.142 456.101 201.206 454.662 184.428C454.675 184.362 447.121 174.04 437.323 178Z" fill="#BFBFBF" stroke="#263238" stroke-miterlimit="10"/>
<path d="M491.703 152.801C491.703 152.801 487.873 136.644 501.752 130.031C515.631 123.418 531.557 137.568 527.357 150.716C523.158 163.863 508.302 165.552 508.302 165.552C508.302 165.552 500.484 156.537 491.703 152.801Z" fill="#BFBFBF" stroke="#263238" stroke-miterlimit="10"/>
<path d="M467.022 156.761C469.499 156.132 472.027 155.717 474.575 155.52" stroke="white" stroke-linecap="round" stroke-linejoin="round"/>
<path d="M448.019 172.72C449.734 167.777 453.107 163.579 457.567 160.84" stroke="white" stroke-linecap="round" stroke-linejoin="round"/>
<path d="M457.712 180.244C457.712 180.244 465.847 163.348 495.361 164.127" stroke="white" stroke-linecap="round" stroke-linejoin="round"/>
<path d="M481.244 187.887C490.343 183.32 498.715 176.654 503.535 167.532" stroke="white" stroke-linecap="round" stroke-linejoin="round"/>
<path d="M463.76 194.104C466.971 193.416 470.126 192.494 473.202 191.345" stroke="white" stroke-linecap="round" stroke-linejoin="round"/>
<path d="M508.407 185.075C508.763 182.376 508.87 179.65 508.724 176.931" stroke="white" stroke-linecap="round" stroke-linejoin="round"/>
<path d="M488.045 215.765C496.642 212.822 503.574 201.245 506.374 193.325" stroke="white" stroke-linecap="round" stroke-linejoin="round"/>
<path d="M488.045 224.068C492.126 223.377 496.024 221.862 499.5 219.615C502.976 217.368 505.957 214.437 508.262 211" stroke="white" stroke-linecap="round" stroke-linejoin="round"/>
<path d="M497.209 150.174C497.209 150.174 497.209 131.008 509.636 132.275" stroke="white" stroke-linecap="round" stroke-linejoin="round"/>
<path d="M516.185 134.44C516.185 134.44 524.28 146.703 503.429 154.24" stroke="white" stroke-linecap="round" stroke-linejoin="round"/>
<path d="M508.777 160.84C508.777 160.84 522.854 158.2 525.139 150.135" stroke="white" stroke-linecap="round" stroke-linejoin="round"/>
<path d="M437.442 202.512L435.54 210.287C435.864 211.354 436.533 212.282 437.442 212.927L439.475 204.545C439.475 204.545 439.396 203.912 437.442 202.512Z" fill="white"/>
<path d="M440.373 206.367L438.762 213.35C438.762 213.35 440.082 214.062 440.901 211.845C441.719 209.627 440.373 206.367 440.373 206.367Z" fill="white"/>
<path d="M503.535 236.938C503.535 236.938 502.663 228.279 500.392 228.107C498.121 227.936 475.024 250.679 463.258 254.375C451.492 258.071 457.91 273.264 457.91 273.264C457.91 273.264 439.66 288.788 443.067 310.317C446.474 331.846 462.466 326.645 462.466 326.645L503.535 236.938Z" fill="#3C9FCF"/>
<path opacity="0.6" d="M503.535 236.938L466.56 317.814L462.519 326.645C462.519 326.645 449.96 330.737 444.731 316.666C443.981 314.609 443.441 312.482 443.12 310.317C442.169 304.11 442.875 297.762 445.167 291.916C447.956 284.806 452.333 278.427 457.963 273.264C457.963 273.264 451.532 258.058 463.311 254.375C475.09 250.692 498.187 227.975 500.445 228.107C501.409 228.107 502.109 229.77 502.61 231.579C503.047 233.341 503.356 235.132 503.535 236.938Z" fill="white"/>
<path opacity="0.2" d="M503.535 236.938L466.56 317.814C462.149 317.946 450.779 317.128 444.731 316.666C443.981 314.609 443.441 312.482 443.12 310.317C442.169 304.11 442.875 297.762 445.167 291.916C453.222 287.124 458.65 277.647 458.65 277.647C458.65 277.647 459.97 272.486 468.157 259.602C474.179 250.151 493.023 237.585 502.61 231.579C503.047 233.341 503.356 235.132 503.535 236.938V236.938Z" fill="black" fill-opacity="0.7"/>
<path d="M503.535 236.938C503.535 236.938 502.663 228.279 500.392 228.107C498.121 227.936 475.024 250.679 463.258 254.375C451.492 258.071 457.91 273.264 457.91 273.264C457.91 273.264 439.66 288.788 443.067 310.317C446.474 331.846 462.466 326.645 462.466 326.645L503.535 236.938Z" stroke="#263238" stroke-linecap="round" stroke-linejoin="round"/>
<path d="M537.248 279.112C549.199 329.074 497.223 467.766 475.83 479.039L422.639 473.429C422.639 473.429 373.092 351.989 431.948 331.767C431.948 331.767 447.65 274.624 508.17 239.855C508.17 239.855 529.774 247.868 537.248 279.112Z" fill="#3C9FCF"/>
<path opacity="0.2" d="M452.615 370.311C452.615 370.311 465.82 393.094 489.141 390.758C489.141 390.758 469.267 413.488 450.145 408.261C431.024 403.034 420.222 375.538 420.222 375.538C420.222 375.538 418.215 401.7 405.471 411.785C400.123 378.468 402.051 342.063 431.948 331.767C431.948 331.767 439.872 302.727 466.48 273.41C482.908 259.919 500.973 247.102 510.137 240.766C514.099 242.799 523.343 248.686 530.487 261.424C510.534 262.124 488.045 285.712 488.045 285.712C476.266 276.472 464.434 288.048 458.412 295.81C467.524 293.342 475.46 292.497 479.844 294.068C493.353 298.952 503.535 330.632 503.535 330.632C503.535 330.632 487.028 374.786 452.615 370.311Z" fill="black" fill-opacity="0.7"/>
<path opacity="0.2" d="M475.83 479.039L422.639 473.429C422.639 473.429 418.822 464.084 414.57 450.158C417.726 450.387 420.836 451.044 423.814 452.111C441.311 458.012 474.919 427.757 488.058 405.476C501.197 383.194 525.759 324.362 525.759 324.362C525.759 324.362 515.314 310.092 524.016 302.78C529.893 297.856 534.013 283.56 536.086 274.743C536.509 276.142 536.905 277.607 537.261 279.112C549.199 329.074 497.223 467.766 475.83 479.039Z" fill="black" fill-opacity="0.7"/>
<path d="M511.049 341.508C513.094 340.861 514.897 339.615 516.225 337.931" stroke="#263238" stroke-linecap="round" stroke-linejoin="round"/>
<path d="M480.676 341.073C487.838 342.658 495.176 343.306 502.505 343" stroke="#263238" stroke-linecap="round" stroke-linejoin="round"/>
<path d="M476.266 345.244C476.266 345.244 487.635 358.444 498.16 357.124" stroke="#263238" stroke-linecap="round" stroke-linejoin="round"/>
<path d="M521.705 250.31C521.705 250.31 518.351 260.064 506.374 267.47" stroke="#263238" stroke-linecap="round" stroke-linejoin="round"/>
<path d="M467.59 392.315C474.702 394.62 482.434 394.061 489.141 390.758" stroke="#263238" stroke-linecap="round" stroke-linejoin="round"/>
<path d="M431.618 356.53C438.115 368.925 447.623 381.333 459.706 388.646" stroke="#263238" stroke-linecap="round" stroke-linejoin="round"/>
<path d="M429.241 432.272C430.438 434.067 431.853 435.708 433.454 437.156" stroke="#263238" stroke-linecap="round" stroke-linejoin="round"/>
<path d="M422.639 364.12C418.611 383.92 419.931 403.72 425.108 424.074" stroke="#263238" stroke-linecap="round" stroke-linejoin="round"/>
<path d="M537.248 279.112C549.199 329.074 497.223 467.766 475.83 479.039L422.639 473.429C422.639 473.429 373.092 351.989 431.948 331.767C431.948 331.767 447.65 274.624 508.17 239.855C508.17 239.855 529.774 247.868 537.248 279.112Z" stroke="#263238" stroke-linecap="round" stroke-linejoin="round"/>
<path d="M448.838 296.496C448.838 296.496 462.941 258.137 502.188 233.572C502.188 233.572 507.721 233.11 510.111 235.037C511.778 236.676 513.035 238.684 513.782 240.898L521.705 247.498C521.705 247.498 520.689 253.029 484.294 281.567C484.294 281.62 470.508 269.08 448.838 296.496Z" fill="#3C9FCF" stroke="#263238" stroke-linecap="round" stroke-linejoin="round"/>
<path d="M508.262 331.556C502.98 346.63 436.953 369.545 420.262 367.473C403.57 365.4 374.888 324.52 380.038 295.322C380.038 295.322 375.363 296.378 375.205 295.19C374.056 286.306 371.784 289.91 374.439 285.105C383.234 269.265 407.584 266.334 410.291 267.852C412.999 269.37 412.655 281.475 412.655 281.475C412.655 281.475 428.594 298.912 435.87 311.98C435.87 311.98 437.468 307.479 445.114 310.66C445.114 310.66 465.622 282.57 478.128 281.831" fill="#3C9FCF"/>
<path opacity="0.2" d="M488.15 347.343C465.794 358.721 431.631 368.885 420.262 367.473C403.557 365.44 374.888 324.52 380.038 295.322C380.038 295.322 375.363 296.378 375.205 295.19C375.052 293.945 374.822 292.71 374.518 291.494C382.877 287.019 395.066 281.435 402.447 282.254C402.447 282.254 383.432 287.824 386.152 307.664C388.872 327.503 411.863 364.754 420.565 364.067C428.99 363.381 467.643 357.52 488.15 347.343Z" fill="black" fill-opacity="0.7"/>
<path d="M508.262 331.556C502.98 346.63 436.953 369.545 420.262 367.473C403.57 365.4 374.888 324.52 380.038 295.322C380.038 295.322 375.363 296.378 375.205 295.19C374.056 286.306 371.784 289.91 374.439 285.105C383.234 269.265 407.584 266.334 410.291 267.852C412.999 269.37 412.655 281.475 412.655 281.475C412.655 281.475 428.594 298.912 435.87 311.98C435.87 311.98 437.468 307.479 445.114 310.66C445.114 310.66 465.622 282.57 478.128 281.831" stroke="#263238" stroke-linecap="round" stroke-linejoin="round"/>
<path d="M312.387 549.131C316.797 524.724 303.077 518.56 303.077 518.56C277.155 516.765 277.287 529.886 277.287 529.886C277.287 529.886 268.188 540.446 305.203 549.131" fill="#263238"/>
<path d="M380.038 295.322C380.038 295.322 388.397 282.584 408.548 282.24" stroke="#263238" stroke-linecap="round" stroke-linejoin="round"/>
<path d="M435.87 311.98C435.87 311.98 438.683 326.104 436.597 331.674C434.51 337.245 444.85 334.314 440.73 325.404" fill="#3C9FCF"/>
<path d="M435.87 311.98C435.87 311.98 438.683 326.104 436.597 331.674C434.51 337.245 444.85 334.314 440.73 325.404" stroke="#263238" stroke-linecap="round" stroke-linejoin="round"/>
<path d="M475.909 317.445C477.462 316.51 478.809 315.27 479.871 313.802" stroke="#263238" stroke-linecap="round" stroke-linejoin="round"/>
<path d="M445.167 310.7C447.997 313.682 451.416 316.044 455.208 317.634C459 319.225 463.082 320.01 467.193 319.94" stroke="#263238" stroke-linecap="round" stroke-linejoin="round"/>
<path d="M500.484 257.372C498.853 258.81 497.123 260.133 495.308 261.332" stroke="#263238" stroke-linecap="round" stroke-linejoin="round"/>
<path d="M513.756 240.898C511.829 244.385 509.564 247.674 506.995 250.719" stroke="#263238" stroke-linecap="round" stroke-linejoin="round"/>
<path d="M356.546 327.16C348.886 332.625 339.458 335.014 330.135 335.78" stroke="#263238" stroke-miterlimit="10"/>
<path d="M369.447 307.994C368.554 312.646 366.496 316.997 363.465 320.639" stroke="#263238" stroke-miterlimit="10"/>
<path d="M335.232 435.4C337.358 437.657 340.184 437.908 342.112 435.228" stroke="#263238" stroke-miterlimit="10"/>
<path d="M300.277 409.33C304.477 405.779 312.664 399.984 318.118 403.984C320.944 406.056 322.344 410.584 323.717 413.646C325.645 417.95 327.454 422.292 329.554 426.516" stroke="#263238" stroke-miterlimit="10"/>
<path d="M369.447 471.489L369.302 471.74L360.243 487.725C359.524 488.994 358.545 490.097 357.371 490.964C356.197 491.83 354.854 492.44 353.429 492.754L348.015 502.324C348.78 503.073 349.277 504.053 349.427 505.113C349.578 506.173 349.374 507.253 348.847 508.185L347.817 510.006C347.606 510.376 347.348 510.718 347.051 511.023C346.194 511.83 345.607 512.882 345.371 514.035C345.135 515.188 345.26 516.386 345.73 517.464C344.565 517.6 343.473 518.104 342.614 518.903C341.753 519.713 341.143 520.753 340.858 521.9C340.762 522.318 340.601 522.719 340.382 523.088L339.352 524.909C338.822 525.842 337.999 526.572 337.01 526.988C336.021 527.403 334.922 527.48 333.885 527.206L328.471 536.763C328.928 538.146 329.092 539.61 328.951 541.06C328.81 542.51 328.367 543.915 327.652 545.184L318.408 561.42L300.225 551.124L309.468 534.888C310.186 533.618 311.164 532.513 312.338 531.646C313.512 530.78 314.856 530.171 316.282 529.859L321.697 520.289C321.028 519.639 320.562 518.81 320.356 517.901C320.15 516.992 320.212 516.042 320.534 515.168C320.614 514.909 320.725 514.661 320.865 514.428L321.895 512.607C322.101 512.234 322.359 511.892 322.661 511.59C323.512 510.78 324.096 509.728 324.332 508.577C324.568 507.425 324.445 506.229 323.981 505.149C325.148 504.996 326.24 504.489 327.109 503.696C327.978 502.903 328.583 501.862 328.841 500.714C328.948 500.299 329.108 499.9 329.316 499.526L330.359 497.704C330.891 496.773 331.715 496.044 332.703 495.629C333.691 495.213 334.789 495.136 335.826 495.407L341.241 485.85C340.777 484.468 340.61 483.004 340.751 481.552C340.892 480.101 341.338 478.696 342.059 477.429L347.698 467.489L351.263 461.193L369.447 471.489Z" fill="white"/>
<path opacity="0.4" d="M347.698 467.489L369.302 471.74L360.243 487.725C359.523 488.994 358.545 490.097 357.371 490.964C356.197 491.83 354.854 492.44 353.429 492.754L348.015 502.324C348.78 503.073 349.277 504.053 349.427 505.113C349.577 506.173 349.374 507.253 348.847 508.185L347.817 510.006C347.606 510.376 347.348 510.718 347.051 511.023C346.194 511.83 345.607 512.882 345.371 514.035C345.135 515.188 345.26 516.386 345.73 517.464C344.565 517.6 343.473 518.104 342.614 518.903C341.753 519.713 341.143 520.753 340.857 521.9C340.761 522.318 340.601 522.719 340.382 523.088L339.352 524.909C339.02 525.496 338.571 526.009 338.032 526.414C332.16 522.982 326.332 519.233 320.548 515.168C320.627 514.909 320.738 514.661 320.878 514.428L321.908 512.607C322.114 512.234 322.372 511.892 322.674 511.59C323.526 510.78 324.109 509.728 324.345 508.577C324.581 507.425 324.459 506.229 323.994 505.149C325.161 504.996 326.253 504.489 327.122 503.696C327.991 502.903 328.596 501.862 328.854 500.714C328.962 500.299 329.121 499.9 329.329 499.526L330.372 497.704C330.904 496.773 331.728 496.044 332.716 495.629C333.705 495.213 334.802 495.136 335.839 495.407L341.254 485.85C340.79 484.468 340.623 483.004 340.764 481.552C340.905 480.101 341.351 478.696 342.072 477.429L347.698 467.489Z" fill="#3C9FCF"/>
<path d="M369.447 471.489L369.302 471.74L360.243 487.725C359.524 488.994 358.545 490.097 357.371 490.964C356.197 491.83 354.854 492.44 353.429 492.754L348.015 502.324C348.78 503.073 349.277 504.053 349.427 505.113C349.578 506.173 349.374 507.253 348.847 508.185L347.817 510.006C347.606 510.376 347.348 510.718 347.051 511.023C346.194 511.83 345.607 512.882 345.371 514.035C345.135 515.188 345.26 516.386 345.73 517.464C344.565 517.6 343.473 518.104 342.614 518.903C341.753 519.713 341.143 520.753 340.858 521.9C340.762 522.318 340.601 522.719 340.382 523.088L339.352 524.909C338.822 525.842 337.999 526.572 337.01 526.988C336.021 527.403 334.922 527.48 333.885 527.206L328.471 536.763C328.928 538.146 329.092 539.61 328.951 541.06C328.81 542.51 328.367 543.915 327.652 545.184L318.408 561.42L300.225 551.124L309.468 534.888C310.186 533.618 311.164 532.513 312.338 531.646C313.512 530.78 314.856 530.171 316.282 529.859L321.697 520.289C321.028 519.639 320.562 518.81 320.356 517.901C320.15 516.992 320.212 516.042 320.534 515.168C320.614 514.909 320.725 514.661 320.865 514.428L321.895 512.607C322.101 512.234 322.359 511.892 322.661 511.59C323.512 510.78 324.096 509.728 324.332 508.577C324.568 507.425 324.445 506.229 323.981 505.149C325.148 504.996 326.24 504.489 327.109 503.696C327.978 502.903 328.583 501.862 328.841 500.714C328.948 500.299 329.108 499.9 329.316 499.526L330.359 497.704C330.891 496.773 331.715 496.044 332.703 495.629C333.691 495.213 334.789 495.136 335.826 495.407L341.241 485.85C340.777 484.468 340.61 483.004 340.751 481.552C340.892 480.101 341.338 478.696 342.059 477.429L347.698 467.489L351.263 461.193L369.447 471.489Z" stroke="#263238" stroke-linecap="round" stroke-linejoin="round"/>
<path d="M350.273 490.84L341.293 485.745" stroke="#263238" stroke-linecap="round" stroke-linejoin="round"/>
<path d="M338.269 496.833L347.988 502.35" stroke="#263238" stroke-linecap="round" stroke-linejoin="round"/>
<path d="M345.744 517.464L339.418 513.887" stroke="#263238" stroke-linecap="round" stroke-linejoin="round"/>
<path d="M334.862 511.3L323.981 505.149" stroke="#263238" stroke-linecap="round" stroke-linejoin="round"/>
<path d="M321.71 520.289L330.689 525.384" stroke="#263238" stroke-linecap="round" stroke-linejoin="round"/>
<path d="M328.484 536.763L319.821 531.852" stroke="#263238" stroke-linecap="round" stroke-linejoin="round"/>
<path d="M495.717 587.306L475.051 590.408L472.278 571.928C472.058 570.493 472.143 569.028 472.525 567.627C472.907 566.226 473.578 564.922 474.496 563.796L472.885 552.88C471.82 552.764 470.824 552.301 470.05 551.561C469.276 550.821 468.769 549.846 468.606 548.788L468.303 546.716C468.24 546.278 468.24 545.833 468.303 545.396C468.316 545.145 468.316 544.894 468.303 544.643C468.329 543.595 468.062 542.561 467.533 541.656C467.003 540.751 466.232 540.012 465.305 539.522C466.132 538.682 466.681 537.609 466.877 536.447C467.073 535.285 466.907 534.091 466.401 533.027C466.225 532.641 466.105 532.232 466.045 531.813L465.741 529.74C465.578 528.681 465.773 527.598 466.294 526.661C466.816 525.724 467.634 524.987 468.62 524.566L466.982 513.689C465.766 512.886 464.732 511.836 463.948 510.608C463.163 509.381 462.645 508.002 462.426 506.561L459.864 489.401L459.666 488.081L480.333 484.979L481.653 493.731L483.106 503.433C483.325 504.875 483.237 506.347 482.848 507.753C482.459 509.158 481.777 510.466 480.848 511.59L482.485 522.454C483.551 522.567 484.548 523.031 485.322 523.771C486.097 524.511 486.603 525.487 486.764 526.546L487.081 528.618C487.136 529.057 487.136 529.5 487.081 529.938C486.911 531.101 487.103 532.288 487.63 533.338C488.156 534.388 488.992 535.252 490.026 535.812C489.202 536.654 488.657 537.728 488.463 538.89C488.27 540.051 488.437 541.244 488.943 542.307C489.106 542.696 489.222 543.104 489.286 543.521L489.603 545.594C489.758 546.652 489.561 547.733 489.04 548.668C488.52 549.604 487.706 550.341 486.724 550.768L488.348 561.645C489.258 562.247 490.069 562.986 490.752 563.836C491.896 565.261 492.639 566.965 492.904 568.773L495.717 587.306Z" fill="white"/>
<path opacity="0.4" d="M490.778 563.915C485.958 564.008 480.491 564.021 474.496 563.836L472.885 552.88C471.82 552.764 470.824 552.301 470.05 551.561C469.277 550.821 468.769 549.846 468.606 548.788L468.303 546.716C468.24 546.278 468.24 545.833 468.303 545.396C468.316 545.145 468.316 544.894 468.303 544.643C468.329 543.595 468.062 542.561 467.533 541.656C467.003 540.751 466.232 540.012 465.305 539.522C466.132 538.682 466.681 537.609 466.877 536.447C467.073 535.285 466.907 534.091 466.401 533.027C466.225 532.641 466.105 532.232 466.045 531.813L465.741 529.74C465.579 528.681 465.773 527.598 466.294 526.661C466.816 525.724 467.634 524.987 468.62 524.566L466.982 513.689C465.766 512.886 464.733 511.836 463.948 510.608C463.163 509.381 462.645 508.002 462.426 506.561L459.865 489.401L481.64 493.691L483.093 503.393C483.312 504.835 483.224 506.307 482.835 507.713C482.446 509.119 481.764 510.427 480.835 511.551L482.472 522.414C483.537 522.528 484.535 522.991 485.309 523.731C486.083 524.472 486.59 525.448 486.751 526.506L487.068 528.579C487.123 529.017 487.123 529.461 487.068 529.899C486.898 531.061 487.09 532.248 487.616 533.298C488.143 534.349 488.979 535.213 490.012 535.773C489.189 536.615 488.644 537.689 488.45 538.85C488.257 540.011 488.424 541.204 488.93 542.267C489.093 542.656 489.209 543.064 489.273 543.482L489.59 545.554C489.745 546.613 489.548 547.693 489.027 548.629C488.507 549.564 487.693 550.302 486.711 550.728L488.335 561.605C489.268 562.24 490.093 563.02 490.778 563.915V563.915Z" fill="#3C9FCF"/>
<path d="M495.717 587.306L475.051 590.408L472.278 571.928C472.058 570.493 472.143 569.028 472.525 567.627C472.907 566.226 473.578 564.922 474.496 563.796L472.885 552.88C471.82 552.764 470.824 552.301 470.05 551.561C469.276 550.821 468.769 549.846 468.606 548.788L468.303 546.716C468.24 546.278 468.24 545.833 468.303 545.396C468.316 545.145 468.316 544.894 468.303 544.643C468.329 543.595 468.062 542.561 467.533 541.656C467.003 540.751 466.232 540.012 465.305 539.522C466.132 538.682 466.681 537.609 466.877 536.447C467.073 535.285 466.907 534.091 466.401 533.027C466.225 532.641 466.105 532.232 466.045 531.813L465.741 529.74C465.578 528.681 465.773 527.598 466.294 526.661C466.816 525.724 467.634 524.987 468.62 524.566L466.982 513.689C465.766 512.886 464.732 511.836 463.948 510.608C463.163 509.381 462.645 508.002 462.426 506.561L459.864 489.401L459.666 488.081L480.333 484.979L481.653 493.731L483.106 503.433C483.325 504.875 483.237 506.347 482.848 507.753C482.459 509.158 481.777 510.466 480.848 511.59L482.485 522.454C483.551 522.567 484.548 523.031 485.322 523.771C486.097 524.511 486.603 525.487 486.764 526.546L487.081 528.618C487.136 529.057 487.136 529.5 487.081 529.938C486.911 531.101 487.103 532.288 487.63 533.338C488.156 534.388 488.992 535.252 490.026 535.812C489.202 536.654 488.657 537.728 488.463 538.89C488.27 540.051 488.437 541.244 488.943 542.307C489.106 542.696 489.222 543.104 489.286 543.521L489.603 545.594C489.758 546.652 489.561 547.733 489.04 548.668C488.52 549.604 487.706 550.341 486.724 550.768L488.348 561.645C489.258 562.247 490.069 562.986 490.752 563.836C491.896 565.261 492.639 566.965 492.904 568.773L495.717 587.306Z" stroke="#263238" stroke-linecap="round" stroke-linejoin="round"/>
<path d="M470.627 513.122L480.835 511.59" stroke="#263238" stroke-linecap="round" stroke-linejoin="round"/>
<path d="M479.686 523.022L468.633 524.685" stroke="#263238" stroke-linecap="round" stroke-linejoin="round"/>
<path d="M465.318 539.614L472.515 538.532" stroke="#263238" stroke-linecap="round" stroke-linejoin="round"/>
<path d="M477.692 537.753L490.052 535.892" stroke="#263238" stroke-linecap="round" stroke-linejoin="round"/>
<path d="M486.751 550.847L476.543 552.392" stroke="#263238" stroke-linecap="round" stroke-linejoin="round"/>
<path d="M474.522 563.796L484.374 562.318" stroke="#263238" stroke-linecap="round" stroke-linejoin="round"/>
<path d="M540.193 579.623C495.085 605.115 442.438 613.915 391.488 604.479C340.537 595.044 294.538 567.976 261.559 528.024C261.103 527.473 260.762 526.837 260.556 526.152C260.35 525.467 260.283 524.748 260.36 524.037C260.436 523.326 260.654 522.638 261 522.012C261.347 521.387 261.815 520.837 262.378 520.395C264.213 518.956 266.049 517.53 267.885 516.078L271.054 513.597C272.144 512.729 273.532 512.327 274.917 512.478C276.302 512.628 277.572 513.32 278.449 514.402C308.186 550.321 349.605 574.651 395.467 583.142C441.329 591.632 488.718 583.743 529.351 560.853C530.333 560.297 531.467 560.071 532.587 560.206C533.399 560.295 534.18 560.572 534.867 561.014C535.555 561.456 536.13 562.052 536.548 562.754L542.213 572.218C542.576 572.835 542.812 573.517 542.907 574.226C543.002 574.936 542.954 575.656 542.765 576.347C542.577 577.037 542.252 577.682 541.811 578.245C541.369 578.808 540.819 579.276 540.193 579.623Z" fill="white"/>
<path opacity="0.4" d="M540.193 579.623C495.085 605.115 442.438 613.915 391.488 604.479C340.537 595.044 294.538 567.976 261.559 528.024C261.103 527.473 260.762 526.837 260.556 526.152C260.35 525.467 260.283 524.748 260.36 524.037C260.436 523.326 260.654 522.638 261 522.012C261.347 521.387 261.815 520.837 262.378 520.395C264.213 518.956 266.049 517.53 267.885 516.078C299.044 556.421 343.788 584.093 393.811 593.958C481.403 611.118 531.438 582.897 532.587 560.259C533.399 560.348 534.18 560.625 534.867 561.067C535.555 561.509 536.13 562.104 536.548 562.806L542.213 572.271C542.568 572.885 542.797 573.564 542.887 574.267C542.978 574.971 542.927 575.685 542.74 576.369C542.552 577.053 542.23 577.693 541.793 578.251C541.355 578.81 540.812 579.276 540.193 579.623V579.623Z" fill="#3C9FCF"/>
<path d="M540.193 579.623C495.085 605.115 442.438 613.915 391.488 604.479C340.537 595.044 294.538 567.976 261.559 528.024C261.103 527.473 260.762 526.837 260.556 526.152C260.35 525.467 260.283 524.748 260.36 524.037C260.436 523.326 260.654 522.638 261 522.012C261.347 521.387 261.815 520.837 262.378 520.395C264.213 518.956 266.049 517.53 267.885 516.078L271.054 513.597C272.144 512.729 273.532 512.327 274.917 512.478C276.302 512.628 277.572 513.32 278.449 514.402C308.186 550.321 349.605 574.651 395.467 583.142C441.329 591.632 488.718 583.743 529.351 560.853C530.333 560.297 531.467 560.071 532.587 560.206C533.399 560.295 534.18 560.572 534.867 561.014C535.555 561.456 536.13 562.052 536.548 562.754L542.213 572.218C542.576 572.835 542.812 573.517 542.907 574.226C543.002 574.936 542.954 575.656 542.765 576.347C542.577 577.037 542.252 577.682 541.811 578.245C541.369 578.808 540.819 579.276 540.193 579.623Z" stroke="#263238" stroke-linecap="round" stroke-linejoin="round"/>
<path d="M463.153 388.817C463.031 389.456 462.693 390.033 462.195 390.452C461.697 390.87 461.07 391.104 460.419 391.114L459.099 398.321C456.639 400.608 454.981 403.626 454.37 406.928C453.759 410.23 454.227 413.641 455.705 416.656L454.49 423.15C455.099 423.391 455.605 423.835 455.923 424.408C456.24 424.98 456.349 425.645 456.23 426.289C456.112 426.932 455.773 427.515 455.273 427.937C454.772 428.359 454.141 428.594 453.486 428.602L452.641 433.169L452.562 433.592C450.103 435.877 448.446 438.892 447.835 442.192C447.224 445.491 447.691 448.9 449.168 451.913L447.253 462.209C447.782 462.419 448.234 462.783 448.552 463.254C448.87 463.725 449.039 464.281 449.036 464.849C449.049 465.021 449.049 465.193 449.036 465.364C448.917 466.005 448.58 466.586 448.082 467.007C447.584 467.428 446.955 467.664 446.303 467.674L443.899 480.623L426.428 477.389L428.832 464.44C428.304 464.23 427.851 463.866 427.533 463.395C427.215 462.924 427.046 462.368 427.049 461.8C427.036 461.629 427.036 461.457 427.049 461.285C427.166 460.644 427.503 460.064 428.002 459.645C428.501 459.225 429.131 458.993 429.783 458.988L431.684 448.6C434.129 446.317 435.776 443.311 436.385 440.022C436.993 436.734 436.531 433.337 435.065 430.331L436.002 425.315C435.475 425.104 435.023 424.739 434.706 424.269C434.388 423.798 434.218 423.243 434.22 422.675C434.22 422.53 434.22 422.385 434.22 422.24C434.338 421.598 434.676 421.018 435.174 420.597C435.672 420.176 436.301 419.94 436.953 419.93L438.168 413.409C440.614 411.124 442.262 408.115 442.87 404.824C443.479 401.534 443.016 398.135 441.549 395.127L442.869 387.893C442.268 387.648 441.771 387.203 441.459 386.633C441.148 386.064 441.043 385.405 441.16 384.766C441.278 384.128 441.612 383.55 442.106 383.129C442.6 382.708 443.224 382.47 443.873 382.455L445.286 374.812L445.999 370.997L463.509 374.218L462.875 377.637L461.383 385.676C461.998 385.911 462.511 386.354 462.834 386.928C463.158 387.501 463.27 388.17 463.153 388.817V388.817Z" fill="white"/>
<path opacity="0.4" d="M463.153 388.817C463.031 389.456 462.693 390.033 462.195 390.452C461.697 390.87 461.07 391.104 460.419 391.114L459.099 398.321C456.639 400.608 454.981 403.626 454.37 406.928C453.759 410.23 454.227 413.641 455.705 416.656L454.49 423.15C455.099 423.391 455.605 423.835 455.923 424.408C456.24 424.98 456.349 425.645 456.23 426.289C456.112 426.932 455.774 427.515 455.273 427.937C454.773 428.359 454.141 428.594 453.486 428.602L452.641 433.169L439.74 425.83L434.193 422.675C434.193 422.53 434.193 422.385 434.193 422.24C434.312 421.598 434.649 421.018 435.147 420.597C435.646 420.176 436.274 419.94 436.927 419.93L438.142 413.409C440.587 411.124 442.236 408.115 442.844 404.824C443.453 401.534 442.989 398.135 441.522 395.127L442.843 387.893C442.242 387.648 441.744 387.203 441.433 386.633C441.122 386.064 441.016 385.405 441.134 384.766C441.252 384.128 441.586 383.55 442.08 383.129C442.574 382.708 443.197 382.47 443.846 382.455L445.259 374.812L462.809 377.65L461.317 385.689C461.942 385.912 462.468 386.348 462.803 386.92C463.139 387.492 463.263 388.163 463.153 388.817Z" fill="#3C9FCF"/>
<path d="M463.153 388.817C463.031 389.456 462.693 390.033 462.195 390.452C461.697 390.87 461.07 391.104 460.419 391.114L459.099 398.321C456.639 400.608 454.981 403.626 454.37 406.928C453.759 410.23 454.227 413.641 455.705 416.656L454.49 423.15C455.099 423.391 455.605 423.835 455.923 424.408C456.24 424.98 456.349 425.645 456.23 426.289C456.112 426.932 455.773 427.515 455.273 427.937C454.772 428.359 454.141 428.594 453.486 428.602L452.641 433.169L452.562 433.592C450.103 435.877 448.446 438.892 447.835 442.192C447.224 445.491 447.691 448.9 449.168 451.913L447.253 462.209C447.782 462.419 448.234 462.783 448.552 463.254C448.87 463.725 449.039 464.281 449.036 464.849C449.049 465.021 449.049 465.193 449.036 465.364C448.917 466.005 448.58 466.586 448.082 467.007C447.584 467.428 446.955 467.664 446.303 467.674L443.899 480.623L426.428 477.389L428.832 464.44C428.304 464.23 427.851 463.866 427.533 463.395C427.215 462.924 427.046 462.368 427.049 461.8C427.036 461.629 427.036 461.457 427.049 461.285C427.166 460.644 427.503 460.064 428.002 459.645C428.501 459.225 429.131 458.993 429.783 458.988L431.684 448.6C434.129 446.317 435.776 443.311 436.385 440.022C436.993 436.734 436.531 433.337 435.065 430.331L436.002 425.315C435.475 425.104 435.023 424.739 434.706 424.269C434.388 423.798 434.218 423.243 434.22 422.675C434.22 422.53 434.22 422.385 434.22 422.24C434.338 421.598 434.676 421.018 435.174 420.597C435.672 420.176 436.301 419.94 436.953 419.93L438.168 413.409C440.614 411.124 442.262 408.115 442.87 404.824C443.479 401.534 443.016 398.135 441.549 395.127L442.869 387.893C442.268 387.648 441.771 387.203 441.459 386.633C441.148 386.064 441.043 385.405 441.16 384.766C441.278 384.128 441.612 383.55 442.106 383.129C442.6 382.708 443.224 382.47 443.873 382.455L445.286 374.812L445.999 370.997L463.509 374.218L462.875 377.637L461.383 385.676C461.998 385.911 462.511 386.354 462.834 386.928C463.158 387.501 463.27 388.17 463.153 388.817V388.817Z" stroke="#263238" stroke-linecap="round" stroke-linejoin="round"/>
<path d="M442.948 387.88L454.331 389.992" stroke="#263238" stroke-linecap="round" stroke-linejoin="round"/>
<path d="M458.438 390.758L456.973 390.48" stroke="#263238" stroke-linecap="round" stroke-linejoin="round"/>
<path d="M454.477 423.15L440.69 420.603" stroke="#263238" stroke-linecap="round" stroke-linejoin="round"/>
<path d="M439.726 425.817L448.283 427.401" stroke="#263238" stroke-linecap="round" stroke-linejoin="round"/>
<path d="M447.24 462.209L437.732 460.44" stroke="#263238" stroke-linecap="round" stroke-linejoin="round"/>
<path d="M429.769 458.975L433.454 459.648" stroke="#263238" stroke-linecap="round" stroke-linejoin="round"/>
<path d="M408.614 378.719C408.493 379.358 408.155 379.935 407.657 380.354C407.159 380.772 406.531 381.006 405.881 381.016L404.56 388.223C402.063 390.48 400.398 393.512 399.833 396.83C399.441 398.891 399.468 401.01 399.912 403.06C400.16 404.28 400.582 405.458 401.167 406.558L399.965 413.052C400.575 413.293 401.082 413.739 401.399 414.313C401.716 414.886 401.824 415.553 401.704 416.197C401.584 416.842 401.243 417.424 400.74 417.845C400.237 418.266 399.604 418.499 398.948 418.504L398.024 423.494C395.573 425.783 393.92 428.798 393.309 432.096C392.699 435.394 393.161 438.8 394.63 441.815L392.728 452.111C393.254 452.323 393.704 452.688 394.02 453.159C394.335 453.63 394.502 454.185 394.498 454.751C394.511 454.923 394.511 455.095 394.498 455.266C394.379 455.907 394.042 456.488 393.544 456.909C393.045 457.33 392.417 457.566 391.764 457.576L389.374 470.525L371.89 467.291L374.294 454.342C373.765 454.132 373.313 453.768 372.995 453.297C372.677 452.826 372.508 452.27 372.511 451.702C372.498 451.531 372.498 451.359 372.511 451.187C372.63 450.547 372.968 449.968 373.466 449.55C373.965 449.131 374.593 448.898 375.244 448.89L377.159 438.568C379.604 436.285 381.251 433.279 381.86 429.99C382.468 426.702 382.006 423.305 380.54 420.299L381.477 415.283C380.869 415.043 380.362 414.598 380.045 414.026C379.727 413.453 379.618 412.789 379.737 412.145C379.855 411.501 380.194 410.919 380.694 410.497C381.195 410.075 381.826 409.84 382.481 409.832L383.696 403.311C385.791 401.443 387.293 399.001 388.014 396.288C388.176 395.778 388.304 395.258 388.397 394.731C389.057 391.44 388.592 388.023 387.076 385.029L388.397 377.795C387.796 377.549 387.298 377.105 386.987 376.535C386.676 375.966 386.57 375.307 386.688 374.668C386.806 374.03 387.14 373.452 387.634 373.031C388.128 372.61 388.752 372.372 389.401 372.357L390.589 365.968L391.527 360.899L409.011 364.12L408.152 368.78L406.898 375.578C407.501 375.825 408.002 376.272 408.314 376.844C408.627 377.416 408.733 378.078 408.614 378.719Z" fill="white"/>
<path opacity="0.4" d="M408.614 378.719C408.493 379.358 408.155 379.935 407.657 380.354C407.159 380.772 406.531 381.006 405.881 381.016L404.56 388.223C402.063 390.48 400.398 393.512 399.833 396.83C399.441 398.891 399.468 401.01 399.912 403.06L388.027 396.275C388.189 395.765 388.317 395.245 388.41 394.718C389.07 391.427 388.605 388.01 387.09 385.016L388.41 377.782C387.809 377.536 387.312 377.091 387 376.522C386.689 375.952 386.584 375.293 386.701 374.655C386.819 374.017 387.153 373.439 387.647 373.018C388.141 372.597 388.765 372.359 389.414 372.344L390.602 365.955L408.152 368.78L406.898 375.578C407.501 375.825 408.001 376.272 408.314 376.844C408.627 377.416 408.733 378.078 408.614 378.719Z" fill="#3C9FCF"/>
<path d="M408.614 378.719C408.493 379.358 408.155 379.935 407.657 380.354C407.159 380.772 406.531 381.006 405.881 381.016L404.56 388.223C402.063 390.48 400.398 393.512 399.833 396.83C399.441 398.891 399.468 401.01 399.912 403.06C400.16 404.28 400.582 405.458 401.167 406.558L399.965 413.052C400.575 413.293 401.082 413.739 401.399 414.313C401.716 414.886 401.824 415.553 401.704 416.197C401.584 416.842 401.243 417.424 400.74 417.845C400.237 418.266 399.604 418.499 398.948 418.504L398.024 423.494C395.573 425.783 393.92 428.798 393.309 432.096C392.699 435.394 393.161 438.8 394.63 441.815L392.728 452.111C393.254 452.323 393.704 452.688 394.02 453.159C394.335 453.63 394.502 454.185 394.498 454.751C394.511 454.923 394.511 455.095 394.498 455.266C394.379 455.907 394.042 456.488 393.544 456.909C393.045 457.33 392.417 457.566 391.764 457.576L389.374 470.525L371.89 467.291L374.294 454.342C373.765 454.132 373.313 453.768 372.995 453.297C372.677 452.826 372.508 452.27 372.511 451.702C372.498 451.531 372.498 451.359 372.511 451.187C372.63 450.547 372.968 449.968 373.466 449.55C373.965 449.131 374.593 448.898 375.244 448.89L377.159 438.568C379.604 436.285 381.251 433.279 381.86 429.99C382.468 426.702 382.006 423.305 380.54 420.299L381.477 415.283C380.869 415.043 380.362 414.598 380.045 414.026C379.727 413.453 379.618 412.789 379.737 412.145C379.855 411.501 380.194 410.919 380.694 410.497C381.195 410.075 381.826 409.84 382.481 409.832L383.696 403.311C385.791 401.443 387.293 399.001 388.014 396.288C388.176 395.778 388.304 395.258 388.397 394.731C389.057 391.44 388.592 388.023 387.076 385.029L388.397 377.795C387.796 377.549 387.298 377.105 386.987 376.535C386.676 375.966 386.57 375.307 386.688 374.668C386.806 374.03 387.14 373.452 387.634 373.031C388.128 372.61 388.752 372.372 389.401 372.357L390.589 365.968L391.527 360.899L409.011 364.12L408.152 368.78L406.898 375.578C407.501 375.825 408.002 376.272 408.314 376.844C408.627 377.416 408.733 378.078 408.614 378.719Z" stroke="#263238" stroke-linecap="round" stroke-linejoin="round"/>
<path d="M388.41 377.782L399.793 379.894" stroke="#263238" stroke-linecap="round" stroke-linejoin="round"/>
<path d="M403.913 380.66L402.448 380.382" stroke="#263238" stroke-linecap="round" stroke-linejoin="round"/>
<path d="M399.952 413.066L386.152 410.505" stroke="#263238" stroke-linecap="round" stroke-linejoin="round"/>
<path d="M385.188 415.719L393.758 417.303" stroke="#263238" stroke-linecap="round" stroke-linejoin="round"/>
<path d="M392.715 452.111L383.207 450.342" stroke="#263238" stroke-linecap="round" stroke-linejoin="round"/>
<path d="M375.231 448.877L378.916 449.55" stroke="#263238" stroke-linecap="round" stroke-linejoin="round"/>
<path d="M523.845 373.611L519.619 396.394L508.011 394.242L377.12 370.007C373.574 369.353 370.341 367.554 367.917 364.885C365.494 362.217 364.013 358.827 363.703 355.236C363.57 353.76 363.641 352.272 363.914 350.814C364.203 349.274 365.021 347.883 366.226 346.88C367.432 345.878 368.949 345.327 370.517 345.323C370.929 345.323 371.34 345.363 371.745 345.442L523.845 373.611Z" fill="white"/>
<path opacity="0.4" d="M513.756 373.36L508.011 394.269L377.12 370.034C373.574 369.379 370.341 367.58 367.917 364.912C365.494 362.243 364.013 358.854 363.703 355.263L498.16 379.96L513.756 373.36Z" fill="#3C9FCF"/>
<path d="M523.845 373.611L519.619 396.394L508.011 394.242L377.12 370.007C373.574 369.353 370.341 367.554 367.917 364.885C365.494 362.217 364.013 358.827 363.703 355.236C363.57 353.76 363.641 352.272 363.914 350.814C364.203 349.274 365.021 347.883 366.226 346.88C367.432 345.878 368.949 345.327 370.517 345.323C370.929 345.323 371.34 345.363 371.745 345.442L523.845 373.611Z" stroke="#263238" stroke-linecap="round" stroke-linejoin="round"/>
<path d="M589.436 183.386L588.762 185.445L590.281 185.92C591.114 186.193 591.805 186.786 592.202 187.568C592.598 188.35 592.667 189.258 592.394 190.091C592.121 190.924 591.527 191.615 590.745 192.011C589.962 192.407 589.054 192.476 588.221 192.203L586.649 191.688L584.457 198.368C585.269 199.068 585.855 199.992 586.142 201.025C586.429 202.057 586.403 203.152 586.068 204.17C585.733 205.188 585.105 206.084 584.261 206.745C583.417 207.406 582.397 207.803 581.328 207.885L579.149 214.485L580.284 214.854C580.688 214.972 581.064 215.169 581.389 215.434C581.715 215.7 581.983 216.028 582.179 216.4C582.375 216.771 582.494 217.179 582.529 217.597C582.565 218.016 582.515 218.437 582.384 218.836C582.252 219.235 582.042 219.603 581.765 219.919C581.489 220.235 581.151 220.492 580.773 220.675C580.394 220.858 579.983 220.963 579.564 220.983C579.144 221.004 578.724 220.939 578.33 220.794L577.194 220.425L490.91 483.105L474.522 477.719L474.787 476.914L560.82 215.039L559.684 214.656C559.275 214.545 558.892 214.352 558.56 214.088C558.228 213.825 557.952 213.496 557.751 213.123C557.549 212.75 557.426 212.34 557.388 211.917C557.35 211.495 557.398 211.069 557.53 210.666C557.662 210.263 557.874 209.891 558.154 209.572C558.434 209.254 558.776 208.996 559.159 208.813C559.542 208.631 559.958 208.528 560.382 208.512C560.806 208.495 561.229 208.565 561.625 208.716L562.761 209.086L564.953 202.486C564.141 201.786 563.555 200.861 563.268 199.829C562.982 198.796 563.007 197.702 563.342 196.684C563.677 195.666 564.306 194.77 565.149 194.109C565.993 193.447 567.014 193.051 568.083 192.969L570.275 186.29L568.703 185.775C568.291 185.64 567.909 185.424 567.579 185.142C567.249 184.859 566.979 184.514 566.783 184.127C566.586 183.739 566.469 183.317 566.436 182.884C566.403 182.451 566.455 182.016 566.59 181.604C566.726 181.191 566.941 180.809 567.224 180.48C567.507 180.15 567.852 179.88 568.239 179.684C568.627 179.488 569.049 179.37 569.482 179.337C569.915 179.304 570.351 179.356 570.763 179.492L572.335 180.006L573.114 178C572.165 176.034 571.773 173.846 571.98 171.673C572.187 169.5 572.986 167.426 574.29 165.675C575.594 163.924 577.353 162.563 579.376 161.741C581.399 160.919 583.608 160.667 585.765 161.012C586.398 161.105 587.021 161.255 587.627 161.46C589.878 162.166 591.869 163.525 593.345 165.364C594.821 167.204 595.716 169.442 595.916 171.792C596.116 174.142 595.611 176.498 594.466 178.56C593.322 180.623 591.589 182.298 589.489 183.372L589.436 183.386Z" fill="white"/>
<path opacity="0.4" d="M589.436 183.386L588.762 185.445L590.281 185.92C591.114 186.193 591.805 186.786 592.202 187.568C592.598 188.35 592.667 189.258 592.394 190.091C592.121 190.924 591.527 191.615 590.745 192.011C589.962 192.407 589.054 192.476 588.221 192.203L586.649 191.688L584.457 198.368C585.269 199.068 585.855 199.992 586.142 201.025C586.429 202.057 586.403 203.152 586.068 204.17C585.733 205.188 585.105 206.084 584.261 206.745C583.417 207.406 582.397 207.803 581.328 207.885L579.149 214.485L580.284 214.854C580.688 214.972 581.064 215.169 581.389 215.434C581.715 215.7 581.983 216.028 582.179 216.4C582.375 216.771 582.494 217.179 582.529 217.597C582.565 218.016 582.515 218.437 582.384 218.836C582.252 219.235 582.042 219.603 581.765 219.919C581.489 220.235 581.151 220.492 580.773 220.675C580.394 220.858 579.983 220.963 579.564 220.983C579.144 221.004 578.724 220.939 578.33 220.794L577.194 220.425L490.91 483.105L474.522 477.719L474.787 476.914L487.992 469.839L564.583 233.414L569.733 217.97L571.741 211.924L573.919 205.39L576.97 196.229L582.08 180.904L583.176 177.604C587.138 173.327 587.032 166.872 585.633 160.919C586.266 161.012 586.889 161.162 587.495 161.368C589.746 162.073 591.737 163.432 593.213 165.272C594.689 167.112 595.584 169.349 595.784 171.699C595.983 174.049 595.479 176.406 594.334 178.468C593.19 180.53 591.457 182.205 589.357 183.28L589.436 183.386Z" fill="#3C9FCF"/>
<path d="M589.436 183.386L588.762 185.445L590.281 185.92C591.114 186.193 591.805 186.786 592.202 187.568C592.598 188.35 592.667 189.258 592.394 190.091C592.121 190.924 591.527 191.615 590.745 192.011C589.962 192.407 589.054 192.476 588.221 192.203L586.649 191.688L584.457 198.368C585.269 199.068 585.855 199.992 586.142 201.025C586.429 202.057 586.403 203.152 586.068 204.17C585.733 205.188 585.105 206.084 584.261 206.745C583.417 207.406 582.397 207.803 581.328 207.885L579.149 214.485L580.284 214.854C580.688 214.972 581.064 215.169 581.389 215.434C581.715 215.7 581.983 216.028 582.179 216.4C582.375 216.771 582.494 217.179 582.529 217.597C582.565 218.016 582.515 218.437 582.384 218.836C582.252 219.235 582.042 219.603 581.765 219.919C581.489 220.235 581.151 220.492 580.773 220.675C580.394 220.858 579.983 220.963 579.564 220.983C579.144 221.004 578.724 220.939 578.33 220.794L577.194 220.425L490.91 483.105L474.522 477.719L474.787 476.914L560.82 215.039L559.684 214.656C559.275 214.545 558.892 214.352 558.56 214.088C558.228 213.825 557.952 213.496 557.751 213.123C557.549 212.75 557.426 212.34 557.388 211.917C557.35 211.495 557.398 211.069 557.53 210.666C557.662 210.263 557.874 209.891 558.154 209.572C558.434 209.254 558.776 208.996 559.159 208.813C559.542 208.631 559.958 208.528 560.382 208.512C560.806 208.495 561.229 208.565 561.625 208.716L562.761 209.086L564.953 202.486C564.141 201.786 563.555 200.861 563.268 199.829C562.982 198.796 563.007 197.702 563.342 196.684C563.677 195.666 564.306 194.77 565.149 194.109C565.993 193.447 567.014 193.051 568.083 192.969L570.275 186.29L568.703 185.775C568.291 185.64 567.909 185.424 567.579 185.142C567.249 184.859 566.979 184.514 566.783 184.127C566.586 183.739 566.469 183.317 566.436 182.884C566.403 182.451 566.455 182.016 566.59 181.604C566.726 181.191 566.941 180.809 567.224 180.48C567.507 180.15 567.852 179.88 568.239 179.684C568.627 179.488 569.049 179.37 569.482 179.337C569.915 179.304 570.351 179.356 570.763 179.492L572.335 180.006L573.114 178C572.165 176.034 571.773 173.846 571.98 171.673C572.187 169.5 572.986 167.426 574.29 165.675C575.594 163.924 577.353 162.563 579.376 161.741C581.399 160.919 583.608 160.667 585.765 161.012C586.398 161.105 587.021 161.255 587.627 161.46C589.878 162.166 591.869 163.525 593.345 165.364C594.821 167.204 595.716 169.442 595.916 171.792C596.116 174.142 595.611 176.498 594.466 178.56C593.322 180.623 591.589 182.298 589.489 183.372L589.436 183.386Z" stroke="#263238" stroke-linecap="round" stroke-linejoin="round"/>
<path d="M573.061 178.013L584.787 181.868" stroke="#263238" stroke-linecap="round" stroke-linejoin="round"/>
<path d="M586.702 191.728L579.822 189.471" stroke="#263238" stroke-linecap="round" stroke-linejoin="round"/>
<path d="M570.328 186.356L574.118 187.596" stroke="#263238" stroke-linecap="round" stroke-linejoin="round"/>
<path d="M571.807 194.619L584.391 198.75" stroke="#263238" stroke-linecap="round" stroke-linejoin="round"/>
<path d="M565.006 202.552L577.947 206.789" stroke="#263238" stroke-linecap="round" stroke-linejoin="round"/>
<path d="M577.247 220.517L569.06 217.824" stroke="#263238" stroke-linecap="round" stroke-linejoin="round"/>
<path d="M568.717 211.013L572.348 212.201" stroke="#263238" stroke-linecap="round" stroke-linejoin="round"/>
<path d="M560.873 215.145L564.662 216.386" stroke="#263238" stroke-linecap="round" stroke-linejoin="round"/>
<path d="M503.125 484.161L502.676 486.59L501.171 494.694C500.886 496.213 500.009 497.556 498.734 498.43C497.459 499.303 495.89 499.636 494.37 499.354L333.08 469.496C332.327 469.357 331.608 469.072 330.966 468.656C330.323 468.241 329.769 467.702 329.335 467.072C328.901 466.442 328.595 465.732 328.436 464.984C328.276 464.236 328.266 463.463 328.405 462.711L329.276 457.985L330.359 452.177C330.497 451.425 330.783 450.707 331.199 450.065C331.615 449.422 332.153 448.868 332.784 448.434C333.414 448 334.124 447.695 334.873 447.535C335.621 447.376 336.394 447.365 337.147 447.504L498.411 477.363C499.168 477.498 499.891 477.781 500.538 478.197C501.185 478.612 501.744 479.151 502.182 479.782C502.62 480.414 502.929 481.126 503.091 481.878C503.253 482.629 503.264 483.405 503.125 484.161V484.161Z" fill="white"/>
<path opacity="0.4" d="M502.637 486.59L501.131 494.694C500.846 496.213 499.97 497.556 498.695 498.43C497.42 499.303 495.85 499.636 494.331 499.354L333.08 469.496C332.327 469.357 331.608 469.072 330.966 468.656C330.323 468.241 329.769 467.702 329.335 467.072C328.901 466.442 328.595 465.732 328.436 464.984C328.276 464.236 328.266 463.463 328.405 462.711L329.276 457.985L495.361 490.84L502.637 486.59Z" fill="#3C9FCF"/>
<path d="M503.125 484.161L502.676 486.59L501.171 494.694C500.886 496.213 500.009 497.556 498.734 498.43C497.459 499.303 495.89 499.636 494.37 499.354L333.08 469.496C332.327 469.357 331.608 469.072 330.966 468.656C330.323 468.241 329.769 467.702 329.335 467.072C328.901 466.442 328.595 465.732 328.436 464.984C328.276 464.236 328.266 463.463 328.405 462.711L329.276 457.985L330.359 452.177C330.497 451.425 330.783 450.707 331.199 450.065C331.615 449.422 332.153 448.868 332.784 448.434C333.414 448 334.124 447.695 334.873 447.535C335.621 447.376 336.394 447.365 337.147 447.504L498.411 477.363C499.168 477.498 499.891 477.781 500.538 478.197C501.185 478.612 501.744 479.151 502.182 479.782C502.62 480.414 502.929 481.126 503.091 481.878C503.253 482.629 503.264 483.405 503.125 484.161V484.161Z" stroke="#263238" stroke-linecap="round" stroke-linejoin="round"/>
</svg>
