<svg width="357" height="192" viewBox="0 0 357 192" fill="none" xmlns="http://www.w3.org/2000/svg">
<path d="M110.264 65.9972C106.658 64.0198 105.02 65.661 103.712 64.0198C102.404 62.3786 107.318 58.0217 97.4902 53.6846C97.4902 53.6846 96.8427 44.3447 83.4017 44.0086C69.9606 43.6724 73.5734 53.3221 69.9671 55.6554C66.3608 57.9887 65.3831 54.3372 61.7768 56.6573C58.1705 58.9774 59.8345 63.6639 56.8627 64.3296C53.8909 64.9953 49.9803 61.3305 46.3805 63.6705C42.7807 66.0104 42.7742 68.0075 41.1361 68.0075C39.4981 68.0075 36.222 66.6893 34.2602 68.0075C32.2984 69.3258 30 71 30 71H112.874C112.874 71 113.871 68.001 110.264 65.9972Z" fill="white" stroke="#999999" stroke-linecap="round" stroke-linejoin="round"/>
<path d="M61 64C60.6784 64.3835 60.3442 64.7177 60 65L61 64Z" fill="white"/>
<path d="M61 64C60.6784 64.3835 60.3442 64.7177 60 65" stroke="#999999" stroke-linecap="round" stroke-linejoin="round"/>
<path d="M79 49C78.1783 49.3602 77.455 49.9112 76.8905 50.6068C76.3259 51.3025 75.9364 52.1227 75.7546 52.999C75.1574 55.995 73.7554 57.9945 72.1521 58.1757C70.5489 58.3569 64.5448 57.7939 63.5647 59.994C63.2949 60.6372 63.1053 61.3108 63 62" fill="white"/>
<path d="M79 49C78.1783 49.3602 77.455 49.9112 76.8905 50.6068C76.3259 51.3025 75.9364 52.1227 75.7546 52.999C75.1574 55.995 73.7554 57.9945 72.1521 58.1757C70.5489 58.3569 64.5448 57.7939 63.5647 59.994C63.2949 60.6372 63.1053 61.3108 63 62" stroke="#999999" stroke-linecap="round" stroke-linejoin="round"/>
<path opacity="0.2" d="M81.5458 82.4927L115.785 88.0376L171.731 80.3232L213.442 91.4009L255.516 82.014L294.525 156.625L231.658 171.46L171.331 165.242L100.823 171.89L56.3787 154.164L81.5458 82.4927Z" fill="black"/>
<path d="M71.8619 51.9386L109.628 58.0532L171.349 49.5449L217.356 61.7619L263.77 51.4053L306.808 133.718L237.458 150.08L170.907 143.22L93.1265 150.553L44.1011 131.003L71.8619 51.9386Z" fill="white" stroke="#263238" stroke-linecap="round" stroke-linejoin="round"/>
<path d="M79.0431 57.2529L108.543 62.5675L171.01 54.5986L218.32 65.7612L259.255 56.4591L294.349 130.712L235.137 145.438L171.337 139.317L93.6598 144.705L56.5544 128.252L79.0431 57.2529Z" fill="#D4FDE9" stroke="#263238" stroke-linecap="round" stroke-linejoin="round"/>
<g opacity="0.64">
<path d="M247.069 90.0918L224.198 96.0791H217.241C217.241 96.0791 226.192 104.696 243.42 106.351C260.649 108.005 264.63 104.696 264.63 104.696L247.069 90.0918Z" fill="white"/>
<path d="M147.648 59.9375L132.401 63.2523L130.414 68.5548L140.025 66.5671L137.704 78.4932L148.975 77.1721L150.963 63.5796L147.648 59.9375Z" fill="white"/>
<path d="M138.037 80.4806L137.043 86.4497L143.673 85.1225V80.1533L138.037 80.4806Z" fill="white"/>
<path d="M134.062 80.4805L132.735 87.1101L119.809 88.7706L120.142 84.1286L134.062 80.4805Z" fill="white"/>
<path d="M210.436 109.981C204.121 109.981 199.001 113.242 199.001 117.253C199.001 121.265 204.121 124.525 210.436 124.525C216.75 124.525 221.871 121.259 221.871 117.253C221.871 113.248 216.763 109.981 210.436 109.981ZM210.436 120.58C207.564 120.58 205.236 119.102 205.236 117.272C205.236 115.442 207.564 113.957 210.436 113.957C213.308 113.957 215.648 115.472 215.648 117.29C215.648 119.108 213.321 120.58 210.436 120.58Z" fill="white"/>
<path d="M119.809 136.16L128.759 114.283L108.877 115.283L105.889 122.901H115.167L108.21 138.808L119.809 136.16Z" fill="white"/>
<path d="M158.253 88.4376L171.506 85.4561L188.741 90.7586L175.482 93.0735L171.84 90.092L158.253 92.7462V88.4376Z" fill="white"/>
<path d="M158.914 75.845L159.247 84.4623L165.21 83.1352L164.216 75.5117L158.914 75.845Z" fill="white"/>
<path d="M76.3948 80.4805L71.0923 95.7274L92.6356 101.363L95.9504 89.4311L86.6725 80.8138L76.3948 80.4805Z" fill="white"/>
</g>
<path d="M289.822 121.126L281.247 112.642C282.726 112.454 284.156 112.248 285.525 112.036L284.453 109.757C282.738 110.012 280.938 110.254 279.059 110.472L253.498 85.1717C260.292 84.1596 266.745 83.287 271.678 82.778L270.581 80.463C265.249 81.0327 258.461 81.972 251.468 83.0264L251.541 82.584L250.723 82.4568L241.712 73.5365L261.946 62.1012L260.91 59.9075L239.942 71.7609L230.973 62.889L228.174 63.495L246.675 81.7962L187.832 72.5911C187.547 71.9427 187.263 71.2943 187.002 70.6277C185.32 66.3563 184.014 61.946 183.099 57.4472L180.494 56.8412C181.451 61.8305 182.871 66.7198 184.736 71.4458L185.026 72.1548L171.24 69.9914L157.011 71.2337L156.502 56.4473L154.078 56.7563L155.405 97.2068C154.581 97.2068 153.757 97.2068 152.981 97.1705C130.589 96.522 106.404 89.9894 102.822 88.038C100.398 86.6988 94.9445 80.3903 92.0418 76.8089C97.9745 76.4998 103.713 75.6999 107.107 73.9364C111.761 71.5124 122.772 65.1191 132.232 59.5439L126.123 60.3257C118.045 65.0585 109.834 69.7974 105.998 71.7851C99.132 75.3484 80.7459 74.6091 73.686 74.1728L72.9285 76.5604C75.5586 76.7361 80.152 76.9785 85.2424 76.9785C86.4544 76.9785 87.7573 76.9785 89.036 76.9301C89.945 78.0815 97.9139 88.1168 101.665 90.1651C105.416 92.2134 129.765 98.9218 152.914 99.5884C153.767 99.6126 154.633 99.6248 155.514 99.6248L155.696 105.158L137.171 105.697L136.892 105.6L136.855 105.703L100.059 106.776L66.0868 98.1704L65.3535 100.485L86.2787 105.776L66.8867 132.821L69.1531 133.821L88.8239 106.418L99.8167 109.2L136.013 108.145L125.475 137.894L113.094 143.348L120.233 142.857L171.331 120.362L207.794 100.831C211.944 103.598 216.422 105.837 221.126 107.497C225.393 108.993 229.751 110.217 234.173 111.163L228.828 121.859L206.8 142.742L210 143.045L230.652 123.471L230.804 123.325L236.633 111.666C242.77 112.83 248.984 113.542 255.225 113.799L250.317 141.675L252.892 141.039L257.704 113.866C258.971 113.896 260.225 113.92 261.467 113.92C267.049 113.914 272.626 113.609 278.175 113.005L292.858 127.549L289.822 121.126ZM128.517 136.567L138.589 108.085L155.775 107.594L156.326 124.337L128.517 136.567ZM245.087 84.0385C231.028 86.2564 217.605 88.6562 214.684 89.2379L212.26 89.7288C209.666 90.2681 205.624 91.1105 200.716 92.0316C195.878 87.1442 191.916 81.4621 189.002 75.2333L245.087 84.0385ZM157.108 73.6577L171.137 72.4457L186.129 74.7969C189.057 81.3346 193.053 87.3393 197.952 92.5649C189.711 94.0617 179.53 95.6736 169.61 96.5523L169.507 96.4008L169.228 96.5887C165.35 96.922 161.52 97.1462 157.859 97.1947L157.108 73.6577ZM157.956 99.5945C160.308 99.5581 162.732 99.449 165.186 99.2915L158.108 104.067L157.956 99.5945ZM170.331 118.15L158.732 123.253L158.199 106.933L170.076 98.9157C180.693 97.9583 191.559 96.1887 200.055 94.6131C201.799 96.2782 203.647 97.8307 205.588 99.2612L170.331 118.15ZM221.95 105.17C214.94 102.754 208.474 98.9814 202.922 94.0677C207.073 93.2739 210.484 92.5649 212.775 92.0861L215.157 91.5953C219.484 90.7287 235.397 87.9593 250.505 85.6262L275.957 110.793C260.655 112.266 241.021 111.908 221.95 105.17Z" fill="white" stroke="#263238" stroke-linecap="round" stroke-linejoin="round"/>
<path d="M97.2775 123.841L93.3931 146.566" stroke="#263238" stroke-linecap="round" stroke-linejoin="round"/>
<path d="M108.016 60.9736L98.0654 119.222" stroke="#263238" stroke-linecap="round" stroke-linejoin="round"/>
<path d="M170.846 51.9814L171.179 75.5124" stroke="#263238" stroke-linecap="round" stroke-linejoin="round"/>
<path d="M219.884 79.8994L233.482 137.154" stroke="#263238" stroke-linecap="round" stroke-linejoin="round"/>
<path d="M216.248 64.5732L219.235 77.1659" stroke="#263238" stroke-linecap="round" stroke-linejoin="round"/>
<path d="M171.506 141.463L171.179 127.543" stroke="#263238" stroke-linecap="round" stroke-linejoin="round"/>
<path d="M247.043 31.4215C251.384 30.3906 254.067 26.0362 253.036 21.6956C252.005 17.355 247.651 14.6719 243.31 15.7028C238.969 16.7336 236.286 21.0881 237.317 25.4287C238.348 29.7693 242.703 32.4524 247.043 31.4215Z" fill="#263238"/>
<path d="M249.081 22.8266C249.082 21.979 248.831 21.15 248.361 20.4447C247.891 19.7393 247.223 19.1892 246.44 18.864C245.657 18.5388 244.795 18.4531 243.964 18.6177C243.133 18.7824 242.369 19.1899 241.769 19.7889C241.169 20.3878 240.76 21.1512 240.594 21.9825C240.429 22.8137 240.513 23.6755 240.837 24.4587C241.161 25.242 241.711 25.9115 242.415 26.3825C243.12 26.8535 243.949 27.105 244.796 27.105C245.931 27.105 247.02 26.6544 247.824 25.8522C248.627 25.0501 249.079 23.9619 249.081 22.8266Z" stroke="white" stroke-width="2" stroke-linecap="round" stroke-linejoin="round"/>
<path d="M247.729 26.2021L250.432 28.6807" stroke="white" stroke-width="2" stroke-linecap="round" stroke-linejoin="round"/>
<path d="M225.022 32.45H96.1868C95.0337 32.45 93.892 32.2226 92.8269 31.7808C91.7619 31.3389 90.7944 30.6914 89.9799 29.8752C89.1654 29.059 88.5199 28.0902 88.0802 27.0242C87.6406 25.9583 87.4156 24.816 87.418 23.663C87.4156 22.5099 87.6406 21.3677 88.0802 20.3017C88.5199 19.2357 89.1654 18.2669 89.9799 17.4507C90.7944 16.6345 91.7619 15.987 92.8269 15.5452C93.892 15.1034 95.0337 14.876 96.1868 14.876H225.022C226.176 14.8752 227.318 15.102 228.384 15.5435C229.45 15.9849 230.418 16.6323 231.233 17.4486C232.048 18.2649 232.694 19.2339 233.134 20.3003C233.574 21.3667 233.8 22.5094 233.797 23.663C233.8 24.8166 233.574 25.9593 233.134 27.0256C232.694 28.092 232.048 29.0611 231.233 29.8774C230.418 30.6936 229.45 31.341 228.384 31.7825C227.318 32.224 226.176 32.4508 225.022 32.45Z" fill="white" stroke="#263238" stroke-linecap="round" stroke-linejoin="round"/>
<path d="M87.4786 74.6699C86.7388 74.6699 86.0062 74.8157 85.3228 75.099C84.6394 75.3823 84.0185 75.7976 83.4957 76.321C82.9728 76.8444 82.5582 77.4657 82.2757 78.1495C81.9931 78.8332 81.8481 79.5659 81.8489 80.3057C81.8489 83.4145 87.4786 89.2139 87.4786 89.2139C87.4786 89.2139 93.1144 83.4145 93.1144 80.3057C93.1144 78.811 92.5207 77.3775 91.4637 76.3206C90.4068 75.2637 88.9733 74.6699 87.4786 74.6699ZM87.4786 82.5479C87.1008 82.5479 86.7315 82.4358 86.4175 82.2258C86.1034 82.0158 85.8588 81.7173 85.7145 81.3681C85.5702 81.019 85.5327 80.6348 85.6069 80.2644C85.681 79.8939 85.8634 79.5538 86.131 79.2871C86.3986 79.0204 86.7393 78.839 87.1099 78.7661C87.4806 78.6931 87.8646 78.7318 88.2133 78.8772C88.562 79.0226 88.8597 79.2682 89.0688 79.5829C89.2778 79.8976 89.3887 80.2673 89.3875 80.6451C89.3843 81.1493 89.1818 81.6317 88.8241 81.987C88.4665 82.3424 87.9828 82.5419 87.4786 82.5419V82.5479Z" fill="#263238" stroke="#263238" stroke-linecap="round" stroke-linejoin="round"/>
<path d="M145.958 48.6123C145.218 48.6123 144.485 48.7581 143.802 49.0414C143.118 49.3247 142.498 49.74 141.975 50.2634C141.452 50.7868 141.037 51.4081 140.755 52.0918C140.472 52.7756 140.327 53.5083 140.328 54.2481C140.328 57.3569 145.958 63.1563 145.958 63.1563C145.958 63.1563 151.593 57.3569 151.593 54.2481C151.593 52.7534 151 51.3199 149.943 50.263C148.886 49.2061 147.452 48.6123 145.958 48.6123ZM145.958 56.4903C145.58 56.4903 145.211 56.3782 144.896 56.1682C144.582 55.9582 144.338 55.6597 144.193 55.3105C144.049 54.9613 144.012 54.5772 144.086 54.2068C144.16 53.8363 144.342 53.4962 144.61 53.2295C144.878 52.9627 145.218 52.7814 145.589 52.7084C145.96 52.6355 146.344 52.6741 146.692 52.8196C147.041 52.965 147.339 53.2106 147.548 53.5253C147.757 53.84 147.868 54.2097 147.867 54.5875C147.863 55.0916 147.661 55.5741 147.303 55.9294C146.946 56.2848 146.462 56.4843 145.958 56.4842V56.4903Z" fill="#263238" stroke="#263238" stroke-linecap="round" stroke-linejoin="round"/>
<path d="M136.419 88.2988C135.679 88.298 134.947 88.4431 134.263 88.7256C133.579 89.0082 132.958 89.4227 132.435 89.9456C131.911 90.4684 131.496 91.0893 131.213 91.7728C130.929 92.4562 130.783 93.1887 130.783 93.9286C130.783 97.0434 136.419 102.837 136.419 102.837C136.419 102.837 142.049 97.0434 142.049 93.9286C142.049 92.4355 141.456 91.0035 140.4 89.9477C139.344 88.892 137.912 88.2988 136.419 88.2988ZM136.419 96.1768C136.043 96.1768 135.676 96.0655 135.363 95.857C135.051 95.6484 134.807 95.3519 134.662 95.0049C134.518 94.658 134.48 94.276 134.552 93.9072C134.625 93.5384 134.805 93.1994 135.07 92.9328C135.334 92.6662 135.672 92.484 136.041 92.4092C136.409 92.3344 136.791 92.3704 137.139 92.5125C137.487 92.6547 137.785 92.8967 137.996 93.208C138.206 93.5193 138.32 93.886 138.322 94.2619C138.322 94.7665 138.122 95.2505 137.765 95.6074C137.408 95.9642 136.924 96.1647 136.419 96.1647V96.1768Z" fill="#263238" stroke="#263238" stroke-linecap="round" stroke-linejoin="round"/>
<path d="M249.438 84.6631C248.698 84.6623 247.966 84.8073 247.282 85.0899C246.598 85.3725 245.977 85.787 245.454 86.3099C244.93 86.8327 244.515 87.4536 244.232 88.137C243.948 88.8204 243.802 89.553 243.802 90.2928C243.802 93.4077 249.438 99.201 249.438 99.201C249.438 99.201 255.068 93.4077 255.068 90.2928C255.068 88.7997 254.475 87.3678 253.419 86.312C252.363 85.2562 250.931 84.6631 249.438 84.6631ZM249.438 92.5411C249.062 92.5411 248.695 92.4298 248.382 92.2212C248.07 92.0127 247.826 91.7162 247.681 91.3692C247.537 91.0222 247.499 90.6402 247.571 90.2715C247.644 89.9027 247.824 89.5636 248.089 89.297C248.353 89.0304 248.691 88.8482 249.06 88.7735C249.428 88.6987 249.81 88.7346 250.158 88.8768C250.506 89.019 250.804 89.261 251.015 89.5723C251.225 89.8836 251.339 90.2503 251.341 90.6261C251.341 91.1308 251.141 91.6148 250.784 91.9716C250.427 92.3285 249.943 92.529 249.438 92.529V92.5411Z" fill="#263238" stroke="#263238" stroke-linecap="round" stroke-linejoin="round"/>
<path d="M184.899 102.54C184.159 102.539 183.427 102.684 182.743 102.967C182.059 103.249 181.438 103.664 180.914 104.187C180.391 104.71 179.976 105.331 179.693 106.014C179.409 106.697 179.263 107.43 179.263 108.17C179.263 111.285 184.899 117.078 184.899 117.078C184.899 117.078 190.529 111.285 190.529 108.17C190.529 107.43 190.383 106.698 190.1 106.015C189.818 105.332 189.403 104.712 188.88 104.189C188.357 103.666 187.737 103.251 187.054 102.969C186.371 102.686 185.639 102.54 184.899 102.54ZM184.899 110.418C184.523 110.418 184.156 110.307 183.843 110.098C183.531 109.89 183.287 109.593 183.142 109.246C182.998 108.899 182.96 108.517 183.032 108.148C183.105 107.78 183.285 107.441 183.549 107.174C183.814 106.907 184.152 106.725 184.521 106.65C184.889 106.576 185.271 106.612 185.619 106.754C185.967 106.896 186.265 107.138 186.476 107.449C186.686 107.761 186.8 108.127 186.802 108.503C186.802 109.008 186.602 109.492 186.245 109.849C185.888 110.205 185.404 110.406 184.899 110.406V110.418Z" fill="#263238" stroke="#263238" stroke-linecap="round" stroke-linejoin="round"/>
<path d="M208.533 53.7568C207.793 53.756 207.061 53.9011 206.377 54.1836C205.693 54.4662 205.072 54.8808 204.549 55.4036C204.025 55.9265 203.61 56.5473 203.327 57.2308C203.043 57.9142 202.897 58.6468 202.897 59.3866C202.897 62.5014 208.533 68.2948 208.533 68.2948C208.533 68.2948 214.163 62.5014 214.163 59.3866C214.163 57.8935 213.57 56.4615 212.514 55.4058C211.458 54.35 210.026 53.7568 208.533 53.7568ZM208.533 61.6348C208.157 61.6348 207.79 61.5235 207.477 61.315C207.165 61.1064 206.921 60.8099 206.776 60.463C206.632 60.116 206.594 59.734 206.666 59.3652C206.739 58.9964 206.919 58.6574 207.184 58.3908C207.448 58.1242 207.786 57.942 208.155 57.8672C208.523 57.7924 208.905 57.8284 209.253 57.9705C209.601 58.1127 209.899 58.3547 210.11 58.666C210.32 58.9774 210.434 59.3441 210.436 59.7199C210.436 60.2245 210.236 60.7085 209.879 61.0654C209.522 61.4222 209.038 61.6227 208.533 61.6227V61.6348Z" fill="#263238" stroke="#263238" stroke-linecap="round" stroke-linejoin="round"/>
<path d="M353.264 34.9972C349.658 33.0198 348.02 34.661 346.712 33.0198C345.404 31.3786 350.318 27.0217 340.49 22.6846C340.49 22.6846 339.843 13.3447 326.402 13.0086C312.961 12.6724 316.573 22.3221 312.967 24.6554C309.361 26.9887 308.383 23.3372 304.777 25.6573C301.171 27.9774 302.834 32.6639 299.863 33.3296C296.891 33.9953 292.98 30.3305 289.38 32.6705C285.781 35.0104 285.774 37.0075 284.136 37.0075C282.498 37.0075 279.222 35.6893 277.26 37.0075C275.298 38.3258 273 40 273 40H355.874C355.874 40 356.871 37.001 353.264 34.9972Z" fill="white" stroke="#999999" stroke-linecap="round" stroke-linejoin="round"/>
<path d="M304 33C303.678 33.3835 303.344 33.7177 303 34L304 33Z" fill="white"/>
<path d="M304 33C303.678 33.3835 303.344 33.7177 303 34" stroke="#999999" stroke-linecap="round" stroke-linejoin="round"/>
<path d="M322 18C321.178 18.3602 320.455 18.9112 319.89 19.6068C319.326 20.3025 318.936 21.1227 318.755 21.999C318.157 24.995 316.755 26.9945 315.152 27.1757C313.549 27.3569 307.545 26.7939 306.565 28.994C306.295 29.6372 306.105 30.3108 306 31" fill="white"/>
<path d="M322 18C321.178 18.3602 320.455 18.9112 319.89 19.6068C319.326 20.3025 318.936 21.1227 318.755 21.999C318.157 24.995 316.755 26.9945 315.152 27.1757C313.549 27.3569 307.545 26.7939 306.565 28.994C306.295 29.6372 306.105 30.3108 306 31" stroke="#999999" stroke-linecap="round" stroke-linejoin="round"/>
<path d="M319.264 173.997C315.658 172.02 314.02 173.661 312.712 172.02C311.404 170.379 316.318 166.022 306.49 161.685C306.49 161.685 305.843 152.345 292.402 152.009C278.961 151.672 282.573 161.322 278.967 163.655C275.361 165.989 274.383 162.337 270.777 164.657C267.171 166.977 268.834 171.664 265.863 172.33C262.891 172.995 258.98 169.331 255.38 171.67C251.781 174.01 251.774 176.008 250.136 176.008C248.498 176.008 245.222 174.689 243.26 176.008C241.298 177.326 239 179 239 179H321.874C321.874 179 322.871 176.001 319.264 173.997Z" fill="white" stroke="#999999" stroke-linecap="round" stroke-linejoin="round"/>
<path d="M270 172C269.678 172.383 269.344 172.718 269 173L270 172Z" fill="white"/>
<path d="M270 172C269.678 172.383 269.344 172.718 269 173" stroke="#999999" stroke-linecap="round" stroke-linejoin="round"/>
<path d="M288 157C287.178 157.36 286.455 157.911 285.89 158.607C285.326 159.303 284.936 160.123 284.755 160.999C284.157 163.995 282.755 165.995 281.152 166.176C279.549 166.357 273.545 165.794 272.565 167.994C272.295 168.637 272.105 169.311 272 170" fill="white"/>
<path d="M288 157C287.178 157.36 286.455 157.911 285.89 158.607C285.326 159.303 284.936 160.123 284.755 160.999C284.157 163.995 282.755 165.995 281.152 166.176C279.549 166.357 273.545 165.794 272.565 167.994C272.295 168.637 272.105 169.311 272 170" stroke="#999999" stroke-linecap="round" stroke-linejoin="round"/>
<path d="M81.2644 142.997C77.6581 141.02 76.02 142.661 74.7122 141.02C73.4043 139.379 78.3185 135.022 68.4902 130.685C68.4902 130.685 67.8427 121.345 54.4017 121.009C40.9606 120.672 44.5734 130.322 40.9671 132.655C37.3608 134.989 36.3831 131.337 32.7768 133.657C29.1705 135.977 30.8345 140.664 27.8627 141.33C24.8909 141.995 20.9803 138.331 17.3805 140.67C13.7807 143.01 13.7742 145.008 12.1361 145.008C10.4981 145.008 7.22199 143.689 5.26022 145.008C3.29845 146.326 1 148 1 148H83.8736C83.8736 148 84.8707 145.001 81.2644 142.997Z" fill="white" stroke="#999999" stroke-linecap="round" stroke-linejoin="round"/>
<path d="M32 141C31.6784 141.383 31.3442 141.718 31 142L32 141Z" fill="white"/>
<path d="M32 141C31.6784 141.383 31.3442 141.718 31 142" stroke="#999999" stroke-linecap="round" stroke-linejoin="round"/>
<path d="M50 126C49.1783 126.36 48.455 126.911 47.8905 127.607C47.3259 128.303 46.9364 129.123 46.7546 129.999C46.1574 132.995 44.7554 134.995 43.1521 135.176C41.5489 135.357 35.5448 134.794 34.5647 136.994C34.2949 137.637 34.1053 138.311 34 139" fill="white"/>
<path d="M50 126C49.1783 126.36 48.455 126.911 47.8905 127.607C47.3259 128.303 46.9364 129.123 46.7546 129.999C46.1574 132.995 44.7554 134.995 43.1521 135.176C41.5489 135.357 35.5448 134.794 34.5647 136.994C34.2949 137.637 34.1053 138.311 34 139" stroke="#999999" stroke-linecap="round" stroke-linejoin="round"/>
</svg>
