<svg width="751" height="751" viewBox="0 0 751 751" fill="none" xmlns="http://www.w3.org/2000/svg">
<path d="M631.876 197.062C594.567 141.789 539.098 93.5295 474.257 72.4865C451.857 65.3101 428.859 60.1527 405.54 57.076C228.304 33.044 127.67 139.686 100.634 210.28C85.1635 250.669 99.868 295.759 111.524 335.081C121.842 369.913 147.031 422.888 133.678 459.612C115.654 509.178 90.1201 578.27 166.722 612.816C243.324 647.362 306.648 670.282 429.572 626.334C552.496 582.385 622.97 538.197 659.288 473.22C708.253 385.623 687.571 279.567 631.876 197.062Z" fill="#3C9FCF"/>
<path opacity="0.7" d="M631.876 197.062C594.567 141.789 539.098 93.5295 474.257 72.4865C451.857 65.3101 428.859 60.1527 405.54 57.076C228.304 33.044 127.67 139.686 100.634 210.28C85.1635 250.669 99.868 295.759 111.524 335.081C121.842 369.913 147.031 422.888 133.678 459.612C115.654 509.178 90.1201 578.27 166.722 612.816C243.324 647.362 306.648 670.283 429.572 626.334C552.496 582.385 622.97 538.197 659.288 473.22C708.253 385.623 687.571 279.567 631.876 197.062Z" fill="#D4EFFC"/>
<path d="M216.604 92.0426H78.9903L77.1729 114.257H216.604V92.0426Z" stroke="#808080" stroke-linecap="round" stroke-linejoin="round"/>
<path d="M216.604 114.257H78.9903L77.1729 136.487H216.604V114.257Z" stroke="#808080" stroke-linecap="round" stroke-linejoin="round"/>
<path d="M216.604 136.487H78.9903L77.1729 158.716H216.604V136.487Z" stroke="#808080" stroke-linecap="round" stroke-linejoin="round"/>
<path d="M216.604 158.716H78.9903L77.1729 180.946H216.604V158.716Z" stroke="#808080" stroke-linecap="round" stroke-linejoin="round"/>
<path d="M216.604 180.946H78.9903L77.1729 203.161H216.604V180.946Z" stroke="#808080" stroke-linecap="round" stroke-linejoin="round"/>
<path d="M216.604 203.161H78.9903L77.1729 225.39H216.604V203.161Z" stroke="#808080" stroke-linecap="round" stroke-linejoin="round"/>
<path d="M216.604 225.39H78.9903L77.1729 247.62H216.604V225.39Z" stroke="#808080" stroke-linecap="round" stroke-linejoin="round"/>
<path d="M216.604 247.62H78.9903L77.1729 269.834H216.604V247.62Z" stroke="#808080" stroke-linecap="round" stroke-linejoin="round"/>
<path d="M216.604 269.834H78.9903L77.1729 292.064H216.604V269.834Z" stroke="#808080" stroke-linecap="round" stroke-linejoin="round"/>
<path d="M216.604 292.064H78.9903L77.1729 314.294H216.604V292.064Z" stroke="#808080" stroke-linecap="round" stroke-linejoin="round"/>
<path d="M216.604 314.293H78.9903L77.1729 336.508H216.604V314.293Z" stroke="#808080" stroke-linecap="round" stroke-linejoin="round"/>
<path d="M216.604 336.508H78.9903L77.1729 358.738H216.604V336.508Z" stroke="#808080" stroke-linecap="round" stroke-linejoin="round"/>
<path d="M216.604 358.738H78.9903L77.1729 380.967H216.604V358.738Z" stroke="#808080" stroke-linecap="round" stroke-linejoin="round"/>
<path d="M216.604 380.967H78.9903L77.1729 403.197H216.604V380.967Z" stroke="#808080" stroke-linecap="round" stroke-linejoin="round"/>
<path d="M216.604 403.197H78.9903L77.1729 425.411H216.604V403.197Z" stroke="#808080" stroke-linecap="round" stroke-linejoin="round"/>
<path d="M358.077 92.0426H220.464L218.646 114.257H358.077V92.0426Z" stroke="#808080" stroke-linecap="round" stroke-linejoin="round"/>
<path d="M358.077 114.257H220.464L218.646 136.487H358.077V114.257Z" stroke="#808080" stroke-linecap="round" stroke-linejoin="round"/>
<path d="M358.077 136.487H220.464L218.646 158.716H358.077V136.487Z" stroke="#808080" stroke-linecap="round" stroke-linejoin="round"/>
<path d="M358.077 158.716H220.464L218.646 180.946H358.077V158.716Z" stroke="#808080" stroke-linecap="round" stroke-linejoin="round"/>
<path d="M358.077 180.946H220.464L218.646 203.161H358.077V180.946Z" stroke="#808080" stroke-linecap="round" stroke-linejoin="round"/>
<path d="M358.077 203.161H220.464L218.646 225.39H358.077V203.161Z" stroke="#808080" stroke-linecap="round" stroke-linejoin="round"/>
<path d="M358.077 225.39H220.464L218.646 247.62H358.077V225.39Z" stroke="#808080" stroke-linecap="round" stroke-linejoin="round"/>
<path d="M358.077 247.62H220.464L218.646 269.834H358.077V247.62Z" stroke="#808080" stroke-linecap="round" stroke-linejoin="round"/>
<path d="M358.077 269.834H220.464L218.646 292.064H358.077V269.834Z" stroke="#808080" stroke-linecap="round" stroke-linejoin="round"/>
<path d="M358.077 292.064H220.464L218.646 314.294H358.077V292.064Z" stroke="#808080" stroke-linecap="round" stroke-linejoin="round"/>
<path d="M358.077 314.293H220.464L218.646 336.508H358.077V314.293Z" stroke="#808080" stroke-linecap="round" stroke-linejoin="round"/>
<path d="M358.077 336.508H220.464L218.646 358.738H358.077V336.508Z" stroke="#808080" stroke-linecap="round" stroke-linejoin="round"/>
<path d="M358.077 358.738H220.464L218.646 380.967H358.077V358.738Z" stroke="#808080" stroke-linecap="round" stroke-linejoin="round"/>
<path d="M358.077 380.967H220.464L218.646 403.197H358.077V380.967Z" stroke="#808080" stroke-linecap="round" stroke-linejoin="round"/>
<path d="M358.077 403.197H220.464L218.646 425.411H358.077V403.197Z" stroke="#808080" stroke-linecap="round" stroke-linejoin="round"/>
<path d="M364.971 74.8296H73.9585V91.592H364.971V74.8296Z" stroke="#808080" stroke-linecap="round" stroke-linejoin="round"/>
<path d="M364.971 91.592V386.87" stroke="#808080" stroke-linecap="round" stroke-linejoin="round"/>
<path d="M361.802 92.0726V294.662" stroke="#808080" stroke-linecap="round" stroke-linejoin="round"/>
<path d="M367.029 386.224H363.124V393.749H367.029V386.224Z" fill="#263238" stroke="#808080" stroke-linecap="round" stroke-linejoin="round"/>
<path d="M363.499 293.04H359.594V300.565H363.499V293.04Z" fill="#263238" stroke="#808080" stroke-linecap="round" stroke-linejoin="round"/>
<path d="M156.208 404.564C156.208 404.564 137.733 394.305 136.367 417.556C135 440.807 131.575 591.923 131.575 591.923" stroke="#263238" stroke-width="2" stroke-linecap="round" stroke-linejoin="round"/>
<path d="M126.784 419.599C126.784 419.599 141.804 453.108 135 589.88" stroke="#263238" stroke-width="2" stroke-linecap="round" stroke-linejoin="round"/>
<path d="M141.578 409.25C141.578 409.25 134.504 413.756 130.494 408.589C126.483 403.422 133.212 393.93 127.264 389.874C121.316 385.819 111.148 392.022 111.148 392.022C111.148 392.022 119.033 394.335 118.778 398.646C118.523 402.957 114.723 404.654 114.272 402.701C113.821 400.749 109.991 391.331 103.578 395.281C101.731 396.374 100.124 397.828 98.8542 399.558C97.5842 401.287 96.6773 403.256 96.1879 405.345C96.1879 405.345 111.118 403.753 112.019 409.37C112.92 414.988 105.906 408.379 99.7477 408.018C93.5895 407.658 87.972 408.559 88.3775 412.299C88.5139 415.59 88.3177 418.886 87.7917 422.137C91.1635 419.337 95.4254 417.835 99.8077 417.901C106.582 418.307 106.326 422.618 100.168 422.257C94.01 421.897 88.6178 427.74 88.6178 427.74C88.6178 427.74 94.2353 437.337 101.37 442.084C108.504 446.83 111.073 445.088 111.884 441.468C112.695 437.848 110.802 428.43 115.113 428.686C119.424 428.941 107.979 444.937 113.476 445.884C118.973 446.83 123.404 445.238 124.846 441.618L126.348 437.998C126.348 437.998 124.426 428.611 125.267 424.961C126.108 421.311 127.114 425.066 128.09 429.467C129.067 433.868 129.683 444.382 131.56 443.871C133.438 443.36 139.461 435.7 140.872 432.696C142.284 429.692 132.942 420.485 133.047 418.637C133.152 416.79 140.362 420.305 141.488 422.227C142.615 424.15 143.696 426.733 143.696 426.733C143.696 426.733 148.202 423.909 148.082 415.258C147.962 406.606 141.578 409.25 141.578 409.25Z" fill="#41C2A6"/>
<path opacity="0.3" d="M141.578 409.25C141.578 409.25 134.504 413.756 130.494 408.589C126.483 403.422 133.212 393.93 127.264 389.874C121.316 385.819 111.148 392.022 111.148 392.022C111.148 392.022 119.033 394.335 118.778 398.646C118.523 402.957 114.723 404.654 114.272 402.701C113.821 400.749 109.991 391.331 103.578 395.281C101.731 396.374 100.124 397.828 98.8542 399.558C97.5842 401.287 96.6773 403.256 96.1879 405.345C96.1879 405.345 111.118 403.753 112.019 409.37C112.92 414.988 105.906 408.379 99.7477 408.018C93.5895 407.658 87.972 408.559 88.3775 412.299C88.5139 415.59 88.3177 418.886 87.7917 422.137C91.1635 419.337 95.4254 417.835 99.8077 417.901C106.582 418.307 106.326 422.618 100.168 422.257C94.01 421.897 88.6178 427.74 88.6178 427.74C88.6178 427.74 94.2353 437.337 101.37 442.084C108.504 446.83 111.073 445.088 111.884 441.468C112.695 437.848 110.802 428.43 115.113 428.686C119.424 428.941 107.979 444.937 113.476 445.884C118.973 446.83 123.404 445.238 124.846 441.618L126.348 437.998C126.348 437.998 124.426 428.611 125.267 424.961C126.108 421.311 127.114 425.066 128.09 429.467C129.067 433.868 129.683 444.382 131.56 443.871C133.438 443.36 139.461 435.7 140.872 432.696C142.284 429.692 132.942 420.485 133.047 418.637C133.152 416.79 140.362 420.305 141.488 422.227C142.615 424.15 143.696 426.733 143.696 426.733C143.696 426.733 148.202 423.909 148.082 415.258C147.962 406.606 141.578 409.25 141.578 409.25Z" fill="#263238"/>
<path d="M105.771 429.572C110.367 423.879 117.156 416.174 122.848 412.494" stroke="#263238" stroke-linecap="round" stroke-linejoin="round"/>
<path d="M100.424 436.466C100.424 436.466 101.61 434.829 103.533 432.366" stroke="#263238" stroke-linecap="round" stroke-linejoin="round"/>
<path d="M125.853 413.876C125.853 413.876 132.702 423.549 133.963 433.507" stroke="#263238" stroke-linecap="round" stroke-linejoin="round"/>
<path d="M118.102 419.599C118.102 419.599 120.025 418.472 119.304 430.789" stroke="#263238" stroke-linecap="round" stroke-linejoin="round"/>
<path d="M123.164 408.153C123.164 408.153 127.069 404.684 125.011 397.76" stroke="#263238" stroke-linecap="round" stroke-linejoin="round"/>
<path d="M117.817 414.026L115.023 408.919" stroke="#263238" stroke-linecap="round" stroke-linejoin="round"/>
<path d="M111.944 419.238C111.944 419.238 103.082 412.539 97.5398 412.209" stroke="#263238" stroke-linecap="round" stroke-linejoin="round"/>
<path d="M166.722 391.001C166.722 391.001 166.451 401.154 158.521 401.65C150.59 402.145 145.694 388.928 137.583 392.112C129.472 395.296 128.691 409.776 128.691 409.776C128.691 409.776 136.381 403.452 140.527 406.636C144.672 409.821 143.711 414.747 141.473 413.966C139.235 413.185 127.174 410.497 126.769 419.599C126.6 422.194 126.959 424.796 127.824 427.248C128.689 429.7 130.042 431.952 131.8 433.868C131.8 433.868 140.377 417.841 146.61 420.77C152.843 423.699 141.458 426.223 136.907 432.14C132.356 438.058 129.397 444.292 133.437 446.439C136.827 448.545 139.997 450.986 142.9 453.724C142.386 448.453 143.777 443.173 146.82 438.839C151.837 432.336 155.983 435.535 151.416 441.438C146.85 447.341 149.148 456.608 149.148 456.608C149.148 456.608 162.576 457.524 172.189 453.604C181.802 449.684 181.862 445.974 178.768 442.639C175.674 439.305 164.964 434.844 168.164 430.698C171.363 426.553 179.579 448.918 184.265 444.051C188.951 439.185 190.378 433.672 187.75 429.767L185.106 425.847C185.106 425.847 174.412 421.341 171.318 418.037C168.224 414.732 172.685 416.264 177.731 418.277C182.778 420.29 193.758 426.853 194.539 424.615C195.32 422.377 191.73 411.097 189.672 407.673C187.615 404.248 172.054 407.297 170.282 405.931C168.509 404.564 176.935 399.742 179.624 399.923C181.64 400.09 183.646 400.366 185.632 400.749C185.632 400.749 185.872 394.32 177.131 388.537C168.389 382.755 166.722 391.001 166.722 391.001Z" fill="#41C2A6"/>
<path opacity="0.2" d="M166.722 391.001C166.722 391.001 166.451 401.154 158.521 401.65C150.59 402.145 145.694 388.928 137.583 392.112C129.472 395.296 128.691 409.776 128.691 409.776C128.691 409.776 136.381 403.452 140.527 406.636C144.672 409.821 143.711 414.747 141.473 413.966C139.235 413.185 127.174 410.497 126.769 419.599C126.6 422.194 126.959 424.796 127.824 427.248C128.689 429.7 130.042 431.952 131.8 433.868C131.8 433.868 140.377 417.841 146.61 420.77C152.843 423.699 141.458 426.223 136.907 432.14C132.356 438.058 129.397 444.292 133.437 446.439C136.827 448.545 139.997 450.986 142.9 453.724C142.386 448.453 143.777 443.173 146.82 438.839C151.837 432.336 155.983 435.535 151.416 441.438C146.85 447.341 149.148 456.608 149.148 456.608C149.148 456.608 162.576 457.524 172.189 453.604C181.802 449.684 181.862 445.974 178.768 442.639C175.674 439.305 164.964 434.844 168.164 430.698C171.363 426.553 179.579 448.918 184.265 444.051C188.951 439.185 190.378 433.672 187.75 429.767L185.106 425.847C185.106 425.847 174.412 421.341 171.318 418.037C168.224 414.732 172.685 416.264 177.731 418.277C182.778 420.29 193.758 426.853 194.539 424.615C195.32 422.377 191.73 411.097 189.672 407.673C187.615 404.248 172.054 407.297 170.282 405.931C168.509 404.564 176.935 399.742 179.624 399.923C181.64 400.09 183.646 400.366 185.632 400.749C185.632 400.749 185.872 394.32 177.131 388.537C168.389 382.755 166.722 391.001 166.722 391.001Z" fill="#263238"/>
<path d="M162.651 440.672C160.098 432.186 157.004 420.139 157.199 411.939" stroke="#263238" stroke-linecap="round" stroke-linejoin="round"/>
<path d="M165.956 450.75C165.956 450.75 165.115 448.437 163.958 444.847" stroke="#263238" stroke-linecap="round" stroke-linejoin="round"/>
<path d="M160.714 409.896C160.714 409.896 175.058 409.64 185.887 415.153" stroke="#263238" stroke-linecap="round" stroke-linejoin="round"/>
<path d="M161.119 421.551C161.119 421.551 161.3 418.863 173.135 427.98" stroke="#263238" stroke-linecap="round" stroke-linejoin="round"/>
<path d="M153.069 408.754C153.069 408.754 152.258 402.461 143.922 399.817" stroke="#263238" stroke-linecap="round" stroke-linejoin="round"/>
<path d="M155.337 418.037L148.323 417.346" stroke="#263238" stroke-linecap="round" stroke-linejoin="round"/>
<path d="M156.553 427.469C156.553 427.469 143.802 431.78 139.686 437.082" stroke="#263238" stroke-linecap="round" stroke-linejoin="round"/>
<path d="M81.6636 458.591C81.6636 458.591 122.007 485.251 121.316 588.514" stroke="#263238" stroke-width="2" stroke-linecap="round" stroke-linejoin="round"/>
<path d="M131.41 451.546C131.41 451.546 130.118 463.232 120.896 463.052C111.674 462.871 107.318 447.16 97.6298 450.074C87.9419 452.988 85.7039 469.6 85.7039 469.6C85.7039 469.6 95.1816 463.022 99.6575 467.107C104.133 471.192 102.571 476.765 100.063 475.653C97.5547 474.542 83.9015 470.291 82.5497 480.76C82.1178 483.74 82.2944 486.776 83.0689 489.685C83.8434 492.595 85.1996 495.317 87.0557 497.688C87.0557 497.688 98.4709 480.009 105.38 483.974C112.289 487.94 98.9215 489.787 93.1088 496.186C87.2961 502.584 83.3308 509.493 87.7467 512.347C91.466 515.098 94.898 518.218 97.9903 521.66C97.9903 521.66 97.5247 511.897 103.998 504.852C110.472 497.808 114.873 501.848 109.06 508.292C103.247 514.735 104.899 525.7 104.899 525.7C104.899 525.7 120.325 528.028 131.785 524.423C143.246 520.818 143.651 516.523 140.392 512.407C137.132 508.292 125.222 502.104 129.292 497.628C133.362 493.152 140.737 519.692 146.61 514.495C152.483 509.298 154.646 503.095 151.972 498.319L149.299 493.542C149.299 493.542 137.373 487.369 134.128 483.238C130.884 479.108 135.871 481.331 141.518 484.125C147.166 486.918 159.197 495.525 160.293 493.031C161.39 490.538 158.326 477.2 156.298 473.01C154.27 468.819 135.991 470.907 134.068 469.165C132.146 467.422 142.329 462.661 145.423 463.157C147.716 463.539 149.987 464.04 152.228 464.659C152.228 464.659 153.099 457.269 143.561 449.759C134.023 442.249 131.41 451.546 131.41 451.546Z" fill="#41C2A6"/>
<path opacity="0.3" d="M131.41 451.546C131.41 451.546 130.118 463.232 120.896 463.052C111.674 462.871 107.318 447.16 97.6298 450.074C87.9419 452.988 85.7039 469.6 85.7039 469.6C85.7039 469.6 95.1816 463.022 99.6575 467.107C104.133 471.192 102.571 476.765 100.063 475.653C97.5547 474.542 83.9015 470.291 82.5497 480.76C82.1178 483.74 82.2944 486.776 83.0689 489.685C83.8434 492.595 85.1996 495.317 87.0557 497.688C87.0557 497.688 98.4709 480.009 105.38 483.974C112.289 487.94 98.9215 489.787 93.1088 496.186C87.2961 502.584 83.3308 509.493 87.7467 512.347C91.466 515.098 94.898 518.218 97.9903 521.66C97.9903 521.66 97.5247 511.897 103.998 504.852C110.472 497.808 114.873 501.848 109.06 508.292C103.247 514.735 104.899 525.7 104.899 525.7C104.899 525.7 120.325 528.028 131.785 524.423C143.246 520.818 143.651 516.523 140.392 512.407C137.132 508.292 125.222 502.104 129.292 497.628C133.362 493.152 140.737 519.692 146.61 514.495C152.483 509.298 154.646 503.095 151.972 498.319L149.299 493.542C149.299 493.542 137.373 487.369 134.128 483.238C130.884 479.108 135.871 481.331 141.518 484.125C147.166 486.918 159.197 495.525 160.293 493.031C161.39 490.538 158.326 477.2 156.298 473.01C154.27 468.819 135.991 470.907 134.068 469.165C132.146 467.422 142.329 462.661 145.423 463.157C147.716 463.539 149.987 464.04 152.228 464.659C152.228 464.659 153.099 457.269 143.561 449.759C134.023 442.249 131.41 451.546 131.41 451.546Z" fill="#263238"/>
<path d="M122.007 508.487C119.845 498.439 117.501 484.245 118.418 474.797" stroke="#263238" stroke-linecap="round" stroke-linejoin="round"/>
<path d="M124.861 520.413C124.861 520.413 124.11 517.679 123.104 513.414" stroke="#263238" stroke-linecap="round" stroke-linejoin="round"/>
<path d="M122.608 472.77C122.608 472.77 139.13 473.821 151.146 481.211" stroke="#263238" stroke-linecap="round" stroke-linejoin="round"/>
<path d="M122.022 486.258C122.022 486.258 122.488 483.178 135.285 494.819" stroke="#263238" stroke-linecap="round" stroke-linejoin="round"/>
<path d="M113.942 470.727C113.942 470.727 113.596 463.397 104.239 459.552" stroke="#263238" stroke-linecap="round" stroke-linejoin="round"/>
<path d="M115.684 481.661L107.663 480.204" stroke="#263238" stroke-linecap="round" stroke-linejoin="round"/>
<path d="M116.21 492.656C116.21 492.656 101.085 496.441 95.8425 502.194" stroke="#263238" stroke-linecap="round" stroke-linejoin="round"/>
<path d="M97.3896 539.954C97.3896 539.954 123.374 559.795 126.168 589.189L120.701 490.718" stroke="#263238" stroke-width="2" stroke-linecap="round" stroke-linejoin="round"/>
<path d="M160.293 525.595C126.168 519.437 126.168 589.19 126.168 589.19" stroke="#263238" stroke-width="2" stroke-linecap="round" stroke-linejoin="round"/>
<path d="M130.208 588.514C130.208 588.514 110.382 444.232 167.758 444.232" stroke="#263238" stroke-width="2" stroke-linecap="round" stroke-linejoin="round"/>
<path d="M147.271 521.449C142.6 516.192 132.672 516.192 126.844 529.62C121.016 543.048 126.258 540.72 126.258 540.72C126.258 540.72 137.343 537.22 144.282 534.877C151.221 532.534 160.714 526.706 161.285 530.206C161.855 533.706 156.613 537.22 150.185 538.377C143.756 539.533 126.844 544.22 128.586 547.719C130.328 551.219 134.429 561.748 134.429 561.748C139.424 557.511 144.692 553.607 150.2 550.062C157.8 545.391 162.471 547.058 158.371 552.391C154.27 557.723 142.615 563.49 144.943 570.49C147.271 577.489 161.3 586.246 161.3 586.246C161.3 586.246 163.042 571.661 167.127 566.99C171.213 562.319 171.228 567.576 170.056 575.747C169.47 579.227 169.079 582.737 168.885 586.261L185.226 592.103C187.899 588.034 190.824 584.137 193.983 580.433L196.987 577.504C196.987 577.504 184.145 566.419 183.559 559.405C182.973 552.391 192.316 559.405 195.23 560.576C198.144 561.748 202.815 569.919 202.815 569.919C202.815 569.919 205.744 556.491 206.33 551.82L206.9 547.149C206.9 547.149 194.644 542.477 189.973 542.477C185.302 542.477 182.973 545.977 182.973 541.321C182.973 536.665 187.645 533.721 192.902 534.306C197.653 535.103 202.333 536.273 206.9 537.806C206.9 537.806 210.415 534.892 209.243 526.136C208.072 517.379 205.158 517.379 198.144 519.707C191.129 522.035 186.473 527.307 181.216 527.307C175.959 527.307 178.888 520.879 182.388 519.136C185.887 517.394 194.644 513.879 196.401 513.293C198.159 512.708 187.059 504.537 181.216 503.365C175.373 502.194 167.818 506.369 168.374 512.122C169.455 524.363 151.942 526.706 147.271 521.449Z" fill="#41C2A6"/>
<path d="M184.851 581.559C185.031 583.322 185.151 585.079 185.212 586.831" stroke="#263238" stroke-linecap="round" stroke-linejoin="round"/>
<path d="M173.12 539.654C178.251 551.215 181.943 563.361 184.115 575.822" stroke="#263238" stroke-linecap="round" stroke-linejoin="round"/>
<path d="M171.018 534.967C168.134 528.749 165.956 524.949 165.956 524.949C169.142 523.448 171.79 521.005 173.541 517.95C174.904 515.181 176.906 512.776 179.384 510.935" stroke="#263238" stroke-linecap="round" stroke-linejoin="round"/>
<path d="M145.514 544.805C145.514 544.805 166.542 536.049 166.542 537.791" stroke="#263238" stroke-linecap="round" stroke-linejoin="round"/>
<path d="M178.212 533.706C178.212 533.706 187.555 529.034 195.725 529.034" stroke="#263238" stroke-linecap="round" stroke-linejoin="round"/>
<path d="M174.713 547.719C170.661 551.05 166.943 554.767 163.613 558.819C160.205 562.841 157.447 567.372 155.442 572.247" stroke="#263238" stroke-linecap="round" stroke-linejoin="round"/>
<path d="M181.126 550.062C181.126 550.062 193.382 546.548 199.811 552.391" stroke="#263238" stroke-linecap="round" stroke-linejoin="round"/>
<path d="M203.341 471.177C196.987 467.422 189.958 467.332 186.503 463.367C183.049 459.402 189.823 457.359 193.442 458.861C197.062 460.363 205.458 464.674 207.036 465.605C208.613 466.536 207.531 452.823 204.587 447.581C201.643 442.339 193.578 439.395 189.567 443.631C181.066 452.553 167.833 440.852 168.735 433.883C169.636 426.913 163.132 419.418 149.209 423.804C135.285 428.19 140.452 430.638 140.452 430.638C140.452 430.638 150.365 436.722 156.719 440.477C163.072 444.232 173.616 447.461 171.348 450.194C169.08 452.928 162.997 451.261 157.83 447.19C152.663 443.12 138.184 433.462 136.682 437.082C135.18 440.702 129.923 450.675 129.923 450.675C136.393 451.667 142.791 453.087 149.073 454.926C157.575 457.599 159.317 462.271 152.663 462.631C146.009 462.992 133.963 458.005 130.133 464.358C126.303 470.712 128.947 487.039 128.947 487.039C128.947 487.039 141.113 478.793 147.316 478.808C153.519 478.823 149.554 482.277 142.615 486.753C139.605 488.59 136.702 490.596 133.918 492.761L140.227 508.938C145.051 508.284 149.912 507.933 154.781 507.886L158.896 508.187C158.896 508.187 158.896 491.214 163.763 486.182C168.629 481.151 169.501 492.791 170.537 495.765C171.573 498.739 168.449 507.616 168.449 507.616C168.449 507.616 180.465 501.022 184.415 498.394L188.321 495.78C188.321 495.78 183.815 483.449 180.811 479.934C177.807 476.419 173.586 476.93 177.101 473.926C180.615 470.922 185.902 472.424 188.906 476.84C191.411 480.931 193.586 485.215 195.41 489.652C195.41 489.652 199.916 490.388 205.759 483.764C211.602 477.14 209.694 474.932 203.341 471.177ZM148.082 489.862C143.426 487.519 154.511 482.863 154.511 482.863C158.596 482.277 152.753 492.19 148.082 489.862ZM155.953 468.068C153.97 467.077 159.933 465.064 159.933 465.064C168.569 466.747 157.95 469.06 155.953 468.068Z" fill="#41C2A6"/>
<path d="M147.962 501.758C146.745 503.035 145.499 504.281 144.222 505.483" stroke="#263238" stroke-linecap="round" stroke-linejoin="round"/>
<path d="M171.919 465.425C166.554 476.879 159.799 487.629 151.807 497.432" stroke="#263238" stroke-linecap="round" stroke-linejoin="round"/>
<path d="M174.082 460.769C176.891 454.505 178.317 450.375 178.317 450.375C181.546 451.791 185.13 452.189 188.591 451.516C191.572 450.728 194.697 450.662 197.708 451.321" stroke="#263238" stroke-linecap="round" stroke-linejoin="round"/>
<path d="M169.005 459.237C170.327 458.08 149.929 447.956 149.929 447.956" stroke="#263238" stroke-linecap="round" stroke-linejoin="round"/>
<path d="M179.744 465.365C179.744 465.365 189.387 469.36 194.764 475.533" stroke="#263238" stroke-linecap="round" stroke-linejoin="round"/>
<path d="M166.872 471.913C161.704 471.037 156.462 470.664 151.221 470.802C145.949 470.868 140.72 471.755 135.721 473.43" stroke="#263238" stroke-linecap="round" stroke-linejoin="round"/>
<path d="M169.32 478.297C169.32 478.297 180 485.251 179.834 493.933" stroke="#263238" stroke-linecap="round" stroke-linejoin="round"/>
<path d="M112.65 552.06C107.543 549.056 101.881 548.981 99.1319 545.782C96.3833 542.582 101.79 540.975 104.704 542.177C107.618 543.379 114.362 546.863 115.654 547.614C116.946 548.365 116.044 537.31 113.671 533.15C111.298 528.989 104.809 526.571 101.58 529.966C94.7461 537.145 84.0819 527.743 84.8029 522.125C85.5238 516.508 80.2969 510.485 69.0619 514.014C57.8269 517.544 62.0175 519.512 62.0175 519.512C62.0175 519.512 69.9931 524.408 75.115 527.442C80.2368 530.476 88.633 533.06 86.8756 535.253C85.1183 537.446 80.1617 536.124 76.0612 532.835C71.9608 529.545 60.2001 521.72 58.9835 524.634C57.7669 527.547 53.5613 535.568 53.5613 535.568C58.7675 536.371 63.9154 537.515 68.9718 538.993C75.8059 541.141 77.2027 544.896 71.8556 545.196C66.5085 545.496 56.8356 541.456 53.8316 546.578C50.8276 551.7 52.8854 564.827 52.8854 564.827C52.8854 564.827 62.6784 558.188 67.665 558.203C72.6517 558.218 69.4674 560.997 63.895 564.602C61.4706 566.085 59.129 567.7 56.8807 569.438L61.9574 582.446C65.8414 581.924 69.7543 581.648 73.673 581.619L76.9925 581.845C76.9925 581.845 76.9925 568.192 80.8977 564.136C84.8029 560.081 85.5238 569.468 86.3499 571.856C87.176 574.245 84.6827 581.394 84.6827 581.394C84.6827 581.394 94.3856 576.077 97.5248 573.974L100.679 571.856C100.679 571.856 97.0442 561.943 94.5809 559.104C92.1176 556.266 88.7531 556.701 91.5769 554.238C94.4006 551.775 98.6513 553.066 101.07 556.566C103.095 559.878 104.857 563.343 106.342 566.93C106.342 566.93 109.961 567.531 114.663 562.199C119.364 556.867 117.742 555.094 112.65 552.06ZM68.1907 567.08C64.4357 565.188 73.3576 561.433 73.3576 561.433C76.6019 560.997 71.9157 568.988 68.1607 567.11L68.1907 567.08ZM74.5142 549.537C72.922 548.726 77.7284 547.134 77.7284 547.134C84.6376 548.5 76.0913 550.363 74.4841 549.567L74.5142 549.537Z" fill="#41C2A6"/>
<path d="M68.0555 576.678C67.0792 577.714 66.0879 578.706 65.0515 579.682" stroke="#263238" stroke-linecap="round" stroke-linejoin="round"/>
<path d="M87.3411 547.434C83.0274 556.652 77.5943 565.304 71.1646 573.193" stroke="#263238" stroke-linecap="round" stroke-linejoin="round"/>
<path d="M89.0835 543.724C91.3365 538.677 92.493 535.358 92.493 535.358C95.0899 536.494 97.9712 536.814 100.754 536.274C103.15 535.64 105.664 535.588 108.084 536.124" stroke="#263238" stroke-linecap="round" stroke-linejoin="round"/>
<path d="M69.6477 533.375C69.6477 533.375 86.0646 541.531 84.9981 542.462" stroke="#263238" stroke-linecap="round" stroke-linejoin="round"/>
<path d="M93.6345 547.389C93.6345 547.389 101.4 550.603 105.651 555.575" stroke="#263238" stroke-linecap="round" stroke-linejoin="round"/>
<path d="M83.2709 552.736C79.114 552.033 74.8985 551.736 70.6841 551.85C66.4432 551.897 62.2362 552.612 58.2175 553.968" stroke="#263238" stroke-linecap="round" stroke-linejoin="round"/>
<path d="M85.2383 557.798C85.2383 557.798 93.8447 563.4 93.6795 570.384" stroke="#263238" stroke-linecap="round" stroke-linejoin="round"/>
<path d="M91.7721 455.662C91.7721 455.662 85.3435 460.333 81.2581 455.662C77.1727 450.991 83.0154 441.648 77.1727 438.148C71.3299 434.649 61.9874 441.152 61.9874 441.152C61.9874 441.152 69.5876 442.895 69.5876 446.98C69.5876 451.066 66.0729 452.823 65.5021 451.066C64.9314 449.308 60.8309 440.552 54.9881 444.652C53.3021 445.784 51.8631 447.246 50.7582 448.95C49.6532 450.654 48.9053 452.564 48.5596 454.565C48.5596 454.565 62.5732 452.237 63.7448 457.569C64.9163 462.901 57.902 456.984 52.0742 456.984C46.2465 456.984 40.9745 458.155 41.5602 461.655C41.8782 464.761 41.8782 467.891 41.5602 470.997C44.5844 468.166 48.5213 466.509 52.66 466.326C59.0736 466.326 59.0736 470.411 53.2308 470.411C47.388 470.411 42.7168 476.254 42.7168 476.254C42.7168 476.254 48.5445 485.011 55.5589 489.096C62.5732 493.182 64.9013 491.424 65.4871 487.925C66.0729 484.425 63.7298 475.668 67.8152 475.668C71.9006 475.668 61.9724 491.424 67.2294 492.01C72.4864 492.596 76.5719 490.839 77.7434 487.339L78.915 483.839C78.915 483.839 76.5719 475.083 77.1576 471.583C77.7434 468.083 78.915 471.583 80.0715 475.668C81.2281 479.754 82.4146 489.667 84.157 489.096C85.8993 488.526 91.1713 480.91 92.3429 477.996C93.5144 475.083 84.1119 466.762 84.1119 465.004C84.1119 463.247 91.1262 466.176 92.2978 467.918C93.4694 469.66 94.6259 472.004 94.6259 472.004C94.6259 472.004 98.7113 469.09 98.1256 460.919C97.5398 452.748 91.7721 455.662 91.7721 455.662Z" fill="#41C2A6"/>
<path d="M59.0586 476.84C63.099 471.207 69.0769 463.547 74.2588 459.747" stroke="#263238" stroke-linecap="round" stroke-linejoin="round"/>
<path d="M54.4023 483.644C54.4023 483.644 55.4237 482.022 57.1059 479.589" stroke="#263238" stroke-linecap="round" stroke-linejoin="round"/>
<path d="M77.1726 460.919C77.1726 460.919 84.1719 469.675 85.9293 479.018" stroke="#263238" stroke-linecap="round" stroke-linejoin="round"/>
<path d="M70.1733 466.762C70.1733 466.762 71.9157 465.59 71.9157 477.276" stroke="#263238" stroke-linecap="round" stroke-linejoin="round"/>
<path d="M74.2588 455.662C74.2588 455.662 77.7584 452.162 75.4153 445.734" stroke="#263238" stroke-linecap="round" stroke-linejoin="round"/>
<path d="M69.5876 461.505L66.6587 456.833" stroke="#263238" stroke-linecap="round" stroke-linejoin="round"/>
<path d="M64.3306 466.762C64.3306 466.762 55.5739 460.919 50.3169 460.919" stroke="#263238" stroke-linecap="round" stroke-linejoin="round"/>
<path d="M150.726 586.456H105.591V651.417H150.726V586.456Z" fill="#263238" stroke="#263238" stroke-width="2" stroke-linecap="round" stroke-linejoin="round"/>
<path d="M691.581 74.7545H394.621V645.004H691.581V74.7545Z" stroke="#808080" stroke-linecap="round" stroke-linejoin="round"/>
<path d="M647.362 198.159H595.603V426.568H647.362V198.159Z" stroke="#808080" stroke-linecap="round" stroke-linejoin="round"/>
<path d="M675.9 363.484H660.189V426.568H675.9V363.484Z" stroke="#808080" stroke-linecap="round" stroke-linejoin="round"/>
<path d="M702.936 645.004H46.4268" stroke="#263238" stroke-linecap="round" stroke-linejoin="round"/>
<path d="M728.41 645.004H714.952" stroke="#263238" stroke-linecap="round" stroke-linejoin="round"/>
<path d="M469.375 704.438C523.709 704.438 567.756 696.368 567.756 686.414C567.756 676.46 523.709 668.39 469.375 668.39C415.041 668.39 370.994 676.46 370.994 686.414C370.994 696.368 415.041 704.438 469.375 704.438Z" fill="#263238" stroke="#263238" stroke-width="2" stroke-linecap="round" stroke-linejoin="round"/>
<path d="M452.387 193.321C449.859 192.607 447.586 191.191 445.831 189.237C444.077 187.283 442.912 184.871 442.474 182.281C440.416 172.864 457.944 170.16 465.379 165.218C472.814 160.277 488.57 159.676 499.925 161.644C511.28 163.611 526.3 168.658 530.025 176.769C533.75 184.88 540.795 201.311 539.698 211.525C539.102 218.711 536.911 225.674 533.285 231.907C530.942 235.873 532.459 239.417 533.014 241.46C533.57 243.503 532.399 243.698 529.259 247.949C526.12 252.199 525.579 253.686 515.351 252.59C505.122 251.493 501.442 246.492 498.829 242.752C496.215 239.012 490.523 223.857 485.912 216.842C481.301 209.828 480.264 201.672 472.799 196.28C465.334 190.888 461.114 190.422 452.387 193.321Z" fill="#E2E2E2" stroke="#B0B0B0" stroke-linecap="round" stroke-linejoin="round"/>
<path d="M406.727 661.09C406.727 661.09 404.864 669.922 401.139 674.113C397.414 678.303 389.514 685.273 392.773 691.311C396.032 697.349 414.161 703.867 424.856 700.142C435.55 696.417 434.619 686.624 440.191 682.013C445.764 677.402 447.701 674.113 445.313 665.731C442.925 657.35 430.428 648.999 422.062 647.137C413.696 645.274 406.727 661.09 406.727 661.09Z" fill="white" stroke="#263238" stroke-linecap="round" stroke-linejoin="round"/>
<path d="M442.985 678.288C440.657 680.616 436.015 682.944 433.687 686.204C431.359 689.463 429.497 696.432 424.39 696.432C419.283 696.432 412.764 692.242 409.505 689.448C406.246 686.654 402.07 689.448 399.276 691.311C397.87 692.231 396.405 693.058 394.891 693.789C400.899 698.941 415.618 703.357 424.855 700.142C435.55 696.432 434.619 686.624 440.191 682.013C443 679.67 444.862 677.687 445.733 675.224C444.712 676.441 443.706 677.567 442.985 678.288Z" fill="#3C9FCF" stroke="#263238" stroke-linecap="round" stroke-linejoin="round"/>
<path d="M522.981 649.615C522.981 649.615 524.904 658.792 528.764 663.133C532.624 667.474 540.78 674.728 537.461 681.007C534.141 687.285 515.246 694.044 504.146 690.169C493.047 686.294 494.008 676.17 488.15 671.394C482.292 666.618 480.43 663.178 482.848 654.497C485.266 645.815 498.289 637.118 506.985 635.181C515.682 633.243 522.981 649.615 522.981 649.615Z" fill="white" stroke="#263238" stroke-linecap="round" stroke-linejoin="round"/>
<path d="M485.311 667.489C487.729 669.892 492.551 672.31 494.969 675.69C497.387 679.069 499.325 686.309 504.627 686.309C509.929 686.309 516.643 681.968 520.082 679.069C523.522 676.17 527.803 679.069 530.702 681.007C532.147 681.958 533.652 682.816 535.208 683.575C529.019 688.922 513.684 693.503 504.101 690.169C493.001 686.309 493.963 676.17 488.165 671.349C485.251 668.916 483.313 666.843 482.427 664.305C483.539 665.551 484.56 666.738 485.311 667.489Z" fill="#3C9FCF" stroke="#263238" stroke-linecap="round" stroke-linejoin="round"/>
<path d="M405.645 403.873C405.645 403.873 403.242 438.629 403.242 453.604C403.242 468.579 400.824 494.158 400.824 497.538C400.824 500.917 396.483 564.647 396.963 585.405C397.444 606.162 410.962 641.895 410.962 641.895C410.962 641.895 401.785 642.375 402.265 647.692C402.746 653.01 407.042 664.59 407.042 664.59C407.042 664.59 412.84 662.652 424.901 662.652C436.962 662.652 449.098 671.394 449.098 671.394C449.098 671.394 448.617 665.596 451.516 655.458C454.415 645.319 449.098 642.856 449.593 634.174C450.089 625.493 451.095 578.165 453.454 566.089C455.812 554.013 467.452 496.081 467.452 496.081C467.452 496.081 481.451 556.927 484.83 562.709C486.845 566.217 487.532 570.332 486.768 574.305C486.768 574.305 484.83 577.684 480.97 589.745C477.11 601.806 478.071 612.44 479.033 621.618C479.619 625.94 479.945 630.294 480.009 634.655C480.009 636.578 477.591 637.554 477.11 641.895C476.629 646.235 481.932 657.35 481.932 657.35C481.932 657.35 495.45 652.995 505.107 652.995C511.985 653.226 518.803 654.362 525.384 656.374C526.786 653.184 527.449 649.718 527.322 646.236C526.841 641.414 525.82 633.679 525.82 627.896C525.82 622.113 535.958 572.322 535.958 560.787C535.958 549.251 541.756 495.6 541.756 492.701C541.756 489.802 544.655 443.946 544.655 429.452C544.536 419.287 543.895 409.135 542.733 399.036L408.018 389.378L405.645 403.873Z" fill="#666666" stroke="#263238" stroke-linecap="round" stroke-linejoin="round"/>
<path d="M447.656 480.159L467.452 496.081L450.074 488.841" stroke="#263238" stroke-linecap="round" stroke-linejoin="round"/>
<path d="M461.114 444.427C461.114 444.427 459.612 468.564 459.612 470.982" stroke="#263238" stroke-linecap="round" stroke-linejoin="round"/>
<path d="M467.452 443.946L466.972 460.844" stroke="#263238" stroke-linecap="round" stroke-linejoin="round"/>
<path d="M429.797 440.086L427.86 459.387" stroke="#263238" stroke-linecap="round" stroke-linejoin="round"/>
<path d="M433.657 440.086L434.618 459.387" stroke="#263238" stroke-linecap="round" stroke-linejoin="round"/>
<path d="M508.006 441.047L508.968 463.742" stroke="#263238" stroke-linecap="round" stroke-linejoin="round"/>
<path d="M512.347 441.528L517.664 458.906" stroke="#263238" stroke-linecap="round" stroke-linejoin="round"/>
<path d="M448.137 637.073C448.137 637.073 443.315 624.036 441.378 615.82C439.44 607.604 436.556 588.784 436.556 588.784" stroke="#263238" stroke-linecap="round" stroke-linejoin="round"/>
<path d="M486.768 567.065C486.768 567.065 493.527 588.784 501.247 594.101" stroke="#263238" stroke-linecap="round" stroke-linejoin="round"/>
<path d="M412.419 659.754C412.419 659.754 436.075 649.615 441.378 652.033C446.68 654.451 441.858 657.35 436.075 656.374" stroke="#263238" stroke-linecap="round" stroke-linejoin="round"/>
<path d="M520.563 650.096C520.563 650.096 513.323 650.591 500.286 647.692C487.249 644.794 479.528 646.19 483.389 647.692C485.866 648.6 488.472 649.107 491.109 649.194" stroke="#263238" stroke-linecap="round" stroke-linejoin="round"/>
<path d="M443.556 256.542C443.556 256.542 414.762 252.757 404.849 262.655C396.267 271.205 391.307 282.732 391.001 294.843C391.001 304.365 385.398 337.635 380.066 354.787C374.734 371.94 376.251 387.922 376.626 395.537C377.184 401.947 378.188 408.311 379.63 414.582V418.397C379.63 418.397 372.015 429.061 371.64 432.861C371.264 436.661 376.581 446.575 376.972 448.482C377.362 450.39 378.879 450.765 383.07 452.988C387.261 455.211 392.202 453.379 394.876 453.379C397.549 453.379 397.88 451.096 401.349 449.188C404.819 447.281 408.589 441.573 408.589 436.992C408.589 432.411 404.774 424.42 402.491 420.996C401.21 419.113 400.198 417.061 399.487 414.897L403.302 406.907C403.302 406.907 412.434 432.801 439.485 440.431C466.536 448.062 511.086 438.929 522.095 435.475C533.105 432.02 538.091 425.952 538.091 425.952L546.097 419.088C546.631 420.32 546.84 421.667 546.706 423.003C546.572 424.338 546.099 425.617 545.331 426.718C542.658 430.518 539.233 433.192 539.233 437.758C539.408 442.129 540.048 446.469 541.141 450.705C541.907 454.13 545.647 454.52 546.473 451.471C547.299 448.422 549.897 455.977 555.605 457.569C561.312 459.161 565.518 454.13 569.709 447.656C573.899 441.182 575.416 438.524 573.509 432.801C571.601 427.079 567.426 423.669 568.177 418.337C568.928 413.005 580.748 383.295 581.89 355.478C583.031 327.661 568.943 277.374 566.284 269.774C563.625 262.174 552.18 248.446 540.75 248.446C529.32 248.446 518.22 252.261 512.948 252.261C509.505 252.238 506.068 251.982 502.659 251.495L448.587 256.827L443.556 256.542Z" fill="#3C9FCF" stroke="#263238" stroke-linecap="round" stroke-linejoin="round"/>
<path d="M403.302 407.042C403.302 407.042 410.151 387.606 415.108 367.044C420.064 346.481 420.049 331.236 420.049 317.478C420.049 303.719 425.006 284.719 425.006 284.719" stroke="#263238" stroke-linecap="round" stroke-linejoin="round"/>
<path d="M402.536 421.056C401.274 419.227 400.263 417.236 399.532 415.138C392.187 411.293 383.836 414.792 379.661 417.105V418.397C379.661 418.397 372.045 429.061 371.67 432.861C371.294 436.661 376.611 446.575 377.002 448.482C377.392 450.39 378.909 450.765 383.1 452.988C387.291 455.211 392.232 453.379 394.906 453.379C397.579 453.379 397.91 451.096 401.379 449.188C404.849 447.281 408.619 441.573 408.619 436.992C408.619 432.411 404.819 424.48 402.536 421.056Z" fill="white" stroke="#263238" stroke-linecap="round" stroke-linejoin="round"/>
<path d="M573.554 432.861C572.367 429.287 570.279 426.598 569.048 423.774C566.144 422.039 562.833 421.101 559.45 421.056C550.303 421.056 546.878 425.246 546.878 425.246L546.097 425.472C545.886 425.925 545.64 426.362 545.361 426.778C542.687 430.578 539.263 433.252 539.263 437.818C539.438 442.189 540.078 446.529 541.17 450.765C541.936 454.19 545.676 454.58 546.503 451.531C547.329 448.482 549.927 456.037 555.635 457.629C561.342 459.221 565.548 454.19 569.739 447.716C573.929 441.243 575.461 438.584 573.554 432.861Z" fill="white" stroke="#263238" stroke-linecap="round" stroke-linejoin="round"/>
<path d="M546.142 419.148C546.142 419.148 547.284 397.82 541.186 379.165C535.087 360.51 530.521 350.627 532.038 334.976C533.555 319.325 539.653 276.698 540.42 270.976" stroke="#263238" stroke-linecap="round" stroke-linejoin="round"/>
<path d="M405.96 398.961C405.96 398.961 417.391 421.491 442.91 430.969C468.429 440.446 498.484 436.676 512.617 431.344C526.751 426.012 541.155 414.207 543.093 410.767C544.134 408.94 545.023 407.031 545.752 405.059" stroke="#263238" stroke-linecap="round" stroke-linejoin="round"/>
<path d="M390.73 303.659C390.73 303.659 391.541 319.956 391.541 331.371" stroke="#263238" stroke-linecap="round" stroke-linejoin="round"/>
<path d="M536.875 297.291C536.875 297.291 529.545 321.323 526.286 329.073" stroke="#263238" stroke-linecap="round" stroke-linejoin="round"/>
<path d="M567.846 274.475C567.846 274.475 574.365 293.626 571.511 307.519C568.657 321.413 562.499 340.128 562.499 343.387" stroke="#263238" stroke-linecap="round" stroke-linejoin="round"/>
<path d="M460.048 291.163L478.327 325.829L498.529 286.597C498.529 286.597 492.04 275.932 481 274.025C469.961 272.117 456.608 281.64 460.048 291.163Z" fill="white" stroke="#263238" stroke-linecap="round" stroke-linejoin="round"/>
<path d="M476.81 289.27C473.719 289.437 470.715 290.349 468.053 291.929C463.472 294.602 454.715 301.076 454.715 301.076C454.715 301.076 452.808 283.548 453.213 274.791C453.619 266.034 473.4 249.647 485.972 245.081C498.544 240.515 507.3 245.081 509.583 252.321C511.866 259.561 511.491 277.464 507.676 286.221C505.022 292.089 501.835 297.7 498.153 302.983C498.153 302.983 486.347 293.836 484.064 291.929C481.781 290.021 476.81 289.27 476.81 289.27Z" fill="white" stroke="#263238" stroke-linecap="round" stroke-linejoin="round"/>
<path d="M457.329 181.847C457.329 181.847 446.92 196.867 446.62 203.04C446.319 209.214 445.238 219.382 443.03 222.807C440.822 226.231 436.391 233.441 437.502 240.155C438.614 246.869 442.925 261.258 444.457 263.976C445.989 266.695 459.071 271.051 459.071 271.051C459.071 271.051 472.709 283.878 474.632 286.642C476.554 289.405 485.146 287.408 495.419 273.86C505.693 260.312 504.537 247.004 504.537 247.004C504.537 247.004 511.266 249.197 514.059 243.639C516.853 238.082 519.827 224.113 516.357 222.281C512.888 220.449 503.425 226.787 502.584 227.748C501.743 228.71 500.061 223.798 495.66 217.79C491.259 211.782 485.536 209.739 482.773 201.388C480.009 193.037 476.765 186.083 471.643 182.238C466.521 178.393 461.384 178.257 457.329 181.847Z" fill="white" stroke="#263238" stroke-linecap="round" stroke-linejoin="round"/>
<path d="M514.87 218.526C514.87 218.526 511.957 218.796 508.051 224.113C501.488 233.05 499.535 230.121 499.385 224.113C499.295 221.019 493.182 220.388 489.457 216.048C482.244 207.195 475.62 197.877 469.63 188.156C464.674 179.489 457.329 181.847 457.329 181.847C457.329 181.847 444.216 173.902 470.847 170.192" fill="#E2E2E2"/>
<path d="M514.87 218.526C514.87 218.526 511.957 218.796 508.051 224.113C501.488 233.05 499.535 230.121 499.385 224.113C499.295 221.019 493.182 220.388 489.457 216.048C482.244 207.195 475.62 197.877 469.63 188.156C464.674 179.489 457.329 181.847 457.329 181.847C457.329 181.847 444.216 173.902 470.847 170.192" stroke="#B0B0B0" stroke-linecap="round" stroke-linejoin="round"/>
<path d="M458.425 209.078C458.425 209.078 460.333 215.086 459.462 216.588C458.591 218.09 450.915 234.718 450.915 234.718C450.915 234.718 451.817 239.945 456.713 238.638C461.61 237.331 462.841 239.659 465.004 239.899C467.167 240.14 468.414 238.803 467.287 235.754" stroke="#263238" stroke-linecap="round" stroke-linejoin="round"/>
<path d="M447.235 241.567C448.659 243.029 450.432 244.104 452.387 244.691C455.256 245.367 461.73 246.433 463.908 246.658C466.085 246.884 469.36 243.654 469.36 243.654" stroke="#263238" stroke-linecap="round" stroke-linejoin="round"/>
<path d="M450.119 248.836C450.119 248.836 456.277 252.802 462.706 250.924" stroke="#263238" stroke-linecap="round" stroke-linejoin="round"/>
<path d="M472.214 217.159L481.556 222.191" stroke="#263238" stroke-linecap="round" stroke-linejoin="round"/>
<path d="M456.323 215.071L449.639 215.822" stroke="#263238" stroke-linecap="round" stroke-linejoin="round"/>
<path d="M457.614 206.42C456.3 205.546 454.796 205.002 453.227 204.832C451.659 204.662 450.073 204.872 448.602 205.444" stroke="#B0B0B0" stroke-width="2" stroke-linecap="round" stroke-linejoin="round"/>
<path d="M469.044 209.123C469.044 209.123 475.308 205.399 481.841 212.698" stroke="#B0B0B0" stroke-width="2" stroke-linecap="round" stroke-linejoin="round"/>
<path d="M468.534 200.277C468.534 200.277 463.277 204.783 464.854 207.201" stroke="#263238" stroke-linecap="round" stroke-linejoin="round"/>
<path d="M471.628 222.581C471.628 222.581 470.832 226.532 477.516 229.085" stroke="#263238" stroke-linecap="round" stroke-linejoin="round"/>
<path d="M455.842 219.427C453.882 221.055 451.636 222.303 449.218 223.107" stroke="#263238" stroke-linecap="round" stroke-linejoin="round"/>
<path d="M453.048 217.4C452.988 217.927 452.722 218.41 452.309 218.744C451.897 219.079 451.369 219.238 450.84 219.187C450.335 219.101 449.882 218.827 449.573 218.419C449.263 218.011 449.121 217.501 449.175 216.992C449.228 216.483 449.474 216.013 449.861 215.679C450.249 215.344 450.749 215.17 451.261 215.192C451.788 215.252 452.271 215.517 452.606 215.93C452.94 216.343 453.099 216.871 453.048 217.4Z" fill="#263238"/>
<path d="M475.683 220.644C475.655 220.905 475.575 221.158 475.449 221.389C475.322 221.619 475.151 221.823 474.946 221.987C474.741 222.152 474.506 222.274 474.254 222.348C474.001 222.422 473.737 222.445 473.475 222.416C473.214 222.388 472.961 222.308 472.73 222.181C472.5 222.055 472.297 221.884 472.132 221.679C471.967 221.474 471.845 221.239 471.771 220.986C471.698 220.734 471.674 220.47 471.703 220.208C471.729 219.947 471.807 219.694 471.932 219.463C472.056 219.233 472.226 219.029 472.43 218.864C472.633 218.699 472.868 218.577 473.12 218.503C473.372 218.43 473.635 218.407 473.896 218.436C474.425 218.493 474.911 218.757 475.246 219.171C475.581 219.585 475.738 220.114 475.683 220.644Z" fill="#263238"/>
<path d="M504.522 247.004L499.25 245.051C498.119 247.479 496.718 249.771 495.074 251.885C493.581 253.799 492.212 255.806 490.974 257.893" stroke="#263238" stroke-linecap="round" stroke-linejoin="round"/>
<path d="M461.309 270.075C462.475 270.744 463.795 271.096 465.139 271.096C466.483 271.096 467.804 270.744 468.969 270.075C472.149 268.384 475.166 266.403 477.981 264.157" stroke="#263238" stroke-linecap="round" stroke-linejoin="round"/>
<path d="M550.663 472.709H390.31V483.269H550.663V472.709Z" fill="#8C8C8C" stroke="#263238" stroke-linecap="round" stroke-linejoin="round"/>
<path d="M389.979 695.771C389.329 695.771 388.685 695.643 388.085 695.394C387.484 695.145 386.939 694.779 386.48 694.319C386.021 693.858 385.657 693.312 385.409 692.711C385.162 692.109 385.036 691.465 385.038 690.815V438.073C385.036 437.423 385.162 436.779 385.409 436.178C385.657 435.576 386.021 435.03 386.48 434.569C386.939 434.109 387.484 433.744 388.085 433.494C388.685 433.245 389.329 433.117 389.979 433.117C390.63 433.117 391.275 433.245 391.876 433.494C392.477 433.743 393.024 434.108 393.484 434.568C393.944 435.029 394.309 435.575 394.559 436.177C394.808 436.778 394.936 437.422 394.936 438.073V690.815C394.936 691.466 394.808 692.11 394.559 692.712C394.309 693.313 393.944 693.859 393.484 694.32C393.024 694.78 392.477 695.145 391.876 695.394C391.275 695.643 390.63 695.771 389.979 695.771Z" fill="#8C8C8C" stroke="#263238" stroke-linecap="round" stroke-linejoin="round"/>
<path d="M553.637 695.771C552.987 695.771 552.343 695.643 551.743 695.394C551.142 695.145 550.597 694.779 550.138 694.319C549.679 693.858 549.315 693.312 549.067 692.711C548.82 692.109 548.694 691.465 548.696 690.815V438.073C548.694 437.423 548.82 436.779 549.067 436.178C549.315 435.576 549.679 435.03 550.138 434.569C550.597 434.109 551.142 433.744 551.743 433.494C552.343 433.245 552.987 433.117 553.637 433.117C554.288 433.117 554.933 433.245 555.534 433.494C556.135 433.743 556.682 434.108 557.142 434.568C557.602 435.029 557.967 435.575 558.216 436.177C558.466 436.778 558.594 437.422 558.594 438.073V690.815C558.594 691.466 558.466 692.11 558.216 692.712C557.967 693.313 557.602 693.859 557.142 694.32C556.682 694.78 556.135 695.145 555.534 695.394C554.933 695.643 554.288 695.771 553.637 695.771Z" fill="#8C8C8C" stroke="#263238" stroke-linecap="round" stroke-linejoin="round"/>
<path d="M274.115 704.438C318.495 704.438 354.472 696.368 354.472 686.414C354.472 676.46 318.495 668.39 274.115 668.39C229.735 668.39 193.758 676.46 193.758 686.414C193.758 696.368 229.735 704.438 274.115 704.438Z" fill="#263238" stroke="#263238" stroke-width="2" stroke-linecap="round" stroke-linejoin="round"/>
<path d="M294.768 654.977C294.768 654.977 310.509 666.317 314.789 668.961C319.07 671.604 326.024 671.364 322.735 677.072C319.445 682.779 302.668 681.908 292.89 682.253C283.112 682.599 272.538 678.769 262.054 678.423C251.57 678.078 260.717 659.618 260.717 659.618C260.717 659.618 284.103 649.059 294.768 654.977Z" fill="white" stroke="#263238" stroke-linecap="round" stroke-linejoin="round"/>
<path d="M322.735 677.072C323.229 676.312 323.519 675.438 323.576 674.533C309.427 679.895 286.266 673.947 280.514 674.143L257.323 674.924C257.561 675.98 258.172 676.915 259.044 677.558C259.916 678.2 260.989 678.508 262.069 678.423C272.583 678.769 283.097 682.584 292.905 682.254C302.713 681.923 319.43 682.764 322.735 677.072Z" fill="white" stroke="#263238" stroke-linecap="round" stroke-linejoin="round"/>
<path d="M319.926 361.727C319.926 361.727 323.05 440.477 319.01 465.74C314.969 491.004 308.871 537.265 303.765 551.354C298.658 565.443 288.579 618.163 288.895 627.22C289.21 636.277 288.775 644.673 288.775 644.673C288.775 644.673 292.965 644.523 293.731 646.596C294.324 649.337 294.651 652.128 294.707 654.932C294.707 654.932 282.241 657.455 278.801 658.957C275.362 660.459 258.089 663.884 258.089 663.884C258.089 663.884 257.172 657.636 257.067 654.151C256.962 650.666 260.071 640.092 260.071 640.092C260.071 640.092 255.986 601.851 254.484 578.165C252.982 554.478 259.606 502.629 259.335 494.263C259.065 485.897 267.356 359.323 267.356 359.323L316.126 356.98L319.926 361.727Z" fill="#3C9FCF" stroke="#263238" stroke-linecap="round" stroke-linejoin="round"/>
<path d="M253.117 661.271C253.117 661.271 277.314 675.119 281.58 677.793C285.846 680.466 290.787 681.668 289.541 685.888C288.294 690.109 277.269 694.69 259.846 695.276C242.423 695.862 226.246 692.272 219.833 688.246C213.419 684.221 219.968 671.499 219.968 671.499C219.968 671.499 238.217 654.106 253.117 661.271Z" fill="white" stroke="#263238" stroke-linecap="round" stroke-linejoin="round"/>
<path d="M289.541 685.858C289.755 685.183 289.786 684.462 289.631 683.77C284.509 685.843 273.454 689.238 257.458 688.502C243.834 687.737 230.304 685.777 217.024 682.644C216.976 683.736 217.209 684.821 217.701 685.797C218.193 686.772 218.927 687.606 219.833 688.216C226.246 692.197 242.363 695.832 259.846 695.246C277.329 694.66 288.279 690.094 289.541 685.858Z" fill="white" stroke="#263238" stroke-linecap="round" stroke-linejoin="round"/>
<path d="M274.581 470.742C274.581 470.742 266.905 553.352 260.642 574.485C254.379 595.618 249.482 636.277 249.692 642.556C249.816 646.315 250.412 650.044 251.465 653.655C252.74 654.481 253.747 655.661 254.364 657.05C254.927 659.322 255.239 661.649 255.295 663.989C255.295 663.989 251.976 668.991 239.569 673.602C232.228 676.35 224.528 678.02 216.709 678.559C216.709 678.559 217.58 642.24 213.945 617.247C210.31 592.254 211.962 558.669 214.395 548.155C216.829 537.641 221.77 518.596 219.968 506.79C218.166 494.984 214.996 483.238 214.996 483.238L209.334 460.393L274.581 470.742Z" fill="#3C9FCF" stroke="#263238" stroke-linecap="round" stroke-linejoin="round"/>
<path d="M278.891 205.879C278.891 205.879 263.241 211.061 258.284 215.867C253.327 220.674 267.446 363.063 267.446 363.063C267.446 363.063 290.382 366.939 299.213 366.638C308.045 366.338 319.926 361.727 319.926 361.727C319.926 361.727 316.757 281.82 312.416 264.758C309.648 253.96 306.181 243.353 302.037 233.005L283.563 209.439L278.891 205.879Z" fill="white" stroke="#263238" stroke-linecap="round" stroke-linejoin="round"/>
<path d="M298.117 229.536L303.96 245.126L293.836 240.05C293.836 240.05 297.231 230.887 298.117 229.536Z" stroke="#263238" stroke-linecap="round" stroke-linejoin="round"/>
<path d="M292.995 244.826L298.117 229.596L293.296 220.343C293.296 220.343 289.886 239.99 292.995 244.826Z" stroke="#263238" stroke-linecap="round" stroke-linejoin="round"/>
<path d="M345.46 165.565C346.421 161.059 343.958 142.405 343.958 142.405C343.958 142.405 317.177 153.925 299.289 158.551C281.4 163.177 266.905 170.898 266.996 176.575C266.996 176.575 270.946 189.597 271.817 193.638C272.688 197.678 267.927 206.029 267.927 206.029C267.927 206.029 278.891 219.713 285.29 225.555L291.854 253.463L294.317 223.498C296.962 220.029 299.424 216.424 301.692 212.698C301.692 212.698 311.35 216.393 314.294 215.702C317.237 215.011 332.318 197.573 332.318 197.573C332.318 197.573 342.696 195.726 343.703 193.202C344.709 190.679 341.179 172.565 341.179 172.565C343.297 170.731 344.793 168.286 345.46 165.565Z" fill="#ACACAC" stroke="#263238" stroke-linecap="round" stroke-linejoin="round"/>
<path d="M301.617 212.713L292.905 207.531L295.939 219.637L301.617 212.713Z" fill="#263238" stroke="#263238" stroke-linecap="round" stroke-linejoin="round"/>
<path d="M331.687 175.253C331.116 177.146 330.004 178.483 329.208 178.257C328.412 178.032 328.232 176.29 328.803 174.397C329.374 172.505 330.485 171.168 331.281 171.393C332.077 171.619 332.257 173.361 331.687 175.253Z" fill="#263238"/>
<path d="M326.595 167.683C326.595 167.683 331.987 162.291 336.568 167.458" stroke="#263238" stroke-linecap="round" stroke-linejoin="round"/>
<path d="M324.537 199.315C324.537 199.315 318.619 198.655 315.525 191.61" stroke="#263238" stroke-linecap="round" stroke-linejoin="round"/>
<path d="M285.816 171.438C285.816 171.438 300.836 166.271 320.857 158.897C340.879 151.522 353.09 145.814 351.348 137.718C349.606 129.623 337.109 118.057 318.304 114.407C299.499 110.757 279.252 115.489 270.796 122.698C262.339 129.908 257.443 139.431 259.185 147.526C260.928 155.622 262.85 175.974 267.356 180.781C271.862 185.587 285.816 171.438 285.816 171.438Z" fill="#263238" stroke="#263238" stroke-linecap="round" stroke-linejoin="round"/>
<path d="M290.652 174.232C290.652 174.232 287.227 161.871 281.34 163.147C275.452 164.424 272.613 178.167 277.074 184.476C281.535 190.784 288.249 186.308 288.249 186.308" fill="#ACACAC"/>
<path d="M290.652 174.232C290.652 174.232 287.227 161.871 281.34 163.147C275.452 164.424 272.613 178.167 277.074 184.476C281.535 190.784 288.249 186.308 288.249 186.308" stroke="#263238" stroke-linecap="round" stroke-linejoin="round"/>
<path d="M260.056 151.942C260.056 151.942 247.425 136.171 239.149 135.255C230.873 134.339 221.665 147.106 219.487 160.278C217.31 173.451 230.001 178.438 238.773 176.545C247.545 174.653 260.852 161.014 260.822 159.092C260.792 157.169 260.056 151.942 260.056 151.942Z" fill="#263238" stroke="#263238" stroke-linecap="round" stroke-linejoin="round"/>
<path d="M289.135 228.094L278.02 247.545C278.02 247.545 268.558 224.128 266.5 218.917C265.021 214.55 263.985 210.047 263.406 205.474L268.212 202.665L289.135 228.094Z" fill="white" stroke="#263238" stroke-linecap="round" stroke-linejoin="round"/>
<path d="M343.523 375.335C343.523 375.335 337.439 378.023 333.744 378.144C330.05 378.264 332.242 369.132 333.624 362.508C335.006 355.884 340.954 370.483 343.523 375.335Z" fill="white" stroke="#263238" stroke-linecap="round" stroke-linejoin="round"/>
<path d="M338.521 361.096L336.598 389.634L324.582 373.577L323.291 371.97L321.789 350.612C321.789 350.612 335.802 353.781 338.521 361.096Z" fill="#ACACAC" stroke="#263238" stroke-linecap="round" stroke-linejoin="round"/>
<path d="M319.746 329.629C319.746 329.629 331.957 337.439 337.304 349.621C340.681 357.823 342.778 366.496 343.523 375.335C343.523 375.335 337.334 362.793 331.867 359.263C328.53 357.155 324.857 355.631 321.008 354.757L319.746 329.629Z" fill="white" stroke="#263238" stroke-linecap="round" stroke-linejoin="round"/>
<path d="M263.406 205.474C263.406 205.474 271.862 234.612 278.966 249.332C286.071 264.052 289.721 309.667 292.484 318.649C292.484 318.649 291.058 400.343 291.884 424.751C292.71 449.158 294.167 512.603 294.167 512.603C294.167 512.603 274.085 517.469 238.968 510.98C203.851 504.492 180.465 494.158 180.465 494.158C180.465 494.158 204.723 344.694 205.353 342.576C205.984 340.458 217.249 302.398 218.496 277.239C219.743 252.081 219.352 240.921 230.091 227.989C240.831 215.056 263.406 205.474 263.406 205.474Z" fill="white" stroke="#263238" stroke-linecap="round" stroke-linejoin="round"/>
<path d="M233.471 482.923C231.383 482.457 229.28 481.902 227.177 481.286" stroke="#263238" stroke-linecap="round" stroke-linejoin="round"/>
<path d="M219.593 473.701L223.798 423.444C261.694 431.72 285.786 426.883 285.786 426.883L286.477 483.344C271.073 486.438 255.236 486.713 239.734 484.155" stroke="#263238" stroke-linecap="round" stroke-linejoin="round"/>
<path d="M285.71 433.072C285.71 433.072 261.678 437.923 223.723 429.632" stroke="#263238" stroke-linecap="round" stroke-linejoin="round"/>
<path d="M324.778 368.981C324.778 368.981 336.794 384.212 337.995 394.515C339.197 404.819 333.94 432.936 333.94 432.936L324.778 368.981Z" fill="white" stroke="#263238" stroke-linecap="round" stroke-linejoin="round"/>
<path d="M293.235 229.596C293.235 229.596 310.103 262.279 313.017 286.597C315.931 310.914 317.207 389.739 316.607 413.486C316.006 437.232 314.939 508.457 314.939 508.457C314.939 508.457 338.386 499.986 339.542 492.956C340.699 485.927 333.835 427.559 331.206 411.593C328.578 395.627 322.735 347.007 322.434 337.995C322.134 328.983 327.406 299.454 322.029 284.974C318.62 275.52 315.959 265.812 314.068 255.941C314.068 255.941 315.33 246.673 308.06 236.415C300.791 226.156 291.598 222.672 293.235 229.596Z" fill="white" stroke="#263238" stroke-linecap="round" stroke-linejoin="round"/>
<path d="M308.196 249.332C308.196 249.332 312.702 271.351 314.309 282.226" stroke="#263238" stroke-width="2" stroke-linecap="round" stroke-linejoin="round"/>
<path d="M321.083 325.664C321.083 325.664 316.682 324.868 315.39 323.666C314.098 322.464 308.571 306.408 308.255 297.396C307.94 288.384 311.109 279.808 314.263 279.702C317.418 279.597 320.271 290.427 319.415 302.638C318.98 308.991 309.727 320.767 303.885 323.456C298.042 326.144 297.021 323.696 297.021 323.696" stroke="#263238" stroke-width="2" stroke-linecap="round" stroke-linejoin="round"/>
<path d="M297.576 323.02C297.591 323.512 297.459 323.998 297.198 324.415C296.937 324.833 296.559 325.164 296.11 325.366C295.661 325.569 295.162 325.634 294.677 325.553C294.191 325.473 293.74 325.25 293.38 324.914C293.021 324.577 292.769 324.142 292.657 323.663C292.544 323.183 292.576 322.681 292.749 322.22C292.921 321.759 293.226 321.359 293.626 321.071C294.025 320.783 294.501 320.62 294.993 320.602C295.656 320.582 296.3 320.825 296.784 321.278C297.268 321.731 297.553 322.357 297.576 323.02Z" fill="#263238"/>
<path d="M325.769 325.498C325.79 325.995 325.662 326.487 325.403 326.911C325.143 327.335 324.763 327.673 324.312 327.881C323.86 328.089 323.357 328.158 322.866 328.079C322.375 328 321.918 327.778 321.554 327.439C321.19 327.1 320.935 326.661 320.821 326.177C320.707 325.693 320.74 325.186 320.915 324.721C321.089 324.255 321.399 323.852 321.803 323.563C322.207 323.273 322.688 323.111 323.185 323.095C323.846 323.075 324.487 323.316 324.971 323.766C325.455 324.216 325.742 324.838 325.769 325.498Z" fill="#263238"/>
<path d="M303.87 253.417C303.87 253.417 304.185 252.351 307.339 252.952C310.493 253.553 318.064 260.267 318.064 260.267C318.064 260.267 316.787 243.204 310.959 236.069C305.131 228.935 294.798 222.296 294.798 222.296C294.028 222.833 293.502 223.653 293.336 224.576C293.17 225.5 293.377 226.451 293.911 227.223C295.759 230.317 303.87 253.417 303.87 253.417Z" fill="white" stroke="#263238" stroke-linecap="round" stroke-linejoin="round"/>
<path d="M261.093 232.435C261.093 232.435 269.609 280.874 270.435 305.507" stroke="#263238" stroke-width="2" stroke-linecap="round" stroke-linejoin="round"/>
<path d="M278.2 304.005C278.152 302.459 277.645 300.962 276.744 299.704C275.844 298.446 274.59 297.484 273.142 296.94C271.694 296.396 270.117 296.293 268.611 296.647C267.105 297 265.738 297.792 264.683 298.923C263.627 300.054 262.932 301.473 262.684 303C262.437 304.527 262.648 306.093 263.291 307.5C263.935 308.907 264.982 310.091 266.299 310.902C267.616 311.713 269.145 312.114 270.69 312.056C272.752 311.977 274.698 311.087 276.105 309.578C277.512 308.07 278.265 306.066 278.2 304.005Z" fill="white" stroke="#263238" stroke-linecap="round" stroke-linejoin="round"/>
<path d="M263.406 205.474C263.406 205.474 257.593 205.474 255.235 208.297C254.16 209.556 253.157 210.875 252.231 212.248C252.231 212.248 253.733 246.794 254.063 255.806C254.394 264.818 254.544 270.105 254.544 270.105C254.544 270.105 267.822 260.582 272.283 258.329C275.21 256.891 278.219 255.627 281.295 254.544L267.056 215.252L263.406 205.474Z" fill="white" stroke="#263238" stroke-linecap="round" stroke-linejoin="round"/>
<path d="M209.89 416.91L312.086 407.688L306.138 341.194L204.512 355.343L209.89 416.91Z" fill="#263238" stroke="#263238" stroke-linecap="round" stroke-linejoin="round"/>
<path d="M256.001 384.903C256.001 384.903 262.505 389.093 264.457 389.033C267.116 389.33 269.747 389.832 272.328 390.535C273.559 390.73 278.411 396.693 279.702 398.601C280.994 400.508 286.807 406.201 286.837 407.177C286.867 408.153 284.944 408.95 283.473 408.995C282.08 408.817 280.737 408.363 279.522 407.658C280.382 409.789 281.109 411.971 281.7 414.192C281.562 414.933 281.185 415.61 280.626 416.117C280.067 416.624 279.358 416.934 278.606 417C276.422 416.72 274.273 416.217 272.192 415.498C272.192 415.498 271.276 417.241 267.416 418.833C263.556 420.425 263.331 420.935 260.146 420.8C258.395 420.762 256.675 420.328 255.115 419.532C253.555 418.737 252.194 417.599 251.134 416.204C248.821 413.11 242.122 403.302 241.612 402.581C241.232 402.071 240.81 401.593 240.35 401.154L254.724 385.008L256.001 384.903Z" fill="#ACACAC" stroke="#263238" stroke-linecap="round" stroke-linejoin="round"/>
<path d="M240.32 218.811C240.32 218.811 216.904 227.974 211.226 238.863C205.549 249.753 171.799 338.836 173.872 344.814C175.944 350.792 199.706 372.331 206.495 380.472C213.284 388.612 235.814 408.544 235.814 408.544L258.344 385.458L219.157 338.13L237.181 277.51" fill="white"/>
<path d="M240.32 218.811C240.32 218.811 216.904 227.974 211.226 238.863C205.549 249.753 171.799 338.836 173.872 344.814C175.944 350.792 199.706 372.331 206.495 380.472C213.284 388.612 235.814 408.544 235.814 408.544L258.344 385.458L219.157 338.13L237.181 277.51" stroke="#263238" stroke-linecap="round" stroke-linejoin="round"/>
</svg>
