<svg width="470" height="255" viewBox="0 0 470 255" fill="none" xmlns="http://www.w3.org/2000/svg">
<path d="M193.45 91.442C197.35 95.742 211.76 96.3519 224.4 96.3019C237.04 96.2519 253.1 89.112 258.47 81.442C263.84 73.772 253 58.1219 251.1 54.4919C249.2 50.8619 248.44 33.032 237.55 27.802C226.66 22.572 203.73 25.292 196.28 30.802C188.83 36.312 173.13 45.942 170.57 55.472C168.01 65.002 176.94 65.1119 177.7 65.5719C178.46 66.0319 179.7 66.482 181.62 70.122C182.203 71.1855 183.047 72.0838 184.072 72.7327C185.096 73.3815 186.269 73.7597 187.48 73.8319L193.45 91.442Z" fill="#263238" stroke="#263238" stroke-linecap="round" stroke-linejoin="round"/>
<path d="M181.68 52.5615C174.44 54.4715 169.68 56.8015 173.29 59.3415" stroke="#545454" stroke-linecap="round" stroke-linejoin="round"/>
<path d="M210.85 47.5615C210.85 47.5615 196.57 49.1315 185.32 51.6415" stroke="#545454" stroke-linecap="round" stroke-linejoin="round"/>
<path d="M217.01 45.2223C217.01 45.2223 198.68 39.1123 181.28 46.6323" stroke="#545454" stroke-linecap="round" stroke-linejoin="round"/>
<path d="M195.7 36.832C194.795 37.0615 193.906 37.3521 193.04 37.702" stroke="#545454" stroke-linecap="round" stroke-linejoin="round"/>
<path d="M223.59 43.342C223.59 43.342 212.52 35.752 200.76 36.132" stroke="#545454" stroke-linecap="round" stroke-linejoin="round"/>
<path d="M251.95 80.002C253.266 80.4722 254.631 80.7876 256.02 80.942" stroke="#545454" stroke-linecap="round" stroke-linejoin="round"/>
<path d="M218.85 53.2119C218.85 53.2119 232.01 66.3719 240.47 73.4219C242.921 75.4933 245.626 77.244 248.52 78.6319" stroke="#545454" stroke-linecap="round" stroke-linejoin="round"/>
<path d="M227.35 50.3916C227.35 50.3916 240.98 65.9016 253.2 70.5616" stroke="#545454" stroke-linecap="round" stroke-linejoin="round"/>
<path d="M101.85 231.082C101.85 231.082 97.1401 235.332 96.5201 236.542C95.9001 237.752 93.5901 242.912 94.4401 243.042C95.2901 243.172 97.3401 239.882 97.9501 238.502C98.5601 237.122 100.95 233.502 100.95 233.502L101.85 231.082Z" fill="white" stroke="#263238" stroke-linecap="round" stroke-linejoin="round"/>
<path d="M104.8 228.092C104.8 228.092 101.55 231.092 100.93 232.302C100.31 233.512 97.41 244.432 97.41 244.432C97.41 244.432 98.81 245.552 99.79 245.012C100.77 244.472 104.2 233.682 104.2 233.682L104.8 228.092Z" fill="white" stroke="#263238" stroke-linecap="round" stroke-linejoin="round"/>
<path d="M112.19 223.382C112.19 223.382 106.25 226.512 104.8 228.092C103.35 229.672 101.05 242.762 100.59 243.962C100.13 245.162 102.88 246.052 103.53 245.522C104.18 244.992 106.85 233.562 106.85 233.562L112.21 224.902L112.19 223.382Z" fill="white" stroke="#263238" stroke-linecap="round" stroke-linejoin="round"/>
<path d="M126.29 221.932L115.05 222.152C114.093 222.172 113.153 222.414 112.305 222.858C111.457 223.303 110.723 223.937 110.16 224.712L105.44 231.272L104.63 244.322C104.623 244.485 104.65 244.647 104.708 244.8C104.767 244.952 104.856 245.09 104.971 245.207C105.085 245.323 105.222 245.414 105.374 245.476C105.525 245.537 105.687 245.566 105.85 245.562C106.102 245.547 106.343 245.454 106.54 245.296C106.737 245.139 106.88 244.924 106.95 244.682L110.22 232.882L114.51 230.882C114.51 230.882 121.08 234.482 120.94 235.162C120.8 235.842 117.12 240.392 116.32 241.432C115.52 242.472 113.57 244.252 114.12 245.242C114.67 246.232 118 245.242 119.12 244.512C120.24 243.782 126.35 236.102 128.64 234.512C130.93 232.922 133.39 231.262 133.39 231.262L126.29 221.932Z" fill="white" stroke="#263238" stroke-linecap="round" stroke-linejoin="round"/>
<path d="M128.3 224.952L129.83 233.402L132.39 231.352L128.3 224.952Z" fill="#263238" stroke="#263238" stroke-linecap="round" stroke-linejoin="round"/>
<path d="M176.85 115.652C176.85 115.652 166.74 118.352 165.32 124.952C163.9 131.552 157.65 196.562 157.65 196.562L124.15 218.332L134.29 233.982L166.1 227.732L184.73 113.562L176.85 115.652Z" fill="white" stroke="#263238" stroke-linecap="round" stroke-linejoin="round"/>
<path d="M157.65 196.562C157.65 196.562 162.08 198.902 163.65 201.002" stroke="#263238" stroke-linecap="round" stroke-linejoin="round"/>
<path d="M171.35 130.832L162.41 250.972L275.32 246.372C275.32 246.372 272.14 122.252 270.78 119.592C269.42 116.932 258.46 115.662 249.41 112.822C240.36 109.982 224.22 104.562 224.22 104.562L202.98 105.462C197.04 105.722 172.49 117.192 172.53 118.182" fill="white"/>
<path d="M171.35 130.832L162.41 250.972L275.32 246.372C275.32 246.372 272.14 122.252 270.78 119.592C269.42 116.932 258.46 115.662 249.41 112.822C240.36 109.982 224.22 104.562 224.22 104.562L202.98 105.462C197.04 105.722 172.49 117.192 172.53 118.182" stroke="#263238" stroke-linecap="round" stroke-linejoin="round"/>
<path d="M170.32 154.542H181.53V158.882H170.32V154.542Z" fill="#263238" stroke="#263238" stroke-linecap="round" stroke-linejoin="round"/>
<path d="M236.13 109.432L235.07 153.862L222.31 156.892L229.5 168.232L211.57 218.102" fill="white"/>
<path d="M236.13 109.432L235.07 153.862L222.31 156.892L229.5 168.232L211.57 218.102" stroke="#263238" stroke-linecap="round" stroke-linejoin="round"/>
<path d="M198.08 106.862C198.08 106.862 186.25 131.422 182.88 139.502C179.51 147.582 178.13 150.122 178.13 150.122L186.57 155.962L177.94 162.782L186.01 206.062" fill="white"/>
<path d="M198.08 106.862C198.08 106.862 186.25 131.422 182.88 139.502C179.51 147.582 178.13 150.122 178.13 150.122L186.57 155.962L177.94 162.782L186.01 206.062" stroke="#263238" stroke-linecap="round" stroke-linejoin="round"/>
<path d="M231.85 107.562C231.85 107.562 214.75 153.472 213.4 168.152C212.05 182.832 208.75 249.932 208.75 249.932L186.75 250.932C186.75 250.932 187.57 183.932 190.95 159.012C194.33 134.092 199.14 113.282 200.02 110.772C200.793 108.873 201.801 107.079 203.02 105.432L216.6 103.432L231.85 107.562Z" fill="#A9E4C7" stroke="#263238" stroke-linecap="round" stroke-linejoin="round"/>
<path d="M189.89 182.642L198.28 199.962" stroke="#263238" stroke-linecap="round" stroke-linejoin="round"/>
<path d="M193.04 182.642L205.1 207.832" stroke="#263238" stroke-linecap="round" stroke-linejoin="round"/>
<path d="M224.75 87.1123C224.75 87.1123 224.68 102.742 225 104.462C225.32 106.182 230.33 105.562 230.43 107.792C230.53 110.022 222.93 131.082 215.53 137.602C208.13 144.122 205.85 143.222 203.65 138.112C201.45 133.002 200.8 122.962 200.65 119.742C200.59 118.312 200.29 114.742 200.65 113.002C201.17 110.552 201.83 107.052 203.9 105.632L204.69 105.092L204.36 97.4223C204.36 97.4223 216.97 96.3823 224.75 87.1123Z" fill="white" stroke="#263238" stroke-linecap="round" stroke-linejoin="round"/>
<path d="M204.7 105.092L204.37 97.4223C204.37 97.4223 216.97 96.4223 224.75 87.1123V87.2123L224.23 89.6123C224.23 89.6123 219.33 104.022 203.91 105.612L204.7 105.092Z" fill="#263238" stroke="#263238" stroke-linecap="round" stroke-linejoin="round"/>
<path d="M212.69 49.2018C212.69 49.2018 226.69 44.8818 227.3 42.8718C227.91 40.8618 227.24 35.9318 229.02 36.8718C230.8 37.8118 230.56 43.7418 228.16 45.5818C225.76 47.4218 212.48 49.9818 211.57 52.0018C210.66 54.0218 211.97 55.4518 216.44 61.2118C220.91 66.9718 240.36 75.5618 240.45 77.5618C240.54 79.5618 238.32 85.5618 234.86 85.9818C232.671 86.1733 230.478 85.6618 228.6 84.5218C226.167 89.1458 222.577 93.0599 218.18 95.8818C211.18 100.152 201.08 101.822 194.95 97.6318C191.6 95.3318 185.69 84.1418 185.24 79.4518C184.79 74.7618 187.29 69.4518 187.24 67.4518C187.19 65.4518 187.05 63.0018 187.05 63.0018C187.05 63.0018 204.48 53.3218 206.87 51.2318C208.533 49.9324 210.579 49.2188 212.69 49.2018Z" fill="white" stroke="#263238" stroke-linecap="round" stroke-linejoin="round"/>
<path d="M215.69 62.9616C215.69 62.9616 210.69 59.7616 205.69 62.2716" stroke="#263238" stroke-linecap="round" stroke-linejoin="round"/>
<path d="M196.04 62.5015C196.04 62.5015 192.85 60.9015 189.85 64.5615" stroke="#263238" stroke-linecap="round" stroke-linejoin="round"/>
<path d="M198.77 71.1318C198.77 71.1318 199.16 74.5818 198.21 75.3718C197.26 76.1618 195.29 76.7318 196.34 78.1818C197.39 79.6318 200.63 79.7318 202.04 77.9318" stroke="#263238" stroke-linecap="round" stroke-linejoin="round"/>
<path d="M194.59 83.4619C194.59 83.4619 198.68 86.2619 205.26 83.7419" stroke="#263238" stroke-linecap="round" stroke-linejoin="round"/>
<path d="M209.34 70.5023C209.4 71.8723 210.23 72.9523 211.18 72.9023C212.13 72.8523 212.87 71.7223 212.81 70.3523C212.75 68.9823 211.93 67.9123 210.97 67.9523C210.01 67.9923 209.28 69.1423 209.34 70.5023Z" fill="#263238"/>
<path d="M191.77 71.262C191.83 72.632 192.66 73.712 193.61 73.662C194.56 73.612 195.3 72.482 195.24 71.112C195.18 69.742 194.35 68.672 193.4 68.712C192.45 68.752 191.71 69.902 191.77 71.262Z" fill="#263238"/>
<path d="M204.608 64.9416L216.697 64.4181C218.143 64.3554 219.365 65.4766 219.428 66.9222L219.63 71.5879C219.693 73.0335 218.571 74.2562 217.126 74.3188L205.037 74.8424C203.591 74.905 202.369 73.7838 202.306 72.3382L202.104 67.6725C202.041 66.2269 203.163 65.0042 204.608 64.9416Z" stroke="#263238" stroke-linecap="round" stroke-linejoin="round"/>
<path d="M186.541 65.7318L196.152 65.3155C197.598 65.2529 198.821 66.3741 198.883 67.8197L199.085 72.4853C199.148 73.9309 198.027 75.1536 196.581 75.2162L186.97 75.6325C185.525 75.6951 184.302 74.5739 184.239 73.1283L184.037 68.4627C183.975 67.0171 185.096 65.7944 186.541 65.7318Z" stroke="#263238" stroke-linecap="round" stroke-linejoin="round"/>
<path d="M202.03 66.2822L199.06 66.4122" stroke="#263238" stroke-linecap="round" stroke-linejoin="round"/>
<path d="M219.49 68.7522L226.42 68.4521" stroke="#263238" stroke-linecap="round" stroke-linejoin="round"/>
<path d="M213.76 216.052C213.76 216.052 206.49 215.732 203.91 214.582C201.33 213.432 183.15 208.582 182.22 208.892C179.117 210.172 176.109 211.672 173.22 213.382C171.75 214.462 168.59 223.072 167.39 226.482C167.243 226.859 167.249 227.279 167.406 227.652C167.562 228.025 167.858 228.323 168.23 228.482C168.578 228.643 168.973 228.672 169.341 228.564C169.709 228.455 170.025 228.217 170.23 227.892L172.85 223.692L170.96 231.552C170.856 231.964 170.913 232.4 171.119 232.772C171.325 233.144 171.665 233.423 172.07 233.552C172.392 233.657 172.737 233.663 173.062 233.568C173.387 233.474 173.675 233.283 173.89 233.022L180.05 225.412L183.05 222.412L176.75 234.112C176.636 234.327 176.574 234.565 176.57 234.808C176.565 235.051 176.618 235.291 176.725 235.51C176.831 235.728 176.987 235.918 177.181 236.065C177.375 236.211 177.601 236.31 177.84 236.352C178.078 236.392 178.323 236.376 178.554 236.305C178.785 236.234 178.996 236.109 179.17 235.942C180.98 234.182 186.58 228.732 187.07 227.942C188.078 226.747 189.193 225.645 190.4 224.652L184.28 236.272C184.168 236.433 184.092 236.617 184.057 236.81C184.023 237.003 184.03 237.202 184.08 237.392C184.129 237.582 184.219 237.759 184.343 237.911C184.468 238.063 184.624 238.186 184.8 238.272H184.89C186.97 238.352 188.02 236.872 189.51 235.412L195.95 229.112C195.95 229.112 205.82 231.202 208.63 230.452C211.44 229.702 217.85 224.692 217.85 224.692L213.76 216.052Z" fill="white" stroke="#263238" stroke-linecap="round" stroke-linejoin="round"/>
<path d="M213.76 216.052L214.04 227.252L217.92 224.702L213.76 216.052Z" fill="#263238" stroke="#263238" stroke-linecap="round" stroke-linejoin="round"/>
<path d="M172.89 223.691L175.1 219.221L182.9 213.521" fill="white"/>
<path d="M172.89 223.691L175.1 219.221L182.9 213.521" stroke="#263238" stroke-linecap="round" stroke-linejoin="round"/>
<path d="M183.12 222.422L186.66 218.722" stroke="#263238" stroke-linecap="round" stroke-linejoin="round"/>
<path d="M260.26 116.872C260.26 116.872 270.02 116.452 272.7 120.122C275.38 123.792 281.62 211.072 281.47 214.862C281.32 218.652 221.16 234.022 221.16 234.022L212.47 215.472L248.4 194.212L246.31 144.612" fill="white"/>
<path d="M260.26 116.872C260.26 116.872 270.02 116.452 272.7 120.122C275.38 123.792 281.62 211.072 281.47 214.862C281.32 218.652 221.16 234.022 221.16 234.022L212.47 215.472L248.4 194.212L246.31 144.612" stroke="#263238" stroke-linecap="round" stroke-linejoin="round"/>
<path d="M264.39 194.712C264.39 194.712 254.97 190.032 248.39 194.212" stroke="#263238" stroke-linecap="round" stroke-linejoin="round"/>
<path d="M260.67 197.662C257.711 195.874 254.327 194.914 250.87 194.882" stroke="#263238" stroke-linecap="round" stroke-linejoin="round"/>
<path d="M265.36 202.292C265.14 201.902 264.889 201.531 264.61 201.182" stroke="#263238" stroke-linecap="round" stroke-linejoin="round"/>
<path d="M31.2499 220.041C31.2499 220.041 35.7199 214.361 35.7199 210.911C35.7199 207.461 32.2699 212.541 32.2699 212.541C32.2699 212.541 39.5699 199.151 38.9599 193.671C38.3499 188.191 32.8799 203.211 32.8799 203.211C32.8799 203.211 34.6999 172.381 31.6599 173.391C28.6199 174.401 24.7599 203.391 24.7599 205.241C24.7599 207.091 22.1299 192.461 20.0999 196.721C18.0699 200.981 18.0999 211.121 18.0999 211.121C18.0999 211.121 15.4599 195.701 13.4299 200.981C11.3999 206.261 15.8499 220.241 15.8499 220.241" fill="#A9E4C7"/>
<path d="M10.7599 224.731H35.45V245.221H10.7599V224.731Z" stroke="#263238" stroke-linecap="round" stroke-linejoin="round"/>
<path d="M10.5598 231.832V220.182H35.5598V233.562C35.5598 234.357 35.2438 235.12 34.6812 235.683C34.1185 236.246 33.3555 236.562 32.5598 236.562H32.3998C31.6042 236.562 30.8411 236.246 30.2785 235.683C29.7159 235.12 29.3998 234.357 29.3998 233.562V231.872H29.2398V233.562C29.2398 234.357 28.9238 235.12 28.3611 235.683C27.7985 236.246 27.0355 236.562 26.2398 236.562H26.0798C25.2842 236.562 24.5211 236.246 23.9585 235.683C23.3959 235.12 23.0798 234.357 23.0798 233.562V231.872H22.9198V233.562C22.9198 234.357 22.6037 235.12 22.0411 235.683C21.4785 236.246 20.7155 236.562 19.9198 236.562H19.7698C18.9742 236.562 18.2111 236.246 17.6485 235.683C17.0859 235.12 16.7698 234.357 16.7698 233.562V231.872H16.6098V233.562C16.6098 234.357 16.2937 235.12 15.7311 235.683C15.1685 236.246 14.4055 236.562 13.6098 236.562H13.4598C12.6642 236.562 11.9011 236.246 11.3385 235.683C10.7759 235.12 10.4598 234.357 10.4598 233.562V231.872L10.5598 231.832Z" fill="white" stroke="#263238" stroke-linecap="round" stroke-linejoin="round"/>
<path d="M310.64 229.931V221.321H329.46V229.611L310.64 229.931Z" fill="#BFBFBF" stroke="#263238" stroke-linecap="round" stroke-linejoin="round"/>
<path d="M329.46 221.322L331.37 216.852C327.639 216.511 323.878 216.727 320.21 217.492C316.804 218.142 313.555 219.442 310.64 221.322H329.46Z" fill="white" stroke="#263238" stroke-linecap="round" stroke-linejoin="round"/>
<path d="M331.37 216.852C331.37 216.852 337.75 217.172 341.26 221.642C343.444 224.628 344.769 228.156 345.09 231.842L329.46 229.612V221.322L331.37 216.852Z" fill="white" stroke="#263238" stroke-linecap="round" stroke-linejoin="round"/>
<path d="M334.56 224.191V230.561L339.35 230.881C339.48 229.119 339.135 227.354 338.35 225.771C338.027 225.085 337.46 224.543 336.76 224.251C336.059 223.959 335.275 223.938 334.56 224.191Z" fill="white" stroke="#263238" stroke-linecap="round" stroke-linejoin="round"/>
<path d="M330.1 248.751H339.98L346.36 237.581L333.92 234.401L330.1 248.751Z" fill="white" stroke="#263238" stroke-linecap="round" stroke-linejoin="round"/>
<path d="M287.04 236.632L293.42 248.752H330.1L335.52 238.222L287.04 236.632Z" fill="#A6A6A6" stroke="#263238" stroke-linecap="round" stroke-linejoin="round"/>
<path d="M335.51 238.231H285.12V229.301H335.51V238.231Z" fill="#BFBFBF" stroke="#263238" stroke-linecap="round" stroke-linejoin="round"/>
<path d="M335.52 229.292L347.32 233.442V238.862L335.52 238.222V229.292Z" fill="white" stroke="#263238" stroke-linecap="round" stroke-linejoin="round"/>
<path d="M204.73 242.932L140.14 241.952L133.52 240.872H66.1601L68.3701 245.412H206.39L204.73 242.932Z" fill="#959595" stroke="#959595" stroke-linecap="round" stroke-linejoin="round"/>
<path d="M52.0601 226.032H134.88L123.27 142.722H40.4601L52.0601 226.032Z" fill="#959595" stroke="#959595" stroke-linecap="round" stroke-linejoin="round"/>
<path d="M48.3602 226.032H131.18L119.57 142.722H36.7502L48.3602 226.032Z" fill="#BABABA" stroke="#959595" stroke-linecap="round" stroke-linejoin="round"/>
<path d="M73.1701 200.062H99.1401L94.7701 168.702H68.8001L73.1701 200.062Z" fill="#BABABA" stroke="#959595" stroke-linecap="round" stroke-linejoin="round"/>
<path d="M94.7701 168.702L119.57 142.722H36.7501L68.8001 168.702H94.7701Z" fill="#D5D5D5" stroke="#959595" stroke-linecap="round" stroke-linejoin="round"/>
<path d="M99.1401 200.062L129.34 225.762L48.3601 226.032L73.1701 200.062H99.1401Z" fill="#747474" stroke="#959595" stroke-linecap="round" stroke-linejoin="round"/>
<path d="M80.6602 205.771C72.0777 205.771 65.1202 198.814 65.1202 190.231C65.1202 181.649 72.0777 174.691 80.6602 174.691C89.2427 174.691 96.2002 181.649 96.2002 190.231C96.2002 198.814 89.2427 205.771 80.6602 205.771Z" fill="#959595" stroke="#959595" stroke-linecap="round" stroke-linejoin="round"/>
<path d="M79.2401 182.352H78.2401C75.5508 182.352 72.9717 183.42 71.0701 185.322C69.1684 187.223 68.1001 189.802 68.1001 192.492V247.492H89.3801V192.492C89.3801 189.802 88.3118 187.223 86.4102 185.322C84.5086 183.42 81.9294 182.352 79.2401 182.352Z" fill="#D5D5D5" stroke="#959595" stroke-linecap="round" stroke-linejoin="round"/>
<path d="M68.1002 247.482V192.992C68.3827 190.621 69.5954 188.459 71.4717 186.982C73.348 185.506 75.7342 184.834 78.1052 185.117C80.4762 185.399 82.638 186.612 84.1148 188.489C85.5917 190.365 86.2627 192.751 85.9802 195.122V247.482H68.1002Z" fill="#D5D5D5" stroke="#959595" stroke-linecap="round" stroke-linejoin="round"/>
<path d="M75.4301 220.231H75.6801C77.1381 220.231 78.3201 221.413 78.3201 222.871V231.641C78.3201 233.099 77.1381 234.281 75.6801 234.281H75.4301C73.972 234.281 72.7901 233.099 72.7901 231.641V222.871C72.7901 221.413 73.972 220.231 75.4301 220.231Z" fill="#959595" stroke="#959595" stroke-linecap="round" stroke-linejoin="round"/>
<path d="M67.6801 242.372H106.84V247.482H67.6801V242.372Z" fill="#D5D5D5" stroke="#959595" stroke-linecap="round" stroke-linejoin="round"/>
<path d="M0.5 245.352H469V254.292H0.5V245.352Z" fill="#263238" stroke="#263238" stroke-linecap="round" stroke-linejoin="round"/>
</svg>
